<svg id="graduation" xmlns="http://www.w3.org/2000/svg" width="653.626" height="522.427" viewBox="0 0 653.626 522.427">
  <rect id="Retângulo_39" dataName="Retângulo 39" width="59.273" height="17.92" rx="7.43" transform="translate(133.619 89.598)" fill="#6c63ff" opacity="0.1"/>
  <rect id="Retângulo_40" dataName="Retângulo 40" width="59.273" height="17.92" rx="7.43" transform="translate(195.648 107.518)" fill="#6c63ff" opacity="0.1"/>
  <rect id="Retângulo_41" dataName="Retângulo 41" width="59.273" height="17.92" rx="7.43" transform="translate(257.678 125.438)" fill="#6c63ff" opacity="0.1"/>
  <rect id="Retângulo_42" dataName="Retângulo 42" width="59.273" height="17.92" rx="7.43" transform="translate(133.619 62.719)" fill="#6c63ff" opacity="0.1"/>
  <rect id="Retângulo_43" dataName="Retângulo 43" width="59.273" height="17.92" rx="7.43" transform="translate(195.648 80.638)" fill="#6c63ff" opacity="0.1"/>
  <rect id="Retângulo_44" dataName="Retângulo 44" width="59.273" height="17.92" rx="7.43" transform="translate(257.678 98.558)" fill="#6c63ff" opacity="0.1"/>
  <rect id="Retângulo_45" dataName="Retângulo 45" width="59.273" height="17.92" rx="7.43" transform="translate(326.599 89.598)" fill="#6c63ff" opacity="0.1"/>
  <rect id="Retângulo_46" dataName="Retângulo 46" width="59.273" height="17.92" rx="7.43" transform="translate(388.629 107.518)" fill="#6c63ff" opacity="0.1"/>
  <rect id="Retângulo_47" dataName="Retângulo 47" width="59.273" height="17.92" rx="7.43" transform="translate(450.659 125.438)" fill="#6c63ff" opacity="0.1"/>
  <rect id="Retângulo_48" dataName="Retângulo 48" width="59.273" height="17.92" rx="7.43" transform="translate(326.599 62.719)" fill="#6c63ff" opacity="0.1"/>
  <rect id="Retângulo_49" dataName="Retângulo 49" width="59.273" height="17.92" rx="7.43" transform="translate(388.629 80.638)" fill="#6c63ff" opacity="0.1"/>
  <rect id="Retângulo_50" dataName="Retângulo 50" width="59.273" height="17.92" rx="7.43" transform="translate(450.659 98.558)" fill="#6c63ff" opacity="0.1"/>
  <rect id="Retângulo_51" dataName="Retângulo 51" width="59.273" height="17.92" rx="7.43" transform="translate(133.619 26.879)" fill="#6c63ff" opacity="0.1"/>
  <rect id="Retângulo_52" dataName="Retângulo 52" width="59.273" height="17.92" rx="7.43" transform="translate(195.648 44.799)" fill="#6c63ff" opacity="0.1"/>
  <rect id="Retângulo_53" dataName="Retângulo 53" width="59.273" height="17.92" rx="7.43" transform="translate(257.678 62.719)" fill="#6c63ff" opacity="0.1"/>
  <rect id="Retângulo_54" dataName="Retângulo 54" width="59.273" height="17.92" rx="7.43" transform="translate(133.619)" fill="#6c63ff" opacity="0.1"/>
  <rect id="Retângulo_55" dataName="Retângulo 55" width="59.273" height="17.92" rx="7.43" transform="translate(195.648 17.92)" fill="#6c63ff" opacity="0.1"/>
  <rect id="Retângulo_56" dataName="Retângulo 56" width="59.273" height="17.92" rx="7.43" transform="translate(257.678 35.839)" fill="#6c63ff" opacity="0.1"/>
  <rect id="Retângulo_57" dataName="Retângulo 57" width="59.273" height="17.92" rx="7.43" transform="translate(326.599 26.879)" fill="#6c63ff" opacity="0.1"/>
  <rect id="Retângulo_58" dataName="Retângulo 58" width="59.273" height="17.92" rx="7.43" transform="translate(388.629 44.799)" fill="#6c63ff" opacity="0.1"/>
  <rect id="Retângulo_59" dataName="Retângulo 59" width="59.273" height="17.92" rx="7.43" transform="translate(450.659 62.719)" fill="#6c63ff" opacity="0.1"/>
  <rect id="Retângulo_60" dataName="Retângulo 60" width="59.273" height="17.92" rx="7.43" transform="translate(326.599)" fill="#6c63ff" opacity="0.1"/>
  <rect id="Retângulo_61" dataName="Retângulo 61" width="59.273" height="17.92" rx="7.43" transform="translate(388.629 17.92)" fill="#6c63ff" opacity="0.1"/>
  <rect id="Retângulo_62" dataName="Retângulo 62" width="59.273" height="17.92" rx="7.43" transform="translate(450.659 35.839)" fill="#6c63ff" opacity="0.1"/>
  <rect id="Retângulo_63" dataName="Retângulo 63" width="59.273" height="17.92" rx="7.43" transform="translate(133.619 408.706)" fill="#6c63ff" opacity="0.1"/>
  <rect id="Retângulo_64" dataName="Retângulo 64" width="59.273" height="17.92" rx="7.43" transform="translate(207.976 434.022)" fill="#6c63ff" opacity="0.1"/>
  <rect id="Retângulo_65" dataName="Retângulo 65" width="59.273" height="17.92" rx="7.43" transform="translate(257.678 444.545)" fill="#6c63ff" opacity="0.1"/>
  <rect id="Retângulo_66" dataName="Retângulo 66" width="59.273" height="17.92" rx="7.43" transform="translate(133.619 381.826)" fill="#6c63ff" opacity="0.1"/>
  <rect id="Retângulo_67" dataName="Retângulo 67" width="59.273" height="17.92" rx="7.43" transform="translate(195.648 399.746)" fill="#6c63ff" opacity="0.1"/>
  <rect id="Retângulo_68" dataName="Retângulo 68" width="59.273" height="17.92" rx="7.43" transform="translate(257.678 417.666)" fill="#6c63ff" opacity="0.1"/>
  <rect id="Retângulo_69" dataName="Retângulo 69" width="59.273" height="17.92" rx="7.43" transform="translate(326.599 408.706)" fill="#6c63ff" opacity="0.1"/>
  <rect id="Retângulo_70" dataName="Retângulo 70" width="59.273" height="17.92" rx="7.43" transform="translate(388.629 426.626)" fill="#6c63ff" opacity="0.1"/>
  <rect id="Retângulo_71" dataName="Retângulo 71" width="59.273" height="17.92" rx="7.43" transform="translate(450.659 444.545)" fill="#6c63ff" opacity="0.1"/>
  <rect id="Retângulo_72" dataName="Retângulo 72" width="59.273" height="17.92" rx="7.43" transform="translate(326.599 381.826)" fill="#6c63ff" opacity="0.1"/>
  <rect id="Retângulo_73" dataName="Retângulo 73" width="59.273" height="17.92" rx="7.43" transform="translate(388.629 399.746)" fill="#6c63ff" opacity="0.1"/>
  <rect id="Retângulo_74" dataName="Retângulo 74" width="59.273" height="17.92" rx="7.43" transform="translate(450.659 417.666)" fill="#6c63ff" opacity="0.1"/>
  <rect id="Retângulo_75" dataName="Retângulo 75" width="59.273" height="17.92" rx="7.43" transform="translate(133.619 345.987)" fill="#6c63ff" opacity="0.1"/>
  <rect id="Retângulo_76" dataName="Retângulo 76" width="59.273" height="17.92" rx="7.43" transform="translate(195.648 363.907)" fill="#6c63ff" opacity="0.1"/>
  <rect id="Retângulo_77" dataName="Retângulo 77" width="59.273" height="17.92" rx="7.43" transform="translate(257.678 381.826)" fill="#6c63ff" opacity="0.1"/>
  <rect id="Retângulo_78" dataName="Retângulo 78" width="59.273" height="17.92" rx="7.43" transform="translate(133.619 319.108)" fill="#6c63ff" opacity="0.1"/>
  <rect id="Retângulo_79" dataName="Retângulo 79" width="59.273" height="17.92" rx="7.43" transform="translate(195.648 337.027)" fill="#6c63ff" opacity="0.1"/>
  <rect id="Retângulo_80" dataName="Retângulo 80" width="59.273" height="17.92" rx="7.43" transform="translate(257.678 354.947)" fill="#6c63ff" opacity="0.1"/>
  <rect id="Retângulo_81" dataName="Retângulo 81" width="59.273" height="17.92" rx="7.43" transform="translate(326.599 345.987)" fill="#6c63ff" opacity="0.1"/>
  <rect id="Retângulo_82" dataName="Retângulo 82" width="59.273" height="17.92" rx="7.43" transform="translate(388.629 363.907)" fill="#6c63ff" opacity="0.1"/>
  <rect id="Retângulo_83" dataName="Retângulo 83" width="59.273" height="17.92" rx="7.43" transform="translate(450.659 381.826)" fill="#6c63ff" opacity="0.1"/>
  <rect id="Retângulo_84" dataName="Retângulo 84" width="59.273" height="17.92" rx="7.43" transform="translate(326.599 319.108)" fill="#6c63ff" opacity="0.1"/>
  <rect id="Retângulo_85" dataName="Retângulo 85" width="59.273" height="17.92" rx="7.43" transform="translate(388.629 337.027)" fill="#6c63ff" opacity="0.1"/>
  <rect id="Retângulo_86" dataName="Retângulo 86" width="59.273" height="17.92" rx="7.43" transform="translate(450.659 354.947)" fill="#6c63ff" opacity="0.1"/>
  <ellipse id="Elipse_43" dataName="Elipse 43" cx="302.222" cy="24.812" rx="302.222" ry="24.812" transform="translate(30.236 472.803)" fill="#6c63ff" opacity="0.1"/>
  <path id="Caminho_343" dataName="Caminho 343" d="M184.162,254.165c28.5,12.351,44.875,37.907,44.875,37.907s-29.836,5.514-58.342-6.83-44.875-37.907-44.875-37.907S155.656,241.815,184.162,254.165Z" transform="translate(-125.82 -125.42)" fill="#32b999"/>
  <path id="Caminho_344" dataName="Caminho 344" d="M333.709,179.366C342.524,164.892,357.535,158,357.535,158s.689,16.5-8.1,30.932S325.6,210.25,325.6,210.25,324.887,193.757,333.709,179.366Z" transform="translate(-187.905 -98.038)" fill="#32b999"/>
  <path id="Caminho_345" dataName="Caminho 345" d="M242.177,191.536c6.306,22.51,23.688,37.328,23.688,37.328s7.161-21.69.855-44.206-23.7-37.328-23.7-37.328S235.864,169.02,242.177,191.536Z" transform="translate(-161.173 -94.722)" fill="#455b57"/>
  <rect id="Retângulo_87" dataName="Retângulo 87" width="502.439" height="251.564" rx="7.21" transform="translate(81.927 95.801)" fill="#455b57"/>
  <path id="Caminho_346" dataName="Caminho 346" d="M118.87,482H621.309v10.194a4.969,4.969,0,0,1-4.969,4.969h-492.5a4.969,4.969,0,0,1-4.969-4.969Z" transform="translate(-36.943 -149.797)" opacity="0.1"/>
  <rect id="Retângulo_88" dataName="Retângulo 88" width="37.218" height="18.609" rx="2.5" transform="translate(130.862 313.594)" fill="#32b999"/>
  <rect id="Retângulo_89" dataName="Retângulo 89" width="25.501" height="2.757" rx="1.378" transform="translate(178.418 329.446)" fill="#32b999"/>
  <path id="Caminho_347" dataName="Caminho 347" d="M333.417,276.045c18.188,3.357,36.742,0,54.855-2.274l55.048-6.892c2.226-.283,5.465-1.613,6.775,1.11.737,1.523.241,4.825.3,6.575.145,4.825.131,9.649,0,14.474-.248,9.222-.924,18.423-1.785,27.6-1.675,17.968-4.046,35.839-5.231,53.876-.607,9.18-.91,18.388-.641,27.569.062,2.192.152,4.383.283,6.568.145,2.447,1.241,6.079-1.427,7.712-1.523.937-4.521.889-6.265,1.165-2.757.434-5.514.779-8.326,1.061-18.533,1.854-37.307,1.082-55.909.972l-56.171-.289-13.7-.076c-1.241,0-5.714.744-6.479-.731-.324-.627.538-3.563.689-4.349q.317-1.944.689-3.88c1.6-9.063,3.487-18.071,5.39-27.072,4.087-19.3,8.271-38.693,9.952-58.4.834-9.89.283-19.87,1.3-29.74.476-4.583,1.041-14.811,7.14-15.218,5.169-.345,10.49,0,15.673,0a1.034,1.034,0,1,0,0-2.068c-4.893,0-9.794-.131-14.687-.034-3.253.062-5.514.834-7.064,3.825-3.963,7.678-3.556,17.92-3.68,26.3-.3,20.063-3.377,39.7-7.388,59.321-2.019,9.876-4.2,19.719-6.2,29.6-.944,4.721-1.847,9.456-2.674,14.2-.386,2.261-2.336,7.244-.62,9.318s7,.958,9.36.972l16.445.1,31.511.179c20.36.117,40.788.689,61.141.09,9.718-.289,19.987-.689,29.45-3.012,2.819-.689,4.177-1.985,4.287-4.99.165-4.659-.593-9.463-.689-14.143-.689-40.044,8.719-79.529,7.754-119.586-.062-2.722.965-9.587-2.013-11.234-1.337-.744-3.074-.338-4.48-.172-2.688.31-5.369.689-8.057,1.006l-34.909,4.356c-11.158,1.378-22.31,2.867-33.489,4.135-11.834,1.378-23.785,2.2-35.577,0-1.3-.241-1.861,1.751-.551,1.992Z" transform="translate(-177.64 -131.047)" fill="#32b999"/>
  <path id="Caminho_348" dataName="Caminho 348" d="M319.551,312.751,457.271,306c1.33-.069,1.337-2.137,0-2.068l-137.719,6.754C318.228,310.746,318.221,312.813,319.551,312.751Z" transform="translate(-185.719 -143.39)" fill="#32b999"/>
  <path id="Caminho_349" dataName="Caminho 349" d="M381.136,289a3.446,3.446,0,0,0,1.22,5.562c1.854.848,4.032.138,5.872-.324,2.757-.689,5.514-1.3,8.346-1.806a113.824,113.824,0,0,1,18.671-1.737c2.853-.034,5.686.1,8.539.221,2.068.083,4.294.248,6.044-1.034,2-1.461,2.647-4.315.689-6.093-2.757-2.516-8.7-1.055-11.882-.793a266.452,266.452,0,0,0-34.364,5.128c-1.3.276-.751,2.274.551,1.992q11.214-2.419,22.6-3.887,5.6-.689,11.214-1.165c1.764-.145,3.529-.276,5.293-.379.689-.041,1.42-.117,2.123-.1,2.185.048,2.44-.345,1.13,2.3-1.165,2.336-.793,2.068-2.812,1.992-.855,0-1.709-.1-2.564-.138q-2.626-.11-5.252-.117-5.59,0-11.152.538c-3.143.3-6.279.731-9.387,1.282-1.944.345-3.873.744-5.8,1.185-.848.2-1.7.407-2.55.62-.407.11-.82.207-1.227.31q-2.261.786-3.853-2.068c.924-.958-.531-2.426-1.461-1.461Z" transform="translate(-204.876 -136.679)" fill="#32b999"/>
  <path id="Caminho_350" dataName="Caminho 350" d="M402.964,333.962c-9.973-.386-20.745,2.309-27.314,10.338-5.142,6.279-8.071,17.051-2.626,24.123,5.851,7.581,18.685,6.244,26.425,3.012,8.188-3.446,17.148-10.552,19.608-19.443,3.067-11.1-6.892-19.5-17.265-19.622a1.035,1.035,0,0,0,0,2.068c5.914.069,11.717,2.605,14.474,8.112,2.888,5.8.4,11.9-3.446,16.541-6.162,7.4-15.8,12.971-25.611,12.813-5.893-.09-12.406-2.109-14.232-8.326-1.5-5.038-.358-10.545,2.261-15.011,5.665-9.649,17.2-12.916,27.769-12.5,1.33.048,1.33-2.019,0-2.068Z" transform="translate(-201.74 -152.229)" fill="#32b999"/>
  <path id="Caminho_351" dataName="Caminho 351" d="M401.777,353.786a2.688,2.688,0,0,0-3.612,2.757c.207,2.688,3.17,3.446,5.4,3.288,1.923-.165,4.17-.875,3.494-3.281a3.088,3.088,0,0,0-1.682-1.944,3.894,3.894,0,0,0-1.944-.241c-.255,0-2.591.855-1.6-.172l-1.627-.214a1.7,1.7,0,0,1,.5,1.378,1.041,1.041,0,0,0,1.551.889,1.378,1.378,0,0,1,1.868,1.613,1.041,1.041,0,0,0,1.888.8c.689-1.241,1.523-3.708.489-5-.689-.875-2.019-.613-2.846-.1a9.988,9.988,0,0,0-1.42,1.22c-.834.737-1.378,1.082-1.068-.331.517-2.571,2.971-4.618,5.211-5.645l-1.516-1.165a21.792,21.792,0,0,1-4.17,8.167l1.764.731a4.6,4.6,0,0,1,2.812-4.487h-1.013l.538.882c-.2,1.3,1.792,1.861,1.992.544.262-1.7-.813-3.915-2.805-3.081-2.378.992-3.612,3.715-3.563,6.141,0,.827,1.172,1.468,1.771.737a24.3,24.3,0,0,0,4.694-9.091,1.048,1.048,0,0,0-1.523-1.165,11.558,11.558,0,0,0-5.017,4.37c-.841,1.379-1.9,3.529-1.041,5.114a2.192,2.192,0,0,0,3,.848,8.063,8.063,0,0,0,1.73-1.378c.255-.227.538-.62.875-.689.3-.207.29-.09-.048.365a3.756,3.756,0,0,1-.6,2.013l1.888.793a3.446,3.446,0,0,0-4.9-3.949l1.558.9a3.756,3.756,0,0,0-.779-2.433,1.048,1.048,0,0,0-1.62-.214,2.7,2.7,0,0,0,.069,4c.986.751,1.468,0,2.55-.172,3.674-.476,1.53,1.179.234,1.234a4.884,4.884,0,0,1-1.73-.124q-2.157-.73-.269-1.882c1.234.5,1.764-1.5.551-1.992Z" transform="translate(-210.457 -156.739)" fill="#32b999"/>
  <path id="Caminho_352" dataName="Caminho 352" d="M396.365,361.806c.848,2.757-2.654,3.667-4.314,4.618a9.606,9.606,0,0,0-2.984,2.612c-1.737,2.33-2.385,5.293-2.957,8.084-.262,1.3,1.73,1.854,2,.551a23.434,23.434,0,0,1,1.744-5.948c1.241-2.467,3.019-3.294,5.334-4.563s3.991-3.232,3.17-5.907C397.971,359.987,395.972,360.531,396.365,361.806Z" transform="translate(-206.706 -160.982)" fill="#32b999"/>
  <path id="Caminho_353" dataName="Caminho 353" d="M401.03,360.37a2,2,0,0,0-1.723,2.068c0,.82.545,1.344.917,2a15.785,15.785,0,0,1,2,4.349c.331,1.482.655,4.135-.117,5.514-1.427,2.557-4,2.068-6.2,2.068-2.068,0-3.667.689-3.6-2.192.041-1.62,1.172-3.26,2.068-4.535l-1.888-.248a36.032,36.032,0,0,1,.627,6.382c0,.958,1.468,1.489,1.923.517a39.923,39.923,0,0,0,2.626-7.264l-2.033-.276.358,5.238a1.041,1.041,0,0,0,1.923.524,2.344,2.344,0,0,0,.517-.93c.069-.324-.565-2.509-.82-1.73l2.026.276.145-4.976-2.068.276a10.3,10.3,0,0,1,.386,4.342c-.131,1.151,1.806,1.413,2.068.276l1.3-6.685-1.888.241a4.569,4.569,0,0,1,.351,2.977c-.152,1.323,1.916,1.31,2.068,0a7.265,7.265,0,0,0-.634-4.018,1.041,1.041,0,0,0-1.889.248l-1.3,6.685,2.033.276a11.274,11.274,0,0,0-.462-4.886,1.034,1.034,0,0,0-2.026.269l-.145,4.976a1.039,1.039,0,0,0,2.033.276l.11-.338a1.047,1.047,0,0,0-.262-1.006c-2.143-2.33-2.578,1.378-3.322,2.405l1.93.524-.358-5.238a1.04,1.04,0,0,0-2.033-.276,37.051,37.051,0,0,1-2.412,6.775l1.93.524a38.974,38.974,0,0,0-.689-6.934c-.179-.951-1.427-.91-1.888-.248-1.378,1.985-3.763,6.32-1.923,8.7,1.606,2.068,6.658,1.268,8.815,1.137,3.4-.193,4.638-2.35,5.011-5.562a13.616,13.616,0,0,0-.255-4.6c-.186-.813-2.068-5.969-2.633-5.865,1.31-.241.751-2.24-.551-2Z" transform="translate(-207.925 -160.931)" fill="#32b999"/>
  <path id="Caminho_354" dataName="Caminho 354" d="M397.451,365.826l-5.645,7.45,1.785,1.041,4.135-5.982-1.888-.8-2.061,7.864a1.041,1.041,0,0,0,1.888.8,36.323,36.323,0,0,1,3.15-4.432l-1.723-1.006a11.254,11.254,0,0,1-2.6,4.776l1.73,1.006a9.234,9.234,0,0,1,.751-2.757c.531-1.192-1.151-2.247-1.785-1.048a24.277,24.277,0,0,1-1.992,3.129l1.888.248.42-1.964-1.888-.248.3,1.723a1.041,1.041,0,0,0,1.73.455,20.581,20.581,0,0,0,4.135-6.237h-1.778a9.286,9.286,0,0,1,.972,2.757c.248,1.241,1.9.779,2.026-.276a56.029,56.029,0,0,0,.455-6.961h-2.068V369.7c0,1.123,1.84,1.454,2.033.276a7.9,7.9,0,0,1,1.013-2.964h-1.813a4.6,4.6,0,0,1,.689,2.343,1.034,1.034,0,1,0,2.068,0l.262-1.378h-1.992c.2,1.22.958,8.091-1.737,7.285-.455-.11-.586-.083-.393.076l.613-1.31,1.44-3.053-1.93-.524c.124,1.42.255,3.446-.6,4.659a3.57,3.57,0,0,1-3.894.8,6.9,6.9,0,0,1-1.8-1.888l-1.413,1.378c1.144.834,3,2.881,4.473,3,1.123.09,2.068-.841,2.805-1.585a12.013,12.013,0,0,0,3.37-8.843,1.034,1.034,0,1,0-2.068,0v2.357a1.034,1.034,0,0,0,2.068,0v-5.783a1.034,1.034,0,1,0-2.068,0,24.811,24.811,0,0,1-.358,4.135l2.033.276a47.622,47.622,0,0,1-.227-4.955,1.034,1.034,0,0,0-2.026-.276c-.31,1.316-.689,2.612-1.055,3.9l1.888-.248-.145-.551c-.1-1.316-2.164-1.323-2.068,0a3.784,3.784,0,0,0,.427,1.6,1.045,1.045,0,0,0,1.888-.248c.393-1.3.744-2.591,1.055-3.9L399.9,364a47.588,47.588,0,0,0,.227,4.955c.1,1.061,1.813,1.516,2.026.276a28.474,28.474,0,0,0,.434-4.714h-2.068V370.3h2.068v-2.357h-2.068a9.939,9.939,0,0,1-2.516,7.085,8.473,8.473,0,0,1-.868.855c-.489.469-.937.4-1.33-.214a17.221,17.221,0,0,1-2.847-2.068c-.855-.613-2.026.6-1.42,1.413,1.585,2.109,3.949,4.459,6.892,3.446,3.095-1.1,3.515-5.286,3.281-8.043-.076-.917-1.447-1.537-1.923-.517-.689,1.454-1.378,2.9-2.068,4.363a3.855,3.855,0,0,0-.62,1.82c.228,1.551,2.109,1.3,3.267,1.206,4.487-.338,3.777-6.7,3.26-9.9-.172-1.061-1.716-.9-1.992,0a6.087,6.087,0,0,0-.338,1.957h2.068a8.2,8.2,0,0,0-.972-3.384,1.041,1.041,0,0,0-1.785,0,10.051,10.051,0,0,0-1.227,3.446l2.068.276v-4.335a1.034,1.034,0,0,0-2.068,0,56.039,56.039,0,0,1-.455,6.961l2.033-.276a11.834,11.834,0,0,0-1.179-3.226,1.041,1.041,0,0,0-1.785,0,18.857,18.857,0,0,1-3.811,5.817l1.73.455-.3-1.723c-.159-.917-1.454-.944-1.888-.248a4.535,4.535,0,0,0-.627,3.556c.172.979,1.413.875,1.888.248a24.192,24.192,0,0,0,1.992-3.122l-1.785-1.048a11.756,11.756,0,0,0-.965,3.246c-.124.91.958,1.861,1.73,1.006a13.786,13.786,0,0,0,3.129-5.693c.255-.937-1.041-1.826-1.73-1.006a39.49,39.49,0,0,0-3.446,4.825l1.889.8,2.1-7.836a1.041,1.041,0,0,0-1.888-.8l-4.135,5.989c-.772,1.11,1,2.068,1.785,1.041l5.624-7.444c.8-1.061-.992-2.068-1.785-1.048Z" transform="translate(-208.351 -161.742)" fill="#32b999"/>
  <path id="Caminho_355" dataName="Caminho 355" d="M527.067,370.4c8.271-5.059,14.846-12.606,22.151-18.919,7.926-6.844,16.245-13.219,24.812-19.257,16.638-11.717,34.109-22.2,51.567-32.655a1.034,1.034,0,0,0-1.041-1.785C607.1,308.24,589.62,318.7,572.982,330.44c-7.85,5.514-15.514,11.358-22.861,17.561-7.995,6.754-15.114,15.163-24.123,20.614-1.137.689-.1,2.481,1.041,1.785Z" transform="translate(-250.036 -141.443)" fill="#32b999"/>
  <path id="Caminho_356" dataName="Caminho 356" d="M696.979,253.847c-8.96.91-18.609,3.191-24.123,11.027-4.762,6.741-4.659,18.5-.186,25.418,5.079,7.864,15.459,8.147,23.523,5.6s16.41-7,16.335-16.638c-.041-5.169-1.909-10.552-3.97-15.239-1.778-4.046-4.928-7.581-9.7-7.133-1.316.124-1.33,2.192,0,2.068,6.389-.593,8.443,7,9.959,11.786,1.378,4.473,2.654,9.766.489,14.212s-7.381,6.713-11.841,8.34c-4.825,1.751-10.125,2.819-15.163,1.378-9.98-2.791-12.737-15.439-9.863-24.412,3.308-10.338,15.025-13.378,24.571-14.343,1.31-.131,1.324-2.2,0-2.068Z" transform="translate(-294.724 -127.824)" fill="#32b999"/>
  <path id="Caminho_357" dataName="Caminho 357" d="M716.979,369.847c-8.96.91-18.609,3.191-24.123,11.027-4.763,6.741-4.659,18.5-.186,25.418,5.079,7.864,15.459,8.147,23.523,5.6s16.41-7,16.334-16.638c-.041-5.169-1.909-10.552-3.97-15.239-1.778-4.046-4.928-7.581-9.7-7.133-1.316.124-1.33,2.192,0,2.068,6.389-.593,8.443,7,9.959,11.786,1.378,4.473,2.653,9.766.489,14.212s-7.382,6.713-11.841,8.34c-4.825,1.751-10.125,2.819-15.163,1.378-9.98-2.791-12.737-15.438-9.863-24.412,3.308-10.338,15.025-13.378,24.571-14.343,1.309-.131,1.323-2.2,0-2.068Z" transform="translate(-300.94 -163.875)" fill="#32b999"/>
  <path id="Caminho_358" dataName="Caminho 358" d="M689.737,267.164l6.527,7.444a1.041,1.041,0,0,0,1.723-.462c1.379-3.625,1.117-7.381,1.441-11.193a36.848,36.848,0,0,1,2.929-11.42,38.547,38.547,0,0,1,15.425-17.678c1.137-.689.1-2.481-1.041-1.785a40.47,40.47,0,0,0-15.6,17.134,39.61,39.61,0,0,0-3.446,10.938c-.689,4.473-.062,9.16-1.716,13.453l1.73-.462-6.492-7.43c-.882-1-2.337.469-1.461,1.461Z" transform="translate(-300.998 -121.008)" fill="#32b999"/>
  <path id="Caminho_359" dataName="Caminho 359" d="M532.149,413.49q53.325-1.627,106.677-.689a1.035,1.035,0,0,0,0-2.068q-53.338-.951-106.677.689C530.819,411.463,530.812,413.531,532.149,413.49Z" transform="translate(-251.789 -176.474)" fill="#32b999"/>
  <path id="Caminho_360" dataName="Caminho 360" d="M697.863,384.377a213.6,213.6,0,0,1,34.923,17.547c1.13.689,2.171-1.082,1.041-1.785a215.886,215.886,0,0,0-35.384-17.754c-1.234-.489-1.771,1.509-.545,1.992Z" transform="translate(-303.396 -167.749)" fill="#32b999"/>
  <path id="Caminho_361" dataName="Caminho 361" d="M721.039,371.566a84.43,84.43,0,0,0-20.27,51.367c-.055,1.33,2.012,1.33,2.068,0A82.113,82.113,0,0,1,722.5,373.027C723.362,372.021,721.908,370.553,721.039,371.566Z" transform="translate(-304.504 -164.305)" fill="#32b999"/>
  <path id="Caminho_362" dataName="Caminho 362" d="M329.768,402.5,406.8,401.5l8.856-.117c1.592,0,3.184-.055,4.776-.062a3.8,3.8,0,0,1,3.708,4.135c-.1,4.825-3.136,4.652-7.106,4.825l-9.573.434-38.982,1.716c-6.982.31-13.97.689-20.952.93-6.3.193-18.278-1.861-15.48-11.027.386-1.275-1.606-1.82-2-.551-1.379,4.507,1.061,9.084,4.99,11.448,5.576,3.35,12.923,2.212,19.078,1.937l47.859-2.171,11.62-.517c2.977-.138,7.12.469,9.856-.917,3.212-1.62,3.777-8.05,1.751-10.759-1.041-1.378-2.5-1.5-4.135-1.565-4.287-.165-8.65.117-12.944.172l-23.861.317-54.524.689a1.035,1.035,0,0,0,0,2.068Z" transform="translate(-188.885 -172.994)" fill="#32b999"/>
  <g id="Michel" transform="translate(442.437 154.813)">
    <path id="Caminho_363" dataName="Caminho 363" d="M777.444,764.917c-1.737,1.089-3.722,1.7-5.514,2.66s-3.536,2.4-4.046,4.383a2.756,2.756,0,0,0,.09,1.875,3.639,3.639,0,0,0,1.93,1.53,29.284,29.284,0,0,0,23.165.262,30.529,30.529,0,0,1,4-1.585,25.957,25.957,0,0,1,5.121-.524,39.377,39.377,0,0,0,5.383-.689,4.735,4.735,0,0,0,2.44-1.013,4.528,4.528,0,0,0,1.1-2.633,21.677,21.677,0,0,0-3.446-15.356,5.188,5.188,0,0,0-1.5-1.592,5.8,5.8,0,0,0-2.392-.641c-3.446-.42-7.058-1.192-10.538-1.275-2.495-.055-3.749,1.13-5.514,2.846C784.068,756.812,781.938,762.112,777.444,764.917Z" transform="translate(-767.762 -436.933)" fill="#323444"/>
    <path id="Caminho_364" dataName="Caminho 364" d="M855.317,764.258c0,3.377.407,6.954,2.454,9.649a12.738,12.738,0,0,0,3.35,2.929c4.328,2.757,10.063,3.77,14.625,1.434a4.341,4.341,0,0,0,1.819-1.53c.689-1.2.324-2.695-.062-4.018l-6.6-22.882c-4.266.655-10.538,1.116-14.329,3.281C853.821,754.685,855.317,761.239,855.317,764.258Z" transform="translate(-794.846 -436.785)" fill="#323444"/>
    <path id="Caminho_365" dataName="Caminho 365" d="M774.668,563.526c-.4,1.261-1.847,1.847-2.64,2.908a5.521,5.521,0,0,0-.5,4.494,11.881,11.881,0,0,0,3.026,5.962,7.147,7.147,0,0,0,6.2,2.109,5.169,5.169,0,0,0,4.211-4.638,8.781,8.781,0,0,0-.648-2.984l-4.7-13.591a.514.514,0,0,0-.848-.372c-1.11.524-3.336,1.075-3.984,2.226S775.136,562.278,774.668,563.526Z" transform="translate(-768.859 -376.948)" fill="#fbb3b2"/>
    <path id="Caminho_366" dataName="Caminho 366" d="M773,560.264c1.716-.269,3.219-1.275,4.824-1.937s3.618-.917,4.969.186c.386.317.758.751,1.261.745a49.338,49.338,0,0,0-3.088-9.814.764.764,0,0,0-.269-.379.778.778,0,0,0-.586,0l-4.639,1.213c-1.716.448-1.916.31-1.785,2C773.724,553.027,774.11,560.264,773,560.264Z" transform="translate(-769.39 -374.369)" fill="#323444"/>
    <path id="Caminho_367" dataName="Caminho 367" d="M771.01,422.817a6.533,6.533,0,0,0-.689,3.632,123.493,123.493,0,0,0,.965,18.271c.214,1.447.482,2.895.62,4.356a50.251,50.251,0,0,1,.1,6.113l-.689,26.535c-.083,3.246-.248,6.734-2.254,9.284a4.44,4.44,0,0,0-.806,2.943c.524,6.658,1.626,13.26,2.722,19.843a12.261,12.261,0,0,1,11.124.531,122.453,122.453,0,0,0,5.714-33.772c.159-5.645-.083-11.324.786-16.9,1.454-9.387.861-19.016-.207-28.458-.338-2.991-1.054-6.072-2.971-8.388a12.715,12.715,0,0,0-6.892-3.97C775.979,422.169,773.7,422.858,771.01,422.817Z" transform="translate(-767.91 -335.067)" fill="#32b999"/>
    <path id="Caminho_368" dataName="Caminho 368" d="M771.01,422.817a6.533,6.533,0,0,0-.689,3.632,123.493,123.493,0,0,0,.965,18.271c.214,1.447.482,2.895.62,4.356a50.251,50.251,0,0,1,.1,6.113l-.689,26.535c-.083,3.246-.248,6.734-2.254,9.284a4.44,4.44,0,0,0-.806,2.943c.524,6.658,1.626,13.26,2.722,19.843a12.261,12.261,0,0,1,11.124.531,122.453,122.453,0,0,0,5.714-33.772c.159-5.645-.083-11.324.786-16.9,1.454-9.387.861-19.016-.207-28.458-.338-2.991-1.054-6.072-2.971-8.388a12.715,12.715,0,0,0-6.892-3.97C775.979,422.169,773.7,422.858,771.01,422.817Z" transform="translate(-767.91 -335.067)" opacity="0.1"/>
    <path id="Caminho_369" dataName="Caminho 369" d="M783.464,530.4a121.722,121.722,0,0,0,7.25,70.466,19.1,19.1,0,0,1,1.682,5.211c.379,3.377-1.178,6.623-2.068,9.89-2.068,7.43-.875,15.342.448,22.944q.827,4.756,1.7,9.5c.572,3.088,1.123,6.444-.31,9.242,1.234,5.142,1.964,10.235,3.2,15.376a2.92,2.92,0,0,1,.117,1.261,3.715,3.715,0,0,1-1.261,1.688A7.54,7.54,0,0,0,792.3,683.2c3.15-2.261,7.54-1.468,11.138,0s7.14,3.446,11.027,3.446c-.565-4.562-1.109-9.353.572-13.633.979-2.481,2.7-4.824,2.653-7.478-.048-2.378-1.5-4.5-1.854-6.851A17.352,17.352,0,0,1,816,654.3c.924-8.436-.124-16.955-1.172-25.377a15.163,15.163,0,0,0-1.158-4.824c-.49-.993-1.22-1.944-1.206-3.053,0-1.289,1.041-2.337,1.427-3.563.689-2.261-.579-5.335,1.33-6.734,5.031-3.694,3.1-12.516,2.991-18.754q-.131-8.071-.689-16.128a68.7,68.7,0,0,1,3.8,27.8c-.22,3.088-.627,6.334.579,9.187.923,2.192,2.757,4,3.253,6.32a26.442,26.442,0,0,1,.159,4.376,4.509,4.509,0,0,0,1.827,3.791c.1,6.644.689,13.75.793,20.394a50.3,50.3,0,0,0,.827,10.132,12.917,12.917,0,0,1,.51,3.267,13.659,13.659,0,0,1-1.089,4.018,23.04,23.04,0,0,0,3.446,21.262c1.627-2.888,5.017-4.418,8.326-4.659s6.575.593,9.78,1.434a19.153,19.153,0,0,1,2.288-11.648,9.534,9.534,0,0,0,1.206-2.591c.372-1.751-.5-3.494-.965-5.224-.765-2.757-.5-5.727-.317-8.608a136.219,136.219,0,0,0-1.275-28.892,24.473,24.473,0,0,0-1.316-5.514c-.248-.634-.551-1.241-.758-1.882a14.842,14.842,0,0,1-.551-3.529l-.793-11.027c-.558-7.726,1.978-15.356,3.75-22.9.793-3.377,1.654-6.747,2.185-10.18.724-4.673.841-9.449,1.9-14.06.951-4.135,2.667-8.167,3.026-12.406.552-6.568-2.178-12.916-4.824-18.94-1.1-2.481-5.272-2.233-7.953-2.674-19.016-3.122-39.044-3.143-56.978,3.894A14.179,14.179,0,0,0,783.464,530.4Z" transform="translate(-771.941 -365.703)" fill="#3c354c"/>
    <path id="Caminho_370" dataName="Caminho 370" d="M803.1,354.536l2.109,8.2a21.918,21.918,0,0,1,.944,5.8,4.28,4.28,0,0,1-.462,2.068,4.93,4.93,0,0,1-1.31,1.337c-1.44,1.1-2.44,3.653-4.087,4.411.848,1.475,2.019.517,3.549,1.254,2.695,1.309,5.162,3.191,8.085,3.839,2.757.607,5.651.034,8.388-.689a28.964,28.964,0,0,0,10.862-5.052c3.122-2.543,4.9-4.79,4.887-8.808-3.446.407-6.513-3.074-8.036-6.2a16.845,16.845,0,0,1-1.158-3.715l-1.847-8.126c-2.012.441-3.653,1.882-5.576,2.633a20.243,20.243,0,0,1-6.334.917,68.226,68.226,0,0,0-11.276,1.461c-.51.1-1.151.427-1.027.924" transform="translate(-777.874 -312.164)" fill="#fbb3b2"/>
    <path id="Caminho_371" dataName="Caminho 371" d="M803.1,354.536l2.109,8.2a21.918,21.918,0,0,1,.944,5.8,4.28,4.28,0,0,1-.462,2.068,4.93,4.93,0,0,1-1.31,1.337c-1.44,1.1-2.44,3.653-4.087,4.411.848,1.475,2.019.517,3.549,1.254,2.695,1.309,5.162,3.191,8.085,3.839,2.757.607,5.651.034,8.388-.689a28.964,28.964,0,0,0,10.862-5.052c3.122-2.543,4.9-4.79,4.887-8.808-3.446.407-6.513-3.074-8.036-6.2a16.845,16.845,0,0,1-1.158-3.715l-1.847-8.126c-2.012.441-3.653,1.882-5.576,2.633a20.243,20.243,0,0,1-6.334.917,68.226,68.226,0,0,0-11.276,1.461c-.51.1-1.151.427-1.027.924" transform="translate(-777.874 -312.164)" opacity="0.1"/>
    <circle id="Elipse_44" dataName="Elipse 44" cx="18.25" cy="18.25" r="18.25" transform="translate(16.037 10.393)" fill="#fbb3b2"/>
    <path id="Caminho_372" dataName="Caminho 372" d="M815.243,374.987a16.538,16.538,0,0,1,4.135-5.514c2.571-2.254,6.086-4.08,6.692-7.444l5.569,6.486a3,3,0,0,1,.689,1.061,2.675,2.675,0,0,1-.524,2.143c-1.378,2.2-3.55,3.77-5.6,5.362a170.164,170.164,0,0,0-13.5,11.91,1.379,1.379,0,0,1-.724.441,1.3,1.3,0,0,1-.751-.214,31.353,31.353,0,0,1-9.628-7.83c-.2-.241-.448-.517-.772-.5a.992.992,0,0,0-.517.269c-1.854,1.516-3.88,3.329-6.258,3.095,3.081-2.212,4.824-5.907,5.472-9.649a18.243,18.243,0,0,1,.786-3.77,3.936,3.936,0,0,1,2.688-2.55c-1.5,2.3-.475,5.548,1.544,7.4a15.218,15.218,0,0,0,6.837,3.315C813.72,379.447,814.409,376.793,815.243,374.987Z" transform="translate(-775.932 -316.26)" fill="#323444"/>
    <path id="Caminho_373" dataName="Caminho 373" d="M786.481,531.309c2.6.641,5.059,1.73,7.581,2.536a36.231,36.231,0,0,0,14.232,1.5,7.686,7.686,0,0,0,4.135-1.316c.324-.262.62-.572.965-.813a6.745,6.745,0,0,1,1.854-.765c6.32-1.978,11.613-6.244,16.748-10.421.166-.138.351-.31.338-.531a.69.69,0,0,0-.207-.393l-2.7-3.1c-7.085,1.206-14.343.751-21.531.572a31.28,31.28,0,0,0-4.425.117c-1.42.165-2.819.524-4.218.827-5.314,1.158-10.745,1.6-16.128,2.357a2.488,2.488,0,0,0-1.068.331,2.411,2.411,0,0,0-.572.634l-1.888,2.653a8.349,8.349,0,0,0-1.585,3.04c-.441,2.068.482,2.757,2.24,2.488A16.361,16.361,0,0,1,786.481,531.309Z" transform="translate(-770.913 -364.733)" fill="#323444"/>
    <path id="Caminho_374" dataName="Caminho 374" d="M805.4,388.787a33.574,33.574,0,0,0-7.106-5.548,10.067,10.067,0,0,0-3.446-1.378,4.3,4.3,0,0,0-3.529.868c-.613.544-1,1.3-1.592,1.875a7.915,7.915,0,0,1-2.522,1.427,44.746,44.746,0,0,0-8.863,5.052,20.337,20.337,0,0,0-4.018,3.708c-3.122,4-3.591,9.435-3.508,14.508.062,3.529,3.446,6.148,5.776,8.788a64.734,64.734,0,0,1,5.913,8.271c1.255,1.985,2.564,4.135,2.405,6.5-.131,1.937-1.261,3.756-1.082,5.686.062.689.283,1.323.344,1.992.124,1.378-.42,2.757-.558,4.135-.186,1.95.448,3.887.483,5.851a18.606,18.606,0,0,1-.51,3.991c-1.323,6.3-2.984,12.633-2.647,19.064l-3.818.689a3.226,3.226,0,0,1-.737,5.148c5.962,1.992,12.406.986,18.726.979,5.231,0,10.442.689,15.666.593s10.614-1.041,14.922-4c1.172-.8,2.247-1.737,3.481-2.433a17.167,17.167,0,0,1,5.272-1.723,52.308,52.308,0,0,1,10.338-.924c1.7,0,3.543.069,4.893-.951,1.489-1.13,1.868-3.177,2.068-5.031.2-1.957.324-3.922.358-5.886a25.371,25.371,0,0,0-.241-4.576,29.993,29.993,0,0,0-.806-3.281l-2.6-9.153c-1.075-3.777.42-7.919.737-11.834a2.967,2.967,0,0,0-.62-2.591c-.255-.214-.607-.358-.689-.689a1.179,1.179,0,0,1,.166-.924,51.025,51.025,0,0,1,5.334-7.678,156.779,156.779,0,0,0,8.822-13.557,43.619,43.619,0,0,0-11.675-26.108,12.631,12.631,0,0,0-4.886-3.6,14.474,14.474,0,0,0-3.887-.627c-5.4-.365-11.028-.689-15.735-3.4a2.991,2.991,0,0,0-1.123-.475c-1.041-.117-1.8.91-2.474,1.723-1.737,2.068-4.294,3.253-6.541,4.776C811.7,380.882,808.427,384.8,805.4,388.787Z" transform="translate(-768.708 -319.211)" fill="#32b999"/>
    <path id="Caminho_375" dataName="Caminho 375" d="M891.989,421.737c1.075,3.4.972,7.044,1.323,10.593a41.23,41.23,0,0,0,1.124,6.348,10.137,10.137,0,0,0,1.309,3.232,14.224,14.224,0,0,1,1.9,2.674,6.453,6.453,0,0,1,.282,2.15l.083,4.756a17.1,17.1,0,0,1-1.123,7.4l-2.97,9.036c-1.606,4.893-3.253,9.863-6.148,14.122A4.072,4.072,0,0,1,886,483.711a8.608,8.608,0,0,1-1.785.276,4.59,4.59,0,0,0-3.784,4.459,10.472,10.472,0,0,0-2.543-2.6l-6.045-4.825a25.839,25.839,0,0,0-6.734-4.363,18.257,18.257,0,0,0,12.7-15.342,6.889,6.889,0,0,1,.689-3.019c.5-.813,1.434-1.434,1.5-2.392.083-1.206-1.282-2.116-1.282-3.322,0-.8.593-1.461.855-2.212a5.556,5.556,0,0,0,0-2.833l-.834-4.631a3.536,3.536,0,0,0-.413-1.323,8.562,8.562,0,0,0-1.034-1.089c-1.433-1.606-.8-4.135,0-6.113a58.437,58.437,0,0,1,7.044-12.358,42.2,42.2,0,0,0,2.805-4.011c.731-1.268.9-3.026,1.668-4.135C889.8,416.485,891.142,419.056,891.989,421.737Z" transform="translate(-798.016 -332.374)" fill="#41b498"/>
    <path id="Caminho_376" dataName="Caminho 376" d="M863.038,505.1a3.314,3.314,0,0,0-.786.827,6.968,6.968,0,0,1-3.122,2.226c.689.5,1.316.986,1.964,1.489a86.058,86.058,0,0,1,13.1,12.523c.434-1.551,3.033-1.44,3.667-2.922a2.859,2.859,0,0,0,.138-1.323,40.335,40.335,0,0,0-.992-6.892,7.8,7.8,0,0,0-1.378-3.226,8.272,8.272,0,0,0-3.9-2.205C869.551,504.833,865.243,503.765,863.038,505.1Z" transform="translate(-796.157 -360.526)" fill="#323444"/>
    <path id="Caminho_377" dataName="Caminho 377" d="M847.275,512.246c-2.068,1.53-3.88,3.446-6.2,4.494-1.64.744-3.508,1.068-4.942,2.178a4.91,4.91,0,0,0,4.687,2.536,11.139,11.139,0,0,0,5.245-1.923c1.234-.758,2.681-1.64,4.025-1.11.207,1.048-.689,2.033-.689,3.095a3.12,3.12,0,0,0,1.75,2.392c4.135,2.667,9.456,2.447,14.384,2.137a1.3,1.3,0,0,0,.793-.234,1.248,1.248,0,0,0,.3-.91c.062-1.089.09-2.171.1-3.26a4.673,4.673,0,0,0-2-4.6,56.253,56.253,0,0,0-8.615-6.1C853.071,509.179,850,510.22,847.275,512.246Z" transform="translate(-789.01 -362.259)" fill="#fbb3b2"/>
    <path id="Caminho_378" dataName="Caminho 378" d="M824.553,326.089c-3.06.365-5.286,2.757-4.976,5.355s3.039,4.39,6.1,4.018,5.286-2.757,4.976-5.348S827.613,325.723,824.553,326.089Zm1.041,8.657c-2.592.31-4.9-1.213-5.169-3.4s1.627-4.218,4.211-4.528,4.9,1.213,5.169,3.4-1.627,4.218-4.211,4.528Z" transform="translate(-783.856 -305.075)" fill="#3c354c"/>
    <path id="Caminho_379" dataName="Caminho 379" d="M802.913,328.689c-3.06.365-5.286,2.757-4.976,5.348s3.039,4.39,6.1,4.025,5.286-2.757,4.976-5.355S805.973,328.323,802.913,328.689Zm1.041,8.65c-2.591.31-4.9-1.213-5.162-3.4s1.62-4.218,4.211-4.535,4.9,1.213,5.162,3.4S806.538,337.028,803.954,337.338Z" transform="translate(-777.131 -305.883)" fill="#3c354c"/>
    <path id="Caminho_380" dataName="Caminho 380" d="M663.156,259.64l6.651,1.42-.655,1.751-6.272-1.84Z" transform="translate(-648.449 -235.504)" fill="#3c354c"/>
    <path id="Caminho_381" dataName="Caminho 381" d="M714.3,253.18l-6.134,2.957,1.054,1.544,5.658-3.274Z" transform="translate(-662.524 -233.497)" fill="#3c354c"/>
    <path id="Caminho_382" dataName="Caminho 382" d="M687.31,260.808l4.666-.558-.241,1.158-4,.269Z" transform="translate(-656.042 -235.694)" fill="#3c354c"/>
    <path id="Caminho_383" dataName="Caminho 383" d="M794.891,319.171a7.406,7.406,0,0,0,.689-3.012,6.435,6.435,0,0,1,.317-1.833,5.128,5.128,0,0,1,1.5-1.923,13.9,13.9,0,0,1,8.271-2.888,19.119,19.119,0,0,1,9.566,2.068,7.443,7.443,0,0,1,2.378,1.764c.965,1.179,1.172,2.7,2.143,3.867a5.631,5.631,0,0,0,5.279,1.654c.338-1.2-.1-2.467.069-3.694a17.872,17.872,0,0,1,1.1-3.06c1.068-3.15-.489-6.8-3.7-8.684a14.29,14.29,0,0,1-3.295-2.068,15.6,15.6,0,0,1-1.62-2.826c-1.537-2.461-5.514-3.611-8.539-2.474-.951.358-1.792.9-2.757,1.289a22.723,22.723,0,0,1-5.8,1.116,17.774,17.774,0,0,0-5.624,1.475,6.3,6.3,0,0,0-3.522,3.8c-.186.744-.145,1.516-.331,2.254-.951,3.742-7.092,5.562-7.436,9.38a5.474,5.474,0,0,0,1.564,3.825c.648.765,2.2,2.812,3.295,3.108s1.93-.744,2.977-1.1C793.064,320.694,794.064,320.584,794.891,319.171Z" transform="translate(-772.672 -295.621)" fill="#cbceda"/>
  </g>
  <path id="Caminho_384" dataName="Caminho 384" d="M912.81,682c0,34.626,21.724,62.65,48.569,62.65" transform="translate(-370.403 -260.888)" fill="#455b57"/>
  <path id="Caminho_385" dataName="Caminho 385" d="M983.28,744.343c0-35.019,24.247-63.353,54.207-63.353" transform="translate(-392.304 -260.574)" fill="#32b999"/>
  <path id="Caminho_386" dataName="Caminho 386" d="M938.35,686.56c0,32.9,13.853,59.514,30.967,59.514" transform="translate(-378.34 -262.305)" fill="#32b999"/>
  <path id="Caminho_387" dataName="Caminho 387" d="M983.28,736.405c0-44.744,28.024-80.955,62.65-80.955" transform="translate(-392.304 -252.637)" fill="#3e8876"/>
  <ellipse id="Elipse_45" dataName="Elipse 45" cx="12.075" cy="2.04" rx="12.075" ry="2.04" transform="translate(576.799 491.653)" fill="#6c63ff" opacity="0.1"/>
  <path id="Caminho_388" dataName="Caminho 388" d="M968.46,771.872s6.892-.214,8.96-1.689,10.593-3.246,11.11-.875,10.338,11.792,2.571,11.854-18.071-1.213-20.139-2.474S968.46,771.872,968.46,771.872Z" transform="translate(-387.698 -287.662)" fill="#a8a8a8"/>
  <path id="Caminho_389" dataName="Caminho 389" d="M991.245,782.01c-7.774.062-18.064-1.213-20.139-2.474-1.578-.958-2.206-4.411-2.419-6h-.227s.434,5.555,2.509,6.816,12.365,2.536,20.139,2.474c2.247,0,3.019-.82,2.977-2C993.775,781.549,992.955,782,991.245,782.01Z" transform="translate(-387.698 -289.337)" opacity="0.2"/>
  <path id="Caminho_390" dataName="Caminho 390" d="M148.31,711.36c0,27.569,17.279,49.844,38.637,49.844" transform="translate(-132.81 -270.013)" fill="#455b57"/>
  <path id="Caminho_391" dataName="Caminho 391" d="M204.37,760.953c0-27.858,19.3-50.4,43.124-50.4" transform="translate(-150.232 -269.761)" fill="#32b999"/>
  <path id="Caminho_392" dataName="Caminho 392" d="M168.62,715c0,26.19,11.028,47.349,24.64,47.349" transform="translate(-139.121 -271.144)" fill="#32b999"/>
  <path id="Caminho_393" dataName="Caminho 393" d="M204.37,754.637c0-35.6,22.3-64.407,49.844-64.407" transform="translate(-150.232 -263.446)" fill="#3e8876"/>
  <ellipse id="Elipse_46" dataName="Elipse 46" cx="9.608" cy="1.627" rx="9.608" ry="1.627" transform="translate(42.856 497.463)" fill="#6c63ff" opacity="0.1"/>
  <path id="Caminho_394" dataName="Caminho 394" d="M192.58,782.836s5.479-.172,7.126-1.378,8.436-2.585,8.843-.689,8.236,9.38,2.068,9.428-14.377-.965-16.024-1.964S192.58,782.836,192.58,782.836Z" transform="translate(-146.568 -291.293)" fill="#a8a8a8"/>
  <path id="Caminho_395" dataName="Caminho 395" d="M210.706,790.961c-6.2.048-14.377-.965-16.024-1.971-1.254-.758-1.751-3.508-1.923-4.769h-.179s.345,4.418,1.992,5.424,9.842,2.013,16.024,1.964c1.785,0,2.405-.648,2.371-1.592C212.719,790.568,212.037,790.919,210.706,790.961Z" transform="translate(-146.568 -292.657)" opacity="0.2"/>
</svg>
