<svg xmlns="http://www.w3.org/2000/svg" width="366.891" height="299.722" viewBox="0 0 366.891 299.722">
  <g id="Grupo_41" dataName="Grupo 41" transform="translate(-0.001 -0.022)">
    <path id="Caminho_396" dataName="Caminho 396" d="M466.519,222.268v.679q-.06,5.89-.7,11.751a.423.423,0,0,1,0,.071c-.034.325-.071.646-.108.971-.063.549-.131,1.094-.205,1.642a118.135,118.135,0,0,1-4.3,19.705h0a106.263,106.263,0,0,1-11.236,24.741q-2.21,3.546-4.707,6.865h0c-.888,1.172-1.8,2.318-2.732,3.445q-.985,1.183-2.008,2.329l-.426.47a110.748,110.748,0,0,1-11.572,11,181.611,181.611,0,0,1-21.3,14.909c-.418.258-.84.511-1.262.747a.613.613,0,0,1-.093.056A224.651,224.651,0,0,1,374.846,337.5a140.694,140.694,0,0,1-36.126,9.795c-17.253,2.12-34.715.4-51.863-2.568a337.035,337.035,0,0,1-42.18-10.078l-2.277-.713q-1.769-.564-3.535-1.15-10.664-3.527-21.09-7.839a277.222,277.222,0,0,1-49.769-26.723q-2.986-2.008-5.887-4.106-4.054-2.919-8.011-6.01l-1.627-1.262a167.33,167.33,0,0,1-19.343-17.764c-8.033-8.742-14.9-18.6-19.41-29.862q-1.068-2.654-1.956-5.409l-.056-.183c-.3-.933-.575-1.866-.829-2.837q-.56-2.083-.982-4.218c-.06-.272-.112-.545-.161-.821a70.628,70.628,0,0,1-1.176-14.532,67.19,67.19,0,0,1,1.493-12.691h0A57.252,57.252,0,0,1,114.292,186h0a45.166,45.166,0,0,1,6.469-9.978h0a38.16,38.16,0,0,1,6.1-5.7,49.79,49.79,0,0,1,13.2-6.779h0c2.187-.784,4.4-1.471,6.633-2.109,1.579-.455,3.165-.888,4.744-1.314l4.658-1.258c2.986-.814,5.972-1.65,8.914-2.553a100.405,100.405,0,0,0,23.143-9.832c1.15-.7,2.322-1.463,3.494-2.284q2.24-1.557,4.42-3.382h0c1.471-1.232,2.912-2.549,4.285-3.946.213-.216.422-.433.631-.653,1.12-1.18,2.206-2.415,3.214-3.7.493-.627.971-1.265,1.426-1.915.631-.9,1.228-1.814,1.781-2.755h0a28.2,28.2,0,0,0,4.278-15.36,23.633,23.633,0,0,0-.243-2.691c-.485-3.3-.952-6.514-1.3-9.66-1.441-13.016-.832-24.819,8.936-35.909,12.146-13.785,31.21-16.6,48.563-15.495,50.172,3.173,95.846,31.818,135.985,65.921q5.207,4.42,10.288,8.959,1.28,1.142,2.564,2.3c6.346,5.715,12.594,11.642,18.414,17.992.47.515.941,1.03,1.4,1.549.284.321.571.638.851.963q2.721,3.08,5.282,6.308a119.508,119.508,0,0,1,12.064,18.291,103.835,103.835,0,0,1,10.594,32.352h0a115.283,115.283,0,0,1,1.28,12.382c.063,1.221.1,2.445.127,3.666v1.172C466.523,221.148,466.523,221.7,466.519,222.268Z" transform="translate(-108.55 -48.49)" fill="#fff" opacity="0.1"/>
    <path id="Caminho_397" dataName="Caminho 397" d="M383.952,446.233,377.98,552.538l5.972.078,4.853-107.877Z" transform="translate(-236.888 -278.715)" fill="#3f3d56"/>
    <rect id="Retângulo_90" dataName="Retângulo 90" width="73.909" height="16.051" transform="translate(51.132 221.378)" fill="#3e8876"/>
    <path id="Caminho_398" dataName="Caminho 398" d="M314.9,679.51v10.078H238.551q-4.054-2.919-8.011-6.01V679.51Z" transform="translate(-185.003 -443.952)" fill="#3f3d56"/>
    <path id="Caminho_399" dataName="Caminho 399" d="M294.97,545.744c-.209.967-.482,1.922-.769,2.874a37.468,37.468,0,0,0-2.064,8.324c-.265,3.778.747,8.171-1.866,10.915-.672.709-1.549,1.239-2.15,2a3.505,3.505,0,0,0-.254.373,5.786,5.786,0,0,0-.608,2.986,52.256,52.256,0,0,0,.422,6.476c.885,7.391,2.632,14.8.336,21.773a33.567,33.567,0,0,1-1.452,3.55,27.747,27.747,0,0,0-2.706,7.563,47.638,47.638,0,0,0-.2,6.028q-1.769-.564-3.535-1.15-10.664-3.528-21.09-7.839c.019-.1.037-.205.052-.306.534-3.322-.2-6.719-1.086-9.959-1.866-6.865-4.509-13.662-6.073-20.575a52.066,52.066,0,0,1-1.236-8.212c-.045-.62-.071-1.243-.075-1.866-.019-.814,0-1.628.034-2.449.078-1.639.149-3.583-1.161-4.58a10.038,10.038,0,0,0-2.512-.963c-1.62-.631-2.729-2.094-4.013-3.266a5.259,5.259,0,0,0-4.7-1.381C229.87,557.98,223.7,565.1,215.895,568.7c-.3.142-.6.276-.911.4a13.272,13.272,0,0,0-2.863,1.463,3.262,3.262,0,0,0-1.284,1.81,6.773,6.773,0,0,0,.071,2.434,12.426,12.426,0,0,1-.168,3.968,12.113,12.113,0,0,1-.4,1.493c-.3.885-.7,1.751-1.079,2.613q-2.986-2.008-5.887-4.106-4.054-2.919-8.011-6.01l-1.6-1.288a167.333,167.333,0,0,1-19.343-17.764,67.636,67.636,0,0,0,2.5-6.618c.314-1.318.429-2.688.862-3.968a14.266,14.266,0,0,1,2.06-3.7,50.019,50.019,0,0,1,11.475-11.482c4.625-3.315,9.966-5.972,14.128-9.735a22.3,22.3,0,0,0,4.319-5.118,3.194,3.194,0,0,0,.2-.373,7.745,7.745,0,0,0,.668-2.135c.3-1.672.254-3.509.4-5.114a54.547,54.547,0,0,0,15.353.463c5.954-.668,11.777-2.322,17.731-2.964.448-.052.9-.093,1.351-.131,1.907-.153,3.819-.187,5.734-.164,1.6,0,3.2.071,4.8.123l17.63.6a17.306,17.306,0,0,1,5.763.855,12.6,12.6,0,0,1,5.271,4.39c.175.239.351.478.515.724a22.77,22.77,0,0,1,2.717,5.371c.071.194.138.373.2.586.168.519.314,1.041.444,1.572.1.414.19.829.273,1.247a53.531,53.531,0,0,0,1.3,6.178c.045.146.093.291.146.433.78,2.187,2.075,4.147,3.053,6.249a23.209,23.209,0,0,1,1.605,4.752A23.483,23.483,0,0,1,294.97,545.744Z" transform="translate(-149.831 -333.124)" fill="#35323e"/>
    <path id="Caminho_400" dataName="Caminho 400" d="M273.218,259.155c-1.575-1.254-3.86-.336-5.7.474a36.613,36.613,0,0,1-4.763,1.721,2.012,2.012,0,0,1-1.045.108c-.747-.179-1.06-1.064-1.616-1.6-.967-.929-2.549-.709-3.8-.205s-2.479,1.232-3.815,1.12c-1.426-.112-2.665-1.165-4.106-1.2-2.538-.06-4.67,3.068-7.07,2.24-1.463-.5-2.613-2.408-4.054-1.866-1.12.426-1.221,1.975-1.9,2.986-.8,1.18-2.344,1.512-3.669,2.034a10.541,10.541,0,0,0-6.4,10.762c.3,2.46,1.493,4.714,2.281,7.062,2.337,6.827,1.534,14.528,4.479,21.113.373-.351.582-.482.944-.829a8.638,8.638,0,0,0-.5,6.2c.31,1.034.814,2,1.194,3.009a26.961,26.961,0,0,1,.956,3.471l3.247,14.326c1.269,5.6,2.542,11.2,2.762,16.932a49.415,49.415,0,0,1-.851,11.124c5.883-.974,11.265-3.583,17.227-3.55a48.034,48.034,0,0,1,6.525.672,134.316,134.316,0,0,0,19.086,1.3,7.578,7.578,0,0,0,2.926-.411,21.958,21.958,0,0,0,2.27-1.426,10.039,10.039,0,0,1,5.11-1.12c7.984-.146,15.678,2.777,23.61,3.807a28.426,28.426,0,0,0,.915-21.322,31.833,31.833,0,0,1-1.956-6.178,31.244,31.244,0,0,1-.09-3.968,28.784,28.784,0,0,0-1.8-9.922,10.2,10.2,0,0,1-.97-3.834,8.71,8.71,0,0,1,1.344-3.733,25.9,25.9,0,0,1,11.03-12.042l5.76-3.867c-.788-4.976-1.8-10.217-3.912-14.793a26.3,26.3,0,0,0-9.53-11.46,31.49,31.49,0,0,0-4.5-2.24,20.917,20.917,0,0,0-6.812-1.866c-2.688-.153-5.334.567-7.988,1.015C289.679,264.6,279.847,264.429,273.218,259.155Z" transform="translate(-181.667 -180.119)" fill="#3e8876"/>
    <path id="Caminho_401" dataName="Caminho 401" d="M265.109,488.7l-2.74,3.46-5.166,6.521-5.972,7.536-1.669,2.105h-3.236l-80.139.093L116,508.475h-2.24c-.3-.933-.575-1.866-.829-2.837q-.56-2.083-.982-4.218c-.06-.272-.112-.545-.161-.821L130,488.695l6.846-.037h0l20.941-.119h0l11.695-.067h3.475l7.794-.041h0l59.4-.34h0l3.038-.019h1.318l3.49-.019,12.986-.075,2.493-.948.183.194Z" transform="translate(-110.58 -323.32)" fill="#3f3d56"/>
    <path id="Caminho_402" dataName="Caminho 402" d="M261.96,459.58l-.31.373-2.038,2.4-4.2,4.953-8.8,10.373-77.94-1.99L109.906,474.2c-.06-.272-.112-.545-.161-.821a70.628,70.628,0,0,1-1.176-14.532l6.517-3.337,1.493-.769,11.62-5.972,10.2-5.226L165,447l5.89.765,2.665.343,3.9.508.328.045,61.169,7.932,6.76.877,3.968.515,12.229,1.59Z" transform="translate(-108.55 -296.063)" fill="#504f60"/>
    <path id="Caminho_403" dataName="Caminho 403" d="M468.013,534.51l-.063,1.467-.373,8.283-2.008,45.54-.426,9.843-1.12,25.323-.631,14.3-2.277-.713q-1.769-.564-3.535-1.15l5.461-99.292.116-2.083,2.4-.747Z" transform="translate(-327.294 -353.077)" fill="#3f3d56"/>
    <path id="Caminho_404" dataName="Caminho 404" d="M118.065,534.22l-.168,3.834-.246,5.6q-1.068-2.654-1.956-5.409l-.056-.183c-.3-.933-.575-1.866-.829-2.837Z" transform="translate(-112.472 -352.895)" fill="#3f3d56"/>
    <ellipse id="Elipse_47" dataName="Elipse 47" cx="17.171" cy="23.143" rx="17.171" ry="23.143" transform="translate(86.034 78.6)" fill="#a1616a"/>
    <ellipse id="Elipse_48" dataName="Elipse 48" cx="17.171" cy="23.143" rx="17.171" ry="23.143" transform="translate(86.034 78.6)" opacity="0.1"/>
    <circle id="Elipse_49" dataName="Elipse 49" cx="23.89" cy="23.89" r="23.89" transform="translate(81.741 63.855)" fill="#a1616a"/>
    <path id="Caminho_405" dataName="Caminho 405" d="M348.463,183.987a30.588,30.588,0,0,0-4.334.661c-3.778.918-7.044,2.956-10.224,4.957a12.167,12.167,0,0,0-3.778,3.158c-1.59,2.37-.974,5.386-1.866,8.018a23.091,23.091,0,0,1-2.034,3.822,45.507,45.507,0,0,0-4.039,10.989c-.209.776-.269,1.829.579,2.128a2.333,2.333,0,0,0,1.448-.164c2.676-.885,6.077-1.138,8.063.657s1.818,4.98,4.181,6.346c2.706,1.579,6.932-.328,9.388,1.534,1.053.8,1.433,2.079,2.3,3.042,2.008,2.24,5.872,2.131,9.086,1.68,1.844-.261,4.106-.437,5.226.859.538.612.691,1.452,1.314,2,1.12,1,3.169.493,4.263-.534s1.616-2.415,2.527-3.569c1.773-2.24,4.89-3.46,6.719-5.674,1.53-1.866,1.993-4.2,2.411-6.458l1.557-8.358c.631-3.389,1.206-7.092-.7-10.078-.679-1.075-1.654-2-2.24-3.113-.392-.747-.612-1.534-1.068-2.24a9.3,9.3,0,0,0-1.915-1.934l-3.684-3.05a30.981,30.981,0,0,0-4.028-2.986C362.349,182.621,354.472,183.427,348.463,183.987Z" transform="translate(-242.358 -133.063)" fill="#464353"/>
    <path id="Caminho_406" dataName="Caminho 406" d="M138.5,342.235c-.885.941-1.7,1.956-2.65,2.837a32.1,32.1,0,0,1-2.613,2.09q-2.195,1.642-4.293,3.4a24.043,24.043,0,0,0-3.934,3.931c-1.993,2.676-2.938,6.006-4.8,8.772-1.65,2.452-3.975,4.39-5.651,6.824a10.556,10.556,0,0,0-1.613,3.386,15.731,15.731,0,0,0-.332,3.58,26.585,26.585,0,0,0,.34,5.894,8.938,8.938,0,0,0,2.8,5.091,12.3,12.3,0,0,0,5.006,2.165,4.507,4.507,0,0,0,2.785.078,4.591,4.591,0,0,0,1.62-1.366l4.543-5.226c3.038-3.509,6.2-7.092,10.366-9.145,1.306-.638,2.684-1.12,3.994-1.739,5.554-2.676,9.481-8.156,11-14.128.373-1.46.612-2.949.855-4.438l.657-4.084a1.3,1.3,0,0,0,0-.623,1.344,1.344,0,0,0-.478-.567,79.179,79.179,0,0,1-8.862-8.361,20.463,20.463,0,0,0-2.008-2.3c-.941-.747-.87-.691-2,0A23.991,23.991,0,0,0,138.5,342.235Z" transform="translate(-111.082 -229.772)" fill="#a1616a"/>
    <path id="Caminho_407" dataName="Caminho 407" d="M262.5,421.832a.7.7,0,1,0-1.262.612l-.373.183L272,445.442l2.012-.982-11.131-22.83Z" transform="translate(-204.012 -282.195)" fill="#3f3d56"/>
    <path id="Caminho_408" dataName="Caminho 408" d="M138.5,342.235c-.885.941-1.7,1.956-2.65,2.837a32.1,32.1,0,0,1-2.613,2.09q-2.195,1.642-4.293,3.4a24.043,24.043,0,0,0-3.934,3.931c-1.993,2.676-2.938,6.006-4.8,8.772-1.65,2.452-3.975,4.39-5.651,6.824a10.556,10.556,0,0,0-1.613,3.386,15.731,15.731,0,0,0-.332,3.58,26.585,26.585,0,0,0,.34,5.894,8.938,8.938,0,0,0,2.8,5.091,12.3,12.3,0,0,0,5.006,2.165,4.507,4.507,0,0,0,2.785.078,4.591,4.591,0,0,0,1.62-1.366l4.543-5.226c3.038-3.509,6.2-7.092,10.366-9.145,1.306-.638,2.684-1.12,3.994-1.739,5.554-2.676,9.481-8.156,11-14.128.373-1.46.612-2.949.855-4.438l.657-4.084a1.3,1.3,0,0,0,0-.623,1.344,1.344,0,0,0-.478-.567,79.179,79.179,0,0,1-8.862-8.361,20.463,20.463,0,0,0-2.008-2.3c-.941-.747-.87-.691-2,0A23.991,23.991,0,0,0,138.5,342.235Z" transform="translate(-111.082 -229.772)" opacity="0.04"/>
    <path id="Caminho_409" dataName="Caminho 409" d="M480.2,405.313a17.431,17.431,0,0,1-1.12,7.006A3.732,3.732,0,0,1,477,414.5a4.83,4.83,0,0,1-1.825.067,65.947,65.947,0,0,0-21.833,1.732c1.9-3.807.81-8.373,1.336-12.6.146-1.153.411-2.288.511-3.445.373-4.106-1.385-8.093-2.191-12.146a27.174,27.174,0,0,1,0-10.631,7.093,7.093,0,0,1,.915-2.557,6,6,0,0,1,2.1-1.825c3.024-1.721,6.588-1.919,9.985-1.691,2.288.153,6.876-.063,8.783,1.344,2.087,1.542,2.747,6.719,3.311,9.112a77.072,77.072,0,0,1,1.717,11.15A119.814,119.814,0,0,1,480.2,405.313Z" transform="translate(-324.094 -250.804)" fill="#a1616a"/>
    <path id="Caminho_410" dataName="Caminho 410" d="M59.98,436.03l13.438,8.959,60.471-2.24L93.948,436.03Z" transform="translate(-37.59 -273.257)" fill="#fff"/>
    <path id="Caminho_411" dataName="Caminho 411" d="M189.916,287.613c-2.206,1.945-4.076,4.237-6.167,6.308a84.845,84.845,0,0,1-9.369,7.671,6.973,6.973,0,0,1,4.853,4.89c.142.549.213,1.12.373,1.657a9.055,9.055,0,0,0,2.075,3.359c3.785,4.267,9.082,7.424,11.314,12.691a1.172,1.172,0,0,0,.448.635.982.982,0,0,0,.579.067c2.019-.213,3.565-1.84,4.853-3.423A35.781,35.781,0,0,0,205.22,310.3a19.907,19.907,0,0,0,.093-12.691,32.487,32.487,0,0,0-2.938-5.722q-1.452-2.415-2.9-4.823c-.5-.847-1.146-2.568-2.135-2.986C195.209,283.16,191.286,286.243,189.916,287.613Z" transform="translate(-149.806 -196.02)" fill="#3e8876"/>
    <path id="Caminho_412" dataName="Caminho 412" d="M468.586,345.775l3.177,7.466a23.08,23.08,0,0,0-20.866,2.893,11.722,11.722,0,0,0-4.289,4.991,2.18,2.18,0,0,1-2.161-.847,4.334,4.334,0,0,1-.8-2.284c-.295-2.867.791-5.678,1.866-8.358a12.038,12.038,0,0,1,1.9-3.554,11.122,11.122,0,0,1,3.248-2.326,72.321,72.321,0,0,1,11.777-5.2c1.717-.556,3.516-.545,4.479,1.06C468.037,341.527,467.713,343.737,468.586,345.775Z" transform="translate(-318.532 -230.057)" fill="#3e8876"/>
    <path id="Caminho_413" dataName="Caminho 413" d="M138.537,414.184c.8.635,1.493,1.385,2.311,1.99a16.5,16.5,0,0,0,2.747,1.542l3.68,1.769a20.623,20.623,0,0,0,3.565,1.448c1.575.422,3.229.463,4.812.855,2,.493,3.822,1.519,5.79,2.113s4.27.691,5.913-.545c1.027-.773,1.8-2.049,3.076-2.24a4.07,4.07,0,0,1,2.344.672l9.578,5.035a7.3,7.3,0,0,1,3.333,2.729c.676,1.3.22,3.262-1.2,3.6a13.124,13.124,0,0,1-1.493.086,1.17,1.17,0,0,0-1.1.847,1.7,1.7,0,0,0,.235.877,3.67,3.67,0,0,1,.056,3.121,2.232,2.232,0,0,1-2.71,1.12c.168,1.445-1.4,2.456-2.8,2.841-3.531.967-7.275.373-10.885-.239a14.921,14.921,0,0,1-4.151-1.12c-.62-.3-1.194-.691-1.822-.971a13,13,0,0,0-5.558-.631c-8.7.153-17.327-1.46-25.883-3.065a12.519,12.519,0,0,1-4.573-1.493c-2.613-1.7-3.583-5.2-3.154-8.287s2-5.89,3.539-8.608l2-3.52a4.532,4.532,0,0,1,1.075-1.418C130.194,410.448,136.021,412.161,138.537,414.184Z" transform="translate(-116.068 -276.066)" fill="#a1616a"/>
    <path id="Caminho_414" dataName="Caminho 414" d="M138.537,414.184c.8.635,1.493,1.385,2.311,1.99a16.5,16.5,0,0,0,2.747,1.542l3.68,1.769a20.623,20.623,0,0,0,3.565,1.448c1.575.422,3.229.463,4.812.855,2,.493,3.822,1.519,5.79,2.113s4.27.691,5.913-.545c1.027-.773,1.8-2.049,3.076-2.24a4.07,4.07,0,0,1,2.344.672l9.578,5.035a7.3,7.3,0,0,1,3.333,2.729c.676,1.3.22,3.262-1.2,3.6a13.124,13.124,0,0,1-1.493.086,1.17,1.17,0,0,0-1.1.847,1.7,1.7,0,0,0,.235.877,3.67,3.67,0,0,1,.056,3.121,2.232,2.232,0,0,1-2.71,1.12c.168,1.445-1.4,2.456-2.8,2.841-3.531.967-7.275.373-10.885-.239a14.921,14.921,0,0,1-4.151-1.12c-.62-.3-1.194-.691-1.822-.971a13,13,0,0,0-5.558-.631c-8.7.153-17.327-1.46-25.883-3.065a12.519,12.519,0,0,1-4.573-1.493c-2.613-1.7-3.583-5.2-3.154-8.287s2-5.89,3.539-8.608l2-3.52a4.532,4.532,0,0,1,1.075-1.418C130.194,410.448,136.021,412.161,138.537,414.184Z" transform="translate(-116.068 -276.066)" opacity="0.04"/>
    <path id="Caminho_415" dataName="Caminho 415" d="M347.295,433.592c-1.945.918-4.177,1.008-6.208,1.713a36.765,36.765,0,0,0-5.618,3.009c-4.853,2.71-10.452,3.733-15.95,4.707a46.528,46.528,0,0,1-10.078,1.053c-4.547-.194-8.914-1.71-13.319-2.852s-9.1-1.911-13.468-.627a15.159,15.159,0,0,0-9.892,9.492,21.863,21.863,0,0,0-.866,8.406c.918.676,2.2-.261,2.7-1.288s.773-2.284,1.743-2.882c1.683.571,2.094,2.815,3.483,3.923a6.289,6.289,0,0,0,3.124,1.034l5.674.806c1.366.194,2.953.325,3.942-.638.482-.467.747-1.12,1.187-1.62a4.4,4.4,0,0,1,3.755-1.038c4.2.418,8.13,3.139,12.3,2.493a23.319,23.319,0,0,0,4.132-1.314c8.1-2.859,17.092-1.12,25.517-2.759a56.953,56.953,0,0,0,9.366-2.893,18.941,18.941,0,0,0,4.759-2.359,10.019,10.019,0,0,0,3.867-8.888,10.161,10.161,0,0,0-3.587-6.585,12.7,12.7,0,0,0-2.307-1.982C350.046,431.845,348.572,432.991,347.295,433.592Z" transform="translate(-210.88 -289.023)" fill="#a1616a"/>
    <g id="Grupo_39" dataName="Grupo 39" transform="translate(80.444 56.703)" opacity="0.1">
      <path id="Caminho_416" dataName="Caminho 416" d="M369.119,240.539c-.623-.552-.776-1.392-1.314-2-1.12-1.3-3.382-1.12-5.226-.859-3.214.452-7.092.556-9.086-1.68-.862-.963-1.243-2.24-2.3-3.042-2.456-1.866-6.682.045-9.388-1.534-2.363-1.377-2.21-4.573-4.181-6.346s-5.386-1.542-8.063-.657a2.333,2.333,0,0,1-1.448.164c-.847-.3-.788-1.351-.579-2.128a45.508,45.508,0,0,1,4.039-10.989,23.091,23.091,0,0,0,2.034-3.822c.81-2.367.4-5.043,1.46-7.283a10.052,10.052,0,0,0-2.945,2.613c-1.59,2.37-.974,5.386-1.866,8.018a23.1,23.1,0,0,1-2.034,3.822,45.508,45.508,0,0,0-4.039,10.989c-.209.776-.269,1.829.579,2.128a2.333,2.333,0,0,0,1.448-.164c2.676-.885,6.077-1.138,8.063.657s1.818,4.979,4.181,6.346c2.706,1.579,6.932-.328,9.388,1.534,1.053.8,1.433,2.079,2.3,3.042,2.008,2.24,5.872,2.131,9.086,1.68,1.844-.261,4.106-.437,5.226.859.538.612.691,1.452,1.314,2,1.12,1,3.169.493,4.263-.534a11.319,11.319,0,0,0,1.784-2.441A2.777,2.777,0,0,1,369.119,240.539Z" transform="translate(-324.055 -200.36)"/>
      <path id="Caminho_417" dataName="Caminho 417" d="M461.878,291.309a10.613,10.613,0,0,0-.668.967A20.236,20.236,0,0,0,465.234,289a7.92,7.92,0,0,0,.747-1.075A19.6,19.6,0,0,0,461.878,291.309Z" transform="translate(-410.013 -255.236)"/>
    </g>
    <path id="Caminho_418" dataName="Caminho 418" d="M556.48,446.53l1.12,107.13,5.226-.747-1.12-106.384Z" transform="translate(-348.758 -279.837)" fill="#3f3d56"/>
    <path id="Caminho_419" dataName="Caminho 419" d="M640.48,498.53l1.12,107.13,5.226-.747-1.12-106.384Z" transform="translate(-401.403 -312.427)" fill="#3f3d56"/>
    <path id="Caminho_420" dataName="Caminho 420" d="M1000.808,601.125h0l-.022-2.057v-1.224l-.2-18.843-.31-29.459-.052-2.542H995l.026,2.449.164,15.778.071,6.831h0l.06,5.532.1,9.563.06,5.64h0v.6l.078,7.413.067,6.536.426-.47q1.026-1.146,2.008-2.329Z" transform="translate(-664.108 -360.904)" fill="#3f3d56"/>
    <path id="Caminho_421" dataName="Caminho 421" d="M619.966,545.03l-2.986,4.464,2.986,20.34,25.383,6.947h41.06l24.636,1.489,11.736-8.033-2.031-13.8-8.959-11.411Z" transform="translate(-386.675 -341.57)" fill="#3e8876"/>
    <path id="Caminho_422" dataName="Caminho 422" d="M722.5,605.48l-1.493,12.4s-7.839,24.311,55.245,22.822,52.259-6.45,52.259-6.45l-.373-14.386s2.2,6.809-29.862,5.887-61.964-3.9-61.964-3.9S725.115,623.834,722.5,605.48Z" transform="translate(-492.197 -397.555)" fill="#3f3d56"/>
    <path id="Caminho_423" dataName="Caminho 423" d="M840.967,304.938a18.036,18.036,0,0,0-8.149,8.328,53.762,53.762,0,0,0-3.863,11.2,99.712,99.712,0,0,0-2.691,12.229c-.985,7.361-.246,15.1,3.135,21.71s9.631,11.945,16.947,13.218a31.187,31.187,0,0,0,8.585.1,69.8,69.8,0,0,0,15.159-3.341c5.133-1.736,10.474-4.408,12.759-9.332,1.325-2.856,1.437-6.111,1.374-9.254a98.441,98.441,0,0,0-3.849-25.3,21.544,21.544,0,0,0-2.956-6.809,20.871,20.871,0,0,0-5.506-4.853C863.18,306.949,851.706,300.055,840.967,304.938Z" transform="translate(-558.104 -208.159)" fill="#fbbebe"/>
    <path id="Caminho_424" dataName="Caminho 424" d="M840.967,304.938a18.036,18.036,0,0,0-8.149,8.328,53.762,53.762,0,0,0-3.863,11.2,99.712,99.712,0,0,0-2.691,12.229c-.985,7.361-.246,15.1,3.135,21.71s9.631,11.945,16.947,13.218a31.187,31.187,0,0,0,8.585.1,69.8,69.8,0,0,0,15.159-3.341c5.133-1.736,10.474-4.408,12.759-9.332,1.325-2.856,1.437-6.111,1.374-9.254a98.441,98.441,0,0,0-3.849-25.3,21.544,21.544,0,0,0-2.956-6.809,20.871,20.871,0,0,0-5.506-4.853C863.18,306.949,851.706,300.055,840.967,304.938Z" transform="translate(-558.104 -208.159)" opacity="0.05"/>
    <path id="Caminho_425" dataName="Caminho 425" d="M800.323,379.614a16.944,16.944,0,0,0,3.733,3.733c3.554,2.456,8.115,2.788,12.43,2.923,3.464.1,7.436-.093,9.608-2.8a11.188,11.188,0,0,0,1.814-4.281,189.924,189.924,0,0,0,5.189-28.283l9.884.034c4.278,18.317,3.927,37.357,3.554,56.167l-.541,27.428-6.368-.676c-15.121-1.6-30.265-3.2-45.469-3.479a260.091,260.091,0,0,0-26.7.881l13.867-41.232c1.8-5.36,3.617-10.791,4.039-16.424.608-8.171-1.683-16.8,1.493-24.356a2.962,2.962,0,0,1,1.153-1.557,3.276,3.276,0,0,1,1.975-.153c1.254.168,5.088,0,6,.8,1.344,1.165.455,1.34-.019,3.218a39.266,39.266,0,0,0-1.639,9.97A29.447,29.447,0,0,0,800.323,379.614Z" transform="translate(-521.504 -235.852)" fill="#3e8876"/>
    <path id="Caminho_426" dataName="Caminho 426" d="M969.352,450.56h0q2.5-3.315,4.707-6.865c-.747-1.6-1.568-3.158-2.221-4.789a48.126,48.126,0,0,1-2.143-7.783q-.291-1.344-.579-2.688c-2.09-9.746-4.054-19.631-4.461-29.511q-.056-1.232-.071-2.464v-3.068c.045-2.24.187-4.5.444-6.745.048-.44.1-.881.164-1.321a1.9,1.9,0,0,1,.037-.287l25.383-.926h0l2.135-.078a7.822,7.822,0,0,0,4.229-.967c2.034-1.4,2.273-4.259,2.24-6.719a99.729,99.729,0,0,0-2.105-18.5c-.963-4.576-2.337-9.254-5.42-12.77-2.531-2.889-6.2-4.991-7.514-8.585a38.75,38.75,0,0,0-1.247-4.08,12.71,12.71,0,0,0-2.673-3.2,44.542,44.542,0,0,1-8.548-11.84c-1.512-3.046-3.151-6.405-5.125-8.511-.1-.108-.194-.209-.295-.306-1.68-1.661-3.6-2.389-5.879-1.258a7.528,7.528,0,0,0-1.165.724h0a14.186,14.186,0,0,0-2.214,2.105,50.394,50.394,0,0,0-6.021,8.585,47.712,47.712,0,0,0-3.076,6.719,46.326,46.326,0,0,0-1.661,5.6c-.321,1.407-.575,2.829-.776,4.255a103.526,103.526,0,0,0-.642,16.252c.112,4.987.332,9.985.784,14.953q.168,1.8.373,3.6.411,3.557,1.015,7.092c.161.9.325,1.8.508,2.7.045.239.093.478.142.713l.022.1a60.648,60.648,0,0,1,1.146,6.312q.045.4.067.8a30.733,30.733,0,0,1-.03,3.662c-.086,1.441-.22,2.878-.287,4.319a7.024,7.024,0,0,1-.026.747c-.019.728,0,1.456,0,2.184a34.6,34.6,0,0,0,.62,5.185,33.541,33.541,0,0,0,3.229,9.123c.142.269.287.534.433.8,1.893,3.382,4.281,6.484,6.032,9.944a42.928,42.928,0,0,1,3.359,9.784q.373,1.676.709,3.359c.347,1.792.657,3.6.974,5.405.03.179.063.373.1.538.422,2.4.866,4.782,1.437,7.122.332,1.362.706,2.706,1.142,4.028Z" transform="translate(-632.652 -210.339)" fill="#464353"/>
    <path id="Caminho_427" dataName="Caminho 427" d="M881,582.606c0,.336-.022.672-.037,1.012a47.863,47.863,0,0,1-.452,4.894A31.836,31.836,0,0,1,878.9,595a21.884,21.884,0,0,1-1.926,3.96,18.259,18.259,0,0,1-2.4,3.087c-2.24,2.329-5.465,3.072-8.585,4.054a21.133,21.133,0,0,0-4.14,1.691c-.235.131-.467.272-.691.422l-3.9,2.587a11.683,11.683,0,0,0-3.3,2.826,6.088,6.088,0,0,0-.373.631,14.3,14.3,0,0,0-1.15,3.449c-2.031,8.458-4.065,16.924-5.457,25.51-.093.567-.183,1.138-.28,1.71l-.034.179a.932.932,0,0,0-.06-.123,224.645,224.645,0,0,1-31.019,15.853l-2.318-19.41a23.479,23.479,0,0,1-.239-4.771c.22-2.512,1.243-4.894,1.519-7.4a12.605,12.605,0,0,0-1.333-7.118,7.786,7.786,0,0,1-1.094-2.639,1.642,1.642,0,0,1,1.4-1.919,3.448,3.448,0,0,0,.586-3.079,8.965,8.965,0,0,0-.523-1.706c-.635-1.56-1.437-3.259-.892-4.853a1.814,1.814,0,0,0,.187-.933.153.153,0,0,0,0-.06c-.127-.418-.623-.6-.881-.956-.485-.661,0-1.56.3-2.322a8.859,8.859,0,0,0,.5-2.542c.041-.482.071-.967.123-1.445a14.549,14.549,0,0,1,.347-1.919,15.144,15.144,0,0,1,6.133-8.779c1.452-.978,3.068-1.691,4.55-2.613a41.682,41.682,0,0,0,4.337-3.359q4.931-4.106,10.254-7.742a129.534,129.534,0,0,1,11.84-7.189q1.306-.706,2.613-1.374,1.422-.747,2.863-1.415c3.076-1.467,6.566-.918,9.966.06,1.426.407,2.833.892,4.192,1.333a19.41,19.41,0,0,1,3.807,1.71,14.04,14.04,0,0,1,6.536,7.682.408.408,0,0,1,0,.063A19.549,19.549,0,0,1,881,582.606Z" transform="translate(-549.291 -371.807)" fill="#f86d70"/>
    <path id="Caminho_428" dataName="Caminho 428" d="M881,582.606c0,.336-.022.672-.037,1.012a47.863,47.863,0,0,1-.452,4.894A31.836,31.836,0,0,1,878.9,595a21.884,21.884,0,0,1-1.926,3.96,18.259,18.259,0,0,1-2.4,3.087c-2.24,2.329-5.465,3.072-8.585,4.054a21.133,21.133,0,0,0-4.14,1.691c-.235.131-.467.272-.691.422l-3.9,2.587a11.683,11.683,0,0,0-3.3,2.826,6.088,6.088,0,0,0-.373.631,14.3,14.3,0,0,0-1.15,3.449c-2.031,8.458-4.065,16.924-5.457,25.51-.093.567-.183,1.138-.28,1.71l-.034.179a.932.932,0,0,0-.06-.123,224.645,224.645,0,0,1-31.019,15.853l-2.318-19.41a23.479,23.479,0,0,1-.239-4.771c.22-2.512,1.243-4.894,1.519-7.4a12.605,12.605,0,0,0-1.333-7.118,7.786,7.786,0,0,1-1.094-2.639,1.642,1.642,0,0,1,1.4-1.919,3.448,3.448,0,0,0,.586-3.079,8.965,8.965,0,0,0-.523-1.706c-.635-1.56-1.437-3.259-.892-4.853a1.814,1.814,0,0,0,.187-.933.153.153,0,0,0,0-.06c-.127-.418-.623-.6-.881-.956-.485-.661,0-1.56.3-2.322a8.859,8.859,0,0,0,.5-2.542c.041-.482.071-.967.123-1.445a14.549,14.549,0,0,1,.347-1.919,15.144,15.144,0,0,1,6.133-8.779c1.452-.978,3.068-1.691,4.55-2.613a41.682,41.682,0,0,0,4.337-3.359q4.931-4.106,10.254-7.742a129.534,129.534,0,0,1,11.84-7.189q1.306-.706,2.613-1.374,1.422-.747,2.863-1.415c3.076-1.467,6.566-.918,9.966.06,1.426.407,2.833.892,4.192,1.333a19.41,19.41,0,0,1,3.807,1.71,14.04,14.04,0,0,1,6.536,7.682.408.408,0,0,1,0,.063A19.549,19.549,0,0,1,881,582.606Z" transform="translate(-549.291 -371.807)" opacity="0.1"/>
    <path id="Caminho_429" dataName="Caminho 429" d="M899.505,446.832a.7.7,0,1,0-1.262.612l-.373.183L909,470.442l2.012-.982-11.131-22.83Z" transform="translate(-603.235 -297.863)" fill="#3f3d56"/>
    <circle id="Elipse_50" dataName="Elipse 50" cx="23.89" cy="23.89" r="23.89" transform="translate(286.296 77.293)" fill="#fbbebe"/>
    <path id="Caminho_430" dataName="Caminho 430" d="M931.884,206.618a31.73,31.73,0,0,0-.844-5.633c-1.4-6.036-3.968-11.978-8.384-16.312a32.69,32.69,0,0,0-.974-3.132.6.6,0,0,0-.026-.075,35.05,35.05,0,0,0-5.636-9.993c-1.4-1.739-3.214-3.457-5.446-3.524a4.415,4.415,0,0,1-1.866-.2,3.36,3.36,0,0,1-1.042-1.068,9.776,9.776,0,0,0-9.466-3.542l-.231.049c-.131.026-.261.056-.373.09s-.314.09-.47.138q.258.426.5.862.664,1.183,1.232,2.419.47,1.03.87,2.094c-3.822.437-6.936,3.15-9.78,5.734l-6.7,6.077a.279.279,0,0,0-.034.034l-.194.187c-.049.049-.1.1-.142.149a.316.316,0,0,0-.049.052c-.056.06-.108.123-.161.187a2.826,2.826,0,0,0-.25.373,1.382,1.382,0,0,0-.1.175.384.384,0,0,0-.026.056,1.39,1.39,0,0,0-.063.157.052.052,0,0,0,0,.022.866.866,0,0,0-.026.093,1.12,1.12,0,0,0,.063.791l4.416.049h.519c.022.59.041,1.183.063,1.773a25.164,25.164,0,0,0-2.016,1.68,21.9,21.9,0,0,0-1.967,2.075,28.645,28.645,0,0,0-6.271,17.283v2.284c0,.373.034.747.063,1.12a2.8,2.8,0,0,0,.373,1.385,1.287,1.287,0,0,0,.1.134,2.576,2.576,0,0,0,.791.582l.321.157h0c.161.078.314.153.463.239,1.407.8,2.24,2.329,3.52,3.315.075.056.149.112.224.16l.168.112.1.067.142.082a3.038,3.038,0,0,0,.287.153h0l.179.09h.03c.149.067.3.131.452.187l.213.075.063.022c.06.019.123.041.187.056q.19.056.373.1l.373.082c.146.026.295.052.444.071l.22.03.224.022q.534.049,1.075.056h0a26.874,26.874,0,0,0,3.386-.235l9.526-1.12a20.526,20.526,0,0,1,6.5-.06,42.825,42.825,0,0,1,5.226,1.84c.4.138.791.265,1.191.373.146.041.295.086.444.123l.205.052.478.116c.172.041.343.082.515.116.243.052.482.1.724.142.164.034.332.06.5.09h.034l.478.075h.116l.355.049c.172.026.343.049.519.067q.571.071,1.142.123c.616.06,1.236.1,1.866.142l.62.037.62.03,1.866.082h.343a9.629,9.629,0,0,0,2.322-.119c.134-.026.265-.056.4-.093s.239-.075.373-.119a6.39,6.39,0,0,0,3.132-3.094c.149-.28.287-.56.414-.847s.243-.579.347-.87c.131-.373.243-.728.34-1.1.03-.1.056-.2.078-.306s.075-.31.1-.467c.093-.429.164-.862.216-1.3a3.977,3.977,0,0,1,.049-.418c.034-.373.06-.72.075-1.086V207.7C931.91,207.4,931.884,207,931.884,206.618Zm-9.571-22.285c-.3-.284-.612-.556-.926-.814a3.857,3.857,0,0,1,.922.814Z" transform="translate(-590.167 -120.224)" fill="#464353"/>
    <path id="Caminho_431" dataName="Caminho 431" d="M745.033,308.072c-2.811-.347-5.6-1.579-8.373-.974a11.6,11.6,0,0,0-4.617,2.561A56.146,56.146,0,0,0,719.065,324.5a7.839,7.839,0,0,0-1.2,2.807,7.441,7.441,0,0,0,.515,3.464c2.553,7.544,8.014,13.845,10.5,21.411,2.613,7.958,1.706,16.656-.22,24.808a103.675,103.675,0,0,1-11.512,28.63,16.324,16.324,0,0,1-2.65,3.628c-1.359,1.306-3.184,2.24-3.99,3.949a17.688,17.688,0,0,0-.747,2.4c-.747,2.24-2.553,4.158-2.729,6.521-.131,1.8.724,3.509,1.243,5.226a14.4,14.4,0,0,1-.265,9c-1.892,5.189-6.842,9.907-5.405,15.241,3.206-.922,6.76-2.12,8.272-5.1.534-1.053.8-2.307,1.7-3.076,1.8-1.527,4.853-.146,6.76-1.549,1.441-1.068,1.493-3.255.851-4.935s-1.747-3.158-2.24-4.886c-.859-3.117.515-6.413.261-9.634-.119-1.493-.579-2.923-.612-4.408a10.352,10.352,0,0,1,3.658-7.559,30.4,30.4,0,0,1,7.331-4.539l9.765-4.853c3.542-1.754,7.424-3.893,8.585-7.671a15.533,15.533,0,0,0,.467-4.4c.332-22.587,5.991-44.719,11.616-66.6a82.522,82.522,0,0,1,3.061-10.049c1.3-3.255,3.841-5.868,5.136-8.891C759.7,302.551,752.839,309.049,745.033,308.072Z" transform="translate(-480.697 -208.203)" fill="#464353"/>
    <path id="Caminho_432" dataName="Caminho 432" d="M828.019,600.564c.862,5.226,1.389,10.564,1.8,15.875a181.6,181.6,0,0,1-21.3,14.909c-.418.258-.84.511-1.262.747l-.034.179a.924.924,0,0,0-.06-.123,5.618,5.618,0,0,0-2.807-2.77q-4.132-8.679-8.257-17.357a45.589,45.589,0,0,1-3.733-9.649,1.491,1.491,0,0,0-.045-.216c-.567-2.613-.7-5.327-1.075-7.973a23.032,23.032,0,0,0-1.019-4.457c-.448-1.288-1.064-2.538-1.609-3.8a12.642,12.642,0,0,1-1.262-4.8,3.138,3.138,0,0,0-.228-1.568,4.066,4.066,0,0,0-1.019-.985,3.886,3.886,0,0,1-1.254-3.55c-2.24.116-3.5,2.523-4.4,4.565a24.893,24.893,0,0,1-3.2,5.6,10.62,10.62,0,0,1-3.539,2.945c-.123.06-.246.119-.373.172-3.117,1.374-6.756.888-10.134.269-2.953-.541-6.006-1.213-8.38-3.05l-.254-.2a10.962,10.962,0,0,1-1.866-1.993c-1.99-2.717-2.871-6.3-3.36-9.705-.045-.321-.09-.642-.131-.963a35.9,35.9,0,0,1-.28-7.271c.045-.6.108-1.194.187-1.788.052-.373.108-.776.172-1.165a.107.107,0,0,1,0-.034c.1-.616.2-1.235.306-1.866a17.156,17.156,0,0,1,1.866-6.111,11.57,11.57,0,0,1,2.747-2.941c.4-.317.818-.62,1.236-.911.679-.47,1.377-.918,2.087-1.34a36.069,36.069,0,0,1,5.6-2.725c.463-.179.933-.347,1.4-.508a11.015,11.015,0,0,1,5.7-.452,30.017,30.017,0,0,0,5.106.3c4.378-.086,8.776-.922,13.147-1.463,6.07-.747,12.591-.836,17.884,2.24.254.146.5.3.747.459a22.117,22.117,0,0,1,6.417,6.782c.373.564.7,1.142,1.019,1.728a44.01,44.01,0,0,1,2,4.143,5.152,5.152,0,0,1,.556,2.24,2.917,2.917,0,0,1-.06.44c-.1.53-.3,1.045-.373,1.583-.235,2.034,1.493,3.733,2.139,5.67a27.8,27.8,0,0,1,.609,3.942,20.5,20.5,0,0,0,2.075,5.226,65.346,65.346,0,0,1,3.322,8.35c.65,1.99,1.206,4.009,1.695,6.047q.239.982.452,1.967C827.392,597.014,827.724,598.783,828.019,600.564Z" transform="translate(-509.852 -358.996)" fill="#f86d70"/>
    <path id="Caminho_433" dataName="Caminho 433" d="M705.157,464.56v2.613l-.482-.007-.537-.007-6-.075-14.789-.194-4.151-.052-1.075-.015-6.23-.078-8.779-.116-18.627-.243-32.322-.418-11.665-.149-4.681-.06-4.308-.056-2.684-.037-2.542-.034-18.847-.243-5.226-.067-1.139-.015-.739-1.907-5.371-13.852-.982-2.531.747-2.986,3.359,2.24,2.068.258L594.2,450.76l6.39.8,13.55,1.687,13.274,1.65,5.2.646,30.792,3.83,8.6,1.071,7.122.885,25.323,3.15Z" transform="translate(-347.192 -278.27)" fill="#3f3d56"/>
    <path id="Caminho_434" dataName="Caminho 434" d="M555.98,444.03l6.719,17.544L706.41,464.56V445.523Z" transform="translate(-348.445 -278.27)" fill="#504f60"/>
    <path id="Caminho_435" dataName="Caminho 435" d="M575.98,496.03l1.12,107.13,5.226-.747-1.12-106.384Z" transform="translate(-360.979 -310.86)" fill="#3f3d56"/>
    <path id="Caminho_436" dataName="Caminho 436" d="M1055.141,551.688h-.537a118.146,118.146,0,0,1-4.3,19.705l-1.7-19.784-.071-.844,6.278-.724.209-.022Z" transform="translate(-697.657 -362.797)" fill="#3f3d56"/>
    <path id="Caminho_437" dataName="Caminho 437" d="M782.649,460.122l-54.685,1.12-16.984-5.6,45.54-2.613Z" transform="translate(-445.587 -283.911)" fill="#fff"/>
    <path id="Caminho_438" dataName="Caminho 438" d="M822.627,458.378a3.666,3.666,0,0,0-1.493,1.064,3.942,3.942,0,0,0-.556,1.695l-.918,5.476a2.422,2.422,0,0,0,.071,1.519c.239.459.933.7,1.28.317a4.917,4.917,0,0,0,.672,3.087,2.153,2.153,0,0,0,2.811.724,1.822,1.822,0,0,0,2.744.426c-.53.179-.567.989-.19,1.4a2.437,2.437,0,0,0,1.523.608,37.249,37.249,0,0,0,19.373-2.437c.579-.239-.944-7.372-1.1-8.1-.373-1.721-.56-3.822-2.012-4.98-3.471-2.77-9.638-3.315-13.867-2.986A23.891,23.891,0,0,0,822.627,458.378Z" transform="translate(-554.162 -303.936)" fill="#fbbebe"/>
    <path id="Caminho_439" dataName="Caminho 439" d="M908.965,455.409c-13.5.258-27.283.478-40.168-3.565a27.249,27.249,0,0,1-.246,14.509l63.128,5.226c2.676.22,13.774,1.474,16.383.844s-21.893-8.7-20.9-11.2c2.721-6.879,11.837-10.911,5.271-11.168C924.142,449.728,917.315,455.252,908.965,455.409Z" transform="translate(-584.859 -300.139)" opacity="0.1"/>
    <path id="Caminho_440" dataName="Caminho 440" d="M909.965,457.409c-13.5.258-27.283.478-40.168-3.565a27.249,27.249,0,0,1-.246,14.509l63.128,5.226c2.676.22,13.774,1.493,16.383.844s2-3.848,2.986-6.346c2.721-6.879-12.053-15.763-18.619-16.021C925.142,451.728,918.315,457.252,909.965,457.409Z" transform="translate(-585.486 -301.392)" fill="#464353"/>
    <path id="Caminho_441" dataName="Caminho 441" d="M877.592,465.378a3.655,3.655,0,0,1,1.493,1.064,4,4,0,0,1,.56,1.695l.918,5.476a2.448,2.448,0,0,1-.071,1.519c-.239.459-.937.7-1.28.317a4.942,4.942,0,0,1-.672,3.087,2.157,2.157,0,0,1-2.815.724,1.821,1.821,0,0,1-2.744.426c.53.179.571.989.194,1.4a2.448,2.448,0,0,1-1.527.608,37.234,37.234,0,0,1-19.369-2.437c-.579-.239.941-7.372,1.1-8.1.373-1.721.56-3.822,2.012-4.979,3.468-2.77,9.638-3.315,13.867-2.986A23.889,23.889,0,0,1,877.592,465.378Z" transform="translate(-574.581 -308.323)" fill="#fbbebe"/>
    <path id="Caminho_442" dataName="Caminho 442" d="M673.734,387.36a23.9,23.9,0,0,0-3.281,5.091c-1.527,3.554-1.3,7.577-1.049,11.437a6.672,6.672,0,0,0,.747,3.191,5.39,5.39,0,0,0,1.948,1.661c3.233,1.837,7.018,2.385,10.713,2.8q8.488.941,17.036,1.146c14.117.343,28.451-.81,42.2,2.389-1.7-2.587-1.7-6.01-.747-8.959a30.5,30.5,0,0,1,4.58-8.044c-6.293-1.993-13.042,1.12-19.634.81-6.767-.317-13.031-4.229-19.806-4.225a18.022,18.022,0,0,1-4.352-.168,3.624,3.624,0,0,1-2.915-2.871c1.807.407,3.52-1.138,4.267-2.833s.881-3.61,1.605-5.315c1.8-4.244,6.674-6.211,9.705-9.705a2.378,2.378,0,0,0,.168-3.606c-2.52-3.359-6.316-5.226-9.47-7.839-1.1-.911-3.311-4.345-4.543-4.662-2.284-.586-4.222,2.714-5.707,4.323Q683.951,374.2,673.734,387.36Z" transform="translate(-459.935 -242.194)" fill="#464353"/>
    <path id="Caminho_443" dataName="Caminho 443" d="M882.39,434.81a12.355,12.355,0,0,1,2.5,2.475,4.263,4.263,0,0,1,.78,3.337,4.987,4.987,0,0,1,3.109-5.162Z" transform="translate(-593.533 -290.592)" opacity="0.07"/>
    <g id="Grupo_40" dataName="Grupo 40" transform="translate(286.799 42.914)" opacity="0.1">
      <path id="Caminho_444" dataName="Caminho 444" d="M933.475,166.836a32.418,32.418,0,0,0-1.516-3.415,9.16,9.16,0,0,0-1.09.28A31.568,31.568,0,0,1,932.6,167,6.259,6.259,0,0,1,933.475,166.836Z" transform="translate(-910.716 -163.42)"/>
      <path id="Caminho_445" dataName="Caminho 445" d="M995.87,212c.1.082.2.175.295.261a.544.544,0,0,0-.026-.071Q996.012,212.1,995.87,212Z" transform="translate(-951.453 -193.866)"/>
      <path id="Caminho_446" dataName="Caminho 446" d="M895.313,212.577c.194-.153.373-.314.582-.463l-.06-1.773-3.987-.041c-.646.594-1.333,1.445-.952,2.24Z" transform="translate(-885.595 -192.801)"/>
      <path id="Caminho_447" dataName="Caminho 447" d="M930.178,284.565a6.375,6.375,0,0,1-3.132,3.094,8.49,8.49,0,0,1-3.419.321c-3.934-.161-7.936-.336-11.654-1.639a41.143,41.143,0,0,0-5.226-1.844,20.418,20.418,0,0,0-6.5.063l-9.526,1.12c-2.811.328-5.943.575-8.186-1.15-1.284-.985-2.113-2.52-3.52-3.311a4.475,4.475,0,0,1-1.683-1.12,2.8,2.8,0,0,1-.373-1.385c-.03-.392-.048-.784-.063-1.176a31.583,31.583,0,0,0,.063,3.415,2.8,2.8,0,0,0,.373,1.385,4.473,4.473,0,0,0,1.683,1.12c1.407.791,2.24,2.326,3.52,3.311,2.24,1.725,5.375,1.493,8.186,1.15l9.526-1.12a20.419,20.419,0,0,1,6.5-.063,42.224,42.224,0,0,1,5.226,1.844c3.733,1.3,7.719,1.493,11.654,1.639a8.558,8.558,0,0,0,3.419-.321,6.375,6.375,0,0,0,3.132-3.094,15.843,15.843,0,0,0,1.613-8.38A14.579,14.579,0,0,1,930.178,284.565Z" transform="translate(-876.877 -234.942)"/>
    </g>
    <path id="Caminho_448" dataName="Caminho 448" d="M937.56,179l5.226,4.853S938.307,181.986,937.56,179Z" transform="translate(-628.109 -130.27)" opacity="0.1"/>
  </g>
</svg>
