<svg xmlns="http://www.w3.org/2000/svg" xmlns:xlink="http://www.w3.org/1999/xlink" width="609.713" height="460.734" viewBox="0 0 609.713 460.734">
  <defs>
    <linearGradient id="linear-gradient" x1="0.5" y1="1" x2="0.5" gradientUnits="objectBoundingBox">
      <stop offset="0" stop-color="gray" stop-opacity="0.251"/>
      <stop offset="0.54" stop-color="gray" stop-opacity="0.122"/>
      <stop offset="1" stop-color="gray" stop-opacity="0.102"/>
    </linearGradient>
    <linearGradient id="linear-gradient-2" x1="0.5" x2="0.5" y2="0" xlink:href="#linear-gradient"/>
    <linearGradient id="linear-gradient-3" x1="0.5" x2="0.5" y2="0" xlink:href="#linear-gradient"/>
    <linearGradient id="linear-gradient-4" x1="1.096" x2="1.096" y2="0" xlink:href="#linear-gradient"/>
    <linearGradient id="linear-gradient-5" x1="0.5" x2="0.5" y2="0" xlink:href="#linear-gradient"/>
  </defs>
  <g id="Ilustração" transform="translate(0.013 -0.004)">
    <path id="Caminho_98" dataName="Caminho 98" d="M43.44,426.65c9.647,37.595,30.071,70.093,62.349,85.844,67.108,32.739,218.361,15.853,331.263-3.526,58.415-10.027,109.724-37.675,147.019-76.637Z" transform="translate(-36.865 -208.791)" fill="#6c63ff" opacity="0.1"/>
    <path id="Caminho_99" dataName="Caminho 99" d="M649.014,61.043H587.067a4.9,4.9,0,1,1,0-9.764h10.718a5.153,5.153,0,0,1-5.359-4.882,5.145,5.145,0,0,1,5.359-4.877h-7.648a5.153,5.153,0,0,1-5.359-4.882,5.149,5.149,0,0,1,5.359-4.882H622.47a91.6,91.6,0,0,0-25.22-6.335c-88.164-10.327-119.644-3.5-130.765,3.526a129.751,129.751,0,0,1-45.312,18.109c-54.4,10.231-156.124,22.541-248.33-3.944-45.827-13.157-79.884,9.111-100.3,46.255H659.77c-.766-10.8-3.06-20.783-7.272-29.513A5.617,5.617,0,0,1,649.014,61.043Z" transform="translate(-50.37 -20.14)" fill="#6c63ff" opacity="0.1"/>
    <path id="Caminho_100" dataName="Caminho 100" d="M32.478,280.23a227.2,227.2,0,0,0,2.406,65.591l543.9,18.136a232.136,232.136,0,0,0,37.788-52.52Zm215.1,46.791H236.862a4.9,4.9,0,1,1,0,9.759h-61.92a4.9,4.9,0,1,1,0-9.759H185.66a4.9,4.9,0,1,1,0-9.764H178a4.9,4.9,0,1,1,0-9.759h61.947a4.9,4.9,0,1,1,0,9.759h7.632a4.9,4.9,0,1,1,0,9.764Z" transform="translate(-31.16 -140.841)" fill="#6c63ff" opacity="0.1"/>
    <path id="Caminho_101" dataName="Caminho 101" d="M641.809,149.94l-593.8,13.168A199.442,199.442,0,0,0,33.78,219.015H631.4a213.827,213.827,0,0,0,8.628-35.633A154.359,154.359,0,0,0,641.809,149.94ZM154.346,193.087H143.628a4.9,4.9,0,1,1,0,9.764H81.686a4.9,4.9,0,1,1,0-9.764H92.4a4.9,4.9,0,1,1,0-9.759H84.746a4.9,4.9,0,1,1,0-9.764h61.947a4.9,4.9,0,1,1,0,9.764h7.653a4.9,4.9,0,1,1,0,9.759Z" transform="translate(-32.382 -80.376)" fill="#6c63ff" opacity="0.1"/>
    <ellipse id="Elipse_14" dataName="Elipse 14" cx="40.317" cy="9.052" rx="40.317" ry="9.052" transform="translate(315.71 392.858)" fill="#6c63ff" opacity="0.1"/>
    <ellipse id="Elipse_15" dataName="Elipse 15" cx="72.735" cy="5.97" rx="72.735" ry="5.97" transform="translate(376.977 424.687)" fill="#6c63ff" opacity="0.1"/>
    <ellipse id="Elipse_16" dataName="Elipse 16" cx="72.735" cy="9.052" rx="72.735" ry="9.052" transform="translate(84.937 412.554)" fill="#6c63ff" opacity="0.1"/>
    <ellipse id="Elipse_17" dataName="Elipse 17" cx="54.728" cy="9.052" rx="54.728" ry="9.052" transform="translate(213.842 367.241)" fill="#6c63ff" opacity="0.1"/>
    <ellipse id="Elipse_18" dataName="Elipse 18" cx="43.812" cy="9.052" rx="43.812" ry="9.052" transform="translate(240.038 442.635)" fill="#6c63ff" opacity="0.1"/>
    <path id="Caminho_102" dataName="Caminho 102" d="M517.165,236.4c-1.158-7.792-8.237-25.976-8.237-25.976h0q-.185-.8-.418-1.608c-5.022-17.257-11.972-18.757-11.972-18.757l-24.9-5.359a1.93,1.93,0,0,1,.536.5,3.455,3.455,0,0,0-.391.059,9.754,9.754,0,0,1-2.181-4.716c-.048-.257-.091-.536-.123-.8a17.514,17.514,0,0,0-1.426-26.33c-.263-.2-.536-.4-.8-.59,1.174-1.249,1.211-2.985.332-4.721-1.961-4.073-6.227-6.651-10.611-7.91a17.989,17.989,0,0,0-10.3-.22,37.21,37.21,0,0,0-5.391,2.5c-3.307,1.651-6.967,2.958-9.438,5.675a2.77,2.77,0,0,0-.943,2.278,6.147,6.147,0,0,0,.938,1.656,5,5,0,0,1,.048,4.148,40.2,40.2,0,0,0-1.538,3.987,4.169,4.169,0,0,0,.831,4,17.637,17.637,0,0,0,1.554,1.072,8.151,8.151,0,0,1,1.484,1.667q1.479,1.983,2.948,3.982a41.017,41.017,0,0,1,3.693,5.611,27.346,27.346,0,0,0,2.283,4.287,6.357,6.357,0,0,0,.981,1.029l-.289-.113a4.464,4.464,0,0,0,3.274,1.334h.15a.9.9,0,0,0,.6-.247v.536c.059,1.913.048,3.95-.086,5.863l-.23-.118a2.01,2.01,0,0,0-2.144.225l-22.921,18.393s-4.984,6.817-4.287,18.586l-4.019,17.648s-5.022,14.974-1.158,25.665,6.1,16.806,6.1,16.806,1.543,12.149,3.864,13.141,3.323,1.527,3.323,1.527l.461,2.9h0s.155.284.429.761c1.688,2.937,7.942,13.3,11.576,12.192a46.463,46.463,0,0,1,.59,8.516l3.6,24.143s2.508,6.565,2.353,10.006,2.926,8.344,2.926,8.344a15.944,15.944,0,0,0-1.543,11.228c1.468,6.431,3.323,36.057,3.323,36.057l2.68,7.181-.075,8.419a8.039,8.039,0,0,1-1.661,3.751c-1.736,1.886-1.608,4.068-5.793,6.645s-6.838,3.553-6.838,6.967a8.962,8.962,0,0,1-.129,1.42c-.386,2.508-1.136,3.869,6.56,4.6a20.29,20.29,0,0,0,15.07-5.038s1.329-2.412,7.589-3.387c0,0,2.144-.113,2.256-2,.043-.654.032-1.9,0-3.28-.1-2.621-.354-5.681-.686-5.831-.418-.188-1.147-2.824-1.4-3.778h1.742s1.608-12.149,0-20.017a32.474,32.474,0,0,1-.155-13.446l-.311-20.778s-2.144-2.294-.461-6.345,0-24.063,0-24.063.622-7.181,2.4-8.864.086-10.52,0-10.981l3.162,10.606s1.388,21.083,4.33,24.9l.847,9.55s6.024,8.789,4.866,13.521,1.238,21.85,1.238,21.85v17.5s-2.706,7.026,1.072,9.55l1.608-.064c-.536.5-.949,1.249-1.576,1.9-.723.745-1.136,3.58-1.367,6.018-.193,2.063-.257,3.837-.257,3.837a6.318,6.318,0,0,0,4.636,2.749c3.028.177,13.007,7.765,13.007,7.765s9.856,0,12.407-.536l.15-.038a3.349,3.349,0,0,0,1.924-1.57,4.019,4.019,0,0,0,.461-2.889c-.316-1.506-1.511-3.157-4.159-4.561-6.586-3.473-7.567-6.726-7.567-6.726l-4.325-6.49h.616a27.762,27.762,0,0,1,4.325-14.593l-.305-33.993s1.929-11.688-1.388-18.034c0,0-.273-6.72,1.945-8.784s-2.953-22.916-2.953-22.916-1.072-11.2-2.331-21.41h0c5.214,4.947,10.622-12.862,11.533-16.029h.134l-.059-.23c.038-.15.059-.225.059-.225h0s-1.158-4.116-.311-3.28,2.937-2.294,2.937-2.294-.311-17.037,3.323-25.622S517.165,236.4,517.165,236.4Zm-15.542,10.842.027-.048c.536,10.4-.1,32.6-.1,32.6s-.718,2.846-1.484,6.2l-.536-21.088h0l-.536-19.867Zm-66.513-7.171s2.626,32.847,0,37.584a24.816,24.816,0,0,0-1.892,6.49c-.868-2.278-2.706-7.626-2.047-10.461.852-3.666-1.7-13.3-1.7-13.521s-.23-5.359,1.608-9.282.632-5.622.632-5.622S433.256,238.827,435.111,240.071Z" transform="translate(-207.699 -75.445)" fill="url(#linear-gradient)"/>
    <path id="Caminho_103" dataName="Caminho 103" d="M455.43,451.224c-2.288,10.059-11.388-5.15-13.462-8.8-.268-.477-.418-.756-.418-.756l.986-4.625,5.215-2.144a14.565,14.565,0,0,1,2.337,1.522A14.087,14.087,0,0,1,455.43,451.224Z" transform="translate(-221.619 -212.62)" fill="#d38884"/>
    <path id="Caminho_104" dataName="Caminho 104" d="M586.193,432.418a.7.7,0,0,1-.059.225,1.14,1.14,0,0,1-.07.241c-.895,3.141-6.2,20.821-11.324,15.911-5.606-5.359-2.883-17.75-2.883-17.75h.038l11.79-1.206,2.337,2.4h0Z" transform="translate(-281.786 -210.271)" fill="#d38884"/>
    <path id="Caminho_105" dataName="Caminho 105" d="M524,520.6l.3,33.763a27.692,27.692,0,0,0-4.245,14.47l-15.242.6c-3.719-2.5-1.072-9.475-1.072-9.475V542.576s-2.353-16.983-1.217-21.689-4.775-13.4-4.775-13.4l-.836-9.48c-2.883-3.789-4.25-24.717-4.25-24.717l-3.092-10.568c.086.456,1.693,9.277,0,10.9s-2.353,8.794-2.353,8.794,1.667,19.872,0,23.886.45,6.3.45,6.3l.305,20.628a32.258,32.258,0,0,0,.15,13.344c1.592,7.808,0,19.872,0,19.872H471.773l.075-8.419L469.2,550.9s-1.822-29.422-3.264-35.794a15.992,15.992,0,0,1,1.511-11.147s-3.028-4.85-2.878-8.264-2.337-9.925-2.337-9.925l-3.526-23.961a46.551,46.551,0,0,0-1.747-13.65c-2.047-6.828-5.081-15.777-5.081-15.777l3.424.305,17.278,1.538s42.011-2.824,43.892-.477a7.884,7.884,0,0,1,.793,2.449c1.886,8.473,4.378,35.017,4.378,35.017s5.081,20.7,2.9,22.75-1.913,8.714-1.913,8.714C525.9,508.974,524,520.6,524,520.6Z" transform="translate(-226.413 -211.45)" fill="#444053"/>
    <path id="Caminho_106" dataName="Caminho 106" d="M493.247,692.522c-.118,1.881-2.213,1.994-2.213,1.994-6.142.965-7.449,3.355-7.449,3.355a19.726,19.726,0,0,1-14.786,5.005c-7.557-.729-6.822-2.074-6.431-4.566a9.445,9.445,0,0,0,.123-1.4c0-3.414,2.615-4.384,6.71-6.967s3.982-4.721,5.686-6.6,1.881-5.515,1.881-5.515c1.929-3.36,6.822.536,6.822.536.23,1.19,7.5,1.024,7.5,1.024s.965,3.869,1.463,4.094c.327.15.573,3.183.67,5.788C493.279,690.635,493.289,691.873,493.247,692.522Z" transform="translate(-231.177 -324.723)" fill="#b07473"/>
    <path id="Caminho_107" dataName="Caminho 107" d="M493.247,703.622c-.118,1.881-2.213,1.994-2.213,1.994-6.142.965-7.449,3.355-7.449,3.355a19.726,19.726,0,0,1-14.786,5.005c-7.557-.729-6.822-2.074-6.431-4.566,3.376.836,9.829,2,13.6-.043,5.236-2.84,8.993-4.823,8.993-4.823l8.275-4.164C493.279,701.736,493.289,702.974,493.247,703.622Z" transform="translate(-231.177 -335.823)" opacity="0.1"/>
    <path id="Caminho_108" dataName="Caminho 108" d="M579.276,704.525a3.269,3.269,0,0,1-1.886,1.56l-.145.037c-2.5.536-12.176.536-12.176.536s-9.781-7.562-12.739-7.733a6.221,6.221,0,0,1-4.55-2.733s.059-1.758.247-3.805c.23-2.422.632-5.236,1.345-5.976,1.308-1.367,1.608-3.216,4.55-2.047,0,0,4.2-7.406,9.154-1.683l5.123,7.771s.965,3.216,7.455,6.7c2.594,1.393,3.751,3.033,4.078,4.529A3.992,3.992,0,0,1,579.276,704.525Z" transform="translate(-270.919 -326.602)" fill="#b07473"/>
    <path id="Caminho_109" dataName="Caminho 109" d="M579.276,714.809c-.579.488-1.217,1.013-1.886,1.56l-.145.038c-2.5.536-12.176.536-12.176.536s-9.781-7.562-12.739-7.733a6.221,6.221,0,0,1-4.55-2.733s.059-1.758.247-3.8c3.012.9,7.573,2.492,8.794,4.207,1.876,2.61,7.573,6.254,7.573,6.254s10.622-1.024,15.338-1.163A3.992,3.992,0,0,1,579.276,714.809Z" transform="translate(-270.919 -336.886)" opacity="0.1"/>
    <path id="Caminho_110" dataName="Caminho 110" d="M504.89,216.127,490.9,230.913s-16.951-1.249-13.993-6.254c1.506-2.551,1.742-7.889,1.608-12.53-.123-4.475-.584-8.285-.584-8.285s23.773-11.833,21.973-.8a18.161,18.161,0,0,0-.064,6.3C500.855,214.916,504.89,216.127,504.89,216.127Z" transform="translate(-237.868 -102.837)" fill="#d38884"/>
    <path id="Caminho_111" dataName="Caminho 111" d="M501.071,203.045a18.163,18.163,0,0,0-.064,6.3,17.449,17.449,0,0,1-12.444,5.193c-3.216,0-6.694-2.642-9.293-4.169-.123-4.48-.15-6.522-.15-6.522S502.893,192.011,501.071,203.045Z" transform="translate(-239.055 -102.837)" opacity="0.1"/>
    <path id="Caminho_112" dataName="Caminho 112" d="M499.077,179a17.519,17.519,0,1,1-6.592-13.687A17.519,17.519,0,0,1,499.077,179Z" transform="translate(-232.056 -85.737)" fill="#d38884"/>
    <path id="Caminho_113" dataName="Caminho 113" d="M519.565,436.451c-4.362,10.381-32.423,10.6-32.423,10.6V435.727l-1.7-.113c.734,3.242-1.029,11.147-1.029,11.147-22.176,3.13-27.584-9.507-27.584-9.507l.772-4.325,17.278,1.538s42.011-2.824,43.892-.477A7.884,7.884,0,0,1,519.565,436.451Z" transform="translate(-228.711 -211.705)" opacity="0.1"/>
    <path id="Caminho_114" dataName="Caminho 114" d="M487.142,350.381V339.062l-1.7-.107c.734,3.216-1.029,11.147-1.029,11.147-16.689,2.353-23.881-4.218-26.416-7.615a10.37,10.37,0,0,1-1.168-1.886l6.774-38.1,1.608-56.079,2.428-9.84.563-4.721V231.8h.059l1.726.74,10.327,4.464,11.731-8.859.172-.123.584-.445.97.777,2.412,1.935,7.733,49.942s13.4,38.452,15.906,53.973c.1.622.182,1.2.246,1.742C521.725,350.118,487.142,350.381,487.142,350.381Z" transform="translate(-228.711 -116.407)" fill="#32b999"/>
    <circle id="Elipse_19" dataName="Elipse 19" cx="0.997" cy="0.997" r="0.997" transform="translate(251.861 120.707)" fill="#67647e"/>
    <circle id="Elipse_20" dataName="Elipse 20" cx="0.997" cy="0.997" r="0.997" transform="translate(252.322 129.807)" fill="#67647e"/>
    <circle id="Elipse_21" dataName="Elipse 21" cx="0.997" cy="0.997" r="0.997" transform="translate(253.318 144.54)" fill="#67647e"/>
    <circle id="Elipse_22" dataName="Elipse 22" cx="0.997" cy="0.997" r="0.997" transform="translate(254.964 160.408)" fill="#67647e"/>
    <circle id="Elipse_23" dataName="Elipse 23" cx="0.997" cy="0.997" r="0.997" transform="translate(255.96 175.307)" fill="#67647e"/>
    <circle id="Elipse_24" dataName="Elipse 24" cx="0.997" cy="0.997" r="0.997" transform="translate(256.957 191.175)" fill="#67647e"/>
    <circle id="Elipse_25" dataName="Elipse 25" cx="0.997" cy="0.997" r="0.997" transform="translate(256.561 206.873)" fill="#67647e"/>
    <path id="Caminho_115" dataName="Caminho 115" d="M468.862,311.559s-1.115,14.593-3.162,18.838-2.958,16.153-2.958,16.153l-4.754-.536a10.371,10.371,0,0,1-1.168-1.886l6.774-38.1,1.608-56.079,2.433-9.845.563-4.721.064-.027a1.919,1.919,0,0,1,1.694.027l.225.118q-.1.289-.193.595c-1.854,5.8-2.546,16.5-2.546,16.5s2.68,19.566,2.958,28.666S468.862,311.559,468.862,311.559Z" transform="translate(-228.706 -119.928)" opacity="0.1"/>
    <path id="Caminho_116" dataName="Caminho 116" d="M450.087,436.438a2.746,2.746,0,0,1-.182.354c-1.844,3.114-6.517,5.091-7.937,5.633-.268-.477-.418-.756-.418-.756l.986-4.625,5.215-2.144A14.571,14.571,0,0,1,450.087,436.438Z" transform="translate(-221.619 -212.62)" opacity="0.1"/>
    <path id="Caminho_117" dataName="Caminho 117" d="M424.526,298.81l-4.325,2.578-3.939,17.519s-4.93,14.861-1.142,25.478,5.992,16.694,5.992,16.694,1.517,12.058,3.794,13.044,3.258,1.517,3.258,1.517l.456,2.883s6.174-2.1,8.355-5.788-1.608-12.862-1.608-12.862-3.258-7.814-2.422-11.453-1.672-13.194-1.672-13.4-.225-5.311,1.608-9.218.611-5.574.611-5.574l-1.142-11.147Z" transform="translate(-208.69 -149.463)" fill="#67647e"/>
    <path id="Caminho_118" dataName="Caminho 118" d="M550.177,338.2s-11.453,4.32-15.091.536-3.264-21.539-3.264-21.539-3.483-32.761-5.686-38.141-1.072-44.213-1.072-44.213-1.479-5.022-2.771-6.335a1.406,1.406,0,0,0-.273-.22l.445.1,1.554.332,2.412,1.935,7.733,49.942s13.4,38.452,15.906,53.973Z" transform="translate(-258.964 -116.736)" opacity="0.1"/>
    <path id="Caminho_119" dataName="Caminho 119" d="M586.756,432.864h-.129c-1.442.188-14.164,1.726-14.218-.922a7.752,7.752,0,0,1,.048-.916l11.79-1.206,2.337,2.4h0c.043.155.075.289.107.4Z" transform="translate(-282.349 -210.262)" opacity="0.1"/>
    <path id="Caminho_120" dataName="Caminho 120" d="M574.548,266.07l8.36,4.362s6.967,18.039,8.082,25.772c0,0,5.161,20.719,1.608,29.24s-3.258,25.435-3.258,25.435-2.047,3.108-2.883,2.278.305,3.258.305,3.258-14.293,1.9-14.352-.911,3.28-16.228,3.28-16.228.911-31.925-.38-36.93S574.548,266.07,574.548,266.07Z" transform="translate(-282.348 -134.269)" fill="#67647e"/>
    <path id="Caminho_121" dataName="Caminho 121" d="M523.94,329.52s-4.705,11.522-6.222,12.283.305,3.789.305,3.789S526.593,333.614,523.94,329.52Z" transform="translate(-256.688 -163.715)" opacity="0.1"/>
    <path id="Caminho_122" dataName="Caminho 122" d="M518.254,254.095c.054-.22-5.611,5.557-7.128,6.431S516.662,260.472,518.254,254.095Z" transform="translate(-253.81 -128.709)" opacity="0.1"/>
    <path id="Caminho_123" dataName="Caminho 123" d="M488.593,327.82s-8.644,5.59-7.5,7.8S488.593,327.82,488.593,327.82Z" transform="translate(-239.921 -162.926)" opacity="0.1"/>
    <path id="Caminho_124" dataName="Caminho 124" d="M524.47,480.07a46.273,46.273,0,0,0,18.805,5.9Z" transform="translate(-260.101 -233.582)" opacity="0.1"/>
    <path id="Caminho_125" dataName="Caminho 125" d="M491.5,501.3s6.822,8.575,9.936,8.794S491.5,501.3,491.5,501.3Z" transform="translate(-244.8 -243.435)" opacity="0.1"/>
    <path id="Caminho_126" dataName="Caminho 126" d="M502.2,564c-.305.15-3.869,7.733-7.5,7.964S502.2,564,502.2,564Z" transform="translate(-245.947 -272.532)" opacity="0.1"/>
    <path id="Caminho_127" dataName="Caminho 127" d="M568.33,594.806s6.763-1.517,8.269,3.333C576.6,598.123,576.144,596.606,568.33,594.806Z" transform="translate(-280.455 -286.724)" opacity="0.1"/>
    <path id="Caminho_128" dataName="Caminho 128" d="M559.84,646.248s8.194-1.672,9.936.606S559.84,646.248,559.84,646.248Z" transform="translate(-276.515 -310.427)" opacity="0.1"/>
    <path id="Caminho_129" dataName="Caminho 129" d="M509.622,654c0,.075-8.339,1.672-8.039,2.733s8.9.911,9.2-.761A1.608,1.608,0,0,0,509.622,654Z" transform="translate(-249.476 -314.299)" opacity="0.1"/>
    <path id="Caminho_130" dataName="Caminho 130" d="M554.75,667s13.7-1.672,12.862,1.211S554.75,667,554.75,667Z" transform="translate(-274.153 -320.11)" opacity="0.1"/>
    <path id="Caminho_131" dataName="Caminho 131" d="M420.89,352.44c.075.225,9.025,1.442,10.236,4.325,0,0-8.794-4.1-10.182-4.1" transform="translate(-212.032 -174.352)" opacity="0.1"/>
    <path id="Caminho_132" dataName="Caminho 132" d="M438.379,396.16s-7.433,2.353-6.9,5.9S430.721,400.415,438.379,396.16Z" transform="translate(-216.932 -194.641)" opacity="0.1"/>
    <path id="Caminho_133" dataName="Caminho 133" d="M437.92,427.141s2.706-3.714,5.284-3.033S437.92,427.141,437.92,427.141Z" transform="translate(-219.935 -207.573)" opacity="0.1"/>
    <path id="Caminho_134" dataName="Caminho 134" d="M492.508,165.314a4.217,4.217,0,0,1-.868.648c-2.144,1.249-2.733,3.173-3.751,5.391-.949,2.031-1.994,4.18-3.907,5.332-2.471,1.49-5.724.943-8.291,2.24a6.431,6.431,0,0,0-3.43,6.34,18.288,18.288,0,0,0,.729,2.9,20.713,20.713,0,0,1,.782,6.308,1.075,1.075,0,0,1,0,.188,17.514,17.514,0,1,1,18.757-29.352Z" transform="translate(-232.078 -85.734)" opacity="0.1"/>
    <path id="Caminho_135" dataName="Caminho 135" d="M484.478,151.24c-1.924-4.041-6.109-6.6-10.413-7.851a17.489,17.489,0,0,0-10.113-.214,37.1,37.1,0,0,0-5.29,2.481c-3.248,1.64-6.817,2.937-9.261,5.633a2.822,2.822,0,0,0-.927,2.262,6.315,6.315,0,0,0,.916,1.64,4.976,4.976,0,0,1,.048,4.121,37.79,37.79,0,0,0-1.511,3.96,4.167,4.167,0,0,0,.815,3.971,14.843,14.843,0,0,0,1.533,1.072,8.068,8.068,0,0,1,1.452,1.651l2.894,3.955a40.115,40.115,0,0,1,3.623,5.568,26.531,26.531,0,0,0,2.24,4.25,4.85,4.85,0,0,0,4.062,2.171.788.788,0,0,0,.643-.305.847.847,0,0,0,.08-.4,20.568,20.568,0,0,0-.766-6.286,18.143,18.143,0,0,1-.729-2.9,6.458,6.458,0,0,1,3.43-6.34c2.572-1.3,5.825-.75,8.291-2.235,1.919-1.158,2.964-3.307,3.907-5.359,1.034-2.219,1.608-4.143,3.751-5.391S485.545,153.368,484.478,151.24Z" transform="translate(-224.504 -76.933)" fill="#585268"/>
    <path id="Caminho_136" dataName="Caminho 136" d="M501.63,693.06s2.68,3.414,1.983,5.359S501.63,693.06,501.63,693.06Z" transform="translate(-249.501 -332.426)" opacity="0.1"/>
    <path id="Caminho_137" dataName="Caminho 137" d="M569.28,704.947s.595-4.577,2.98-4.62,2.5-.247,4.325.456,3.532,1.79,2.985,1.951-3.135-2.615-5.793-1.2a19.138,19.138,0,0,0-4.5,3.408Z" transform="translate(-280.896 -335.771)" opacity="0.1"/>
    <path id="Caminho_138" dataName="Caminho 138" d="M480.658,246.425l7.5-5.257s-10.976-6.485-12.283-5.574-2.208,9.111-2.208,9.111Z" transform="translate(-236.526 -120.085)" opacity="0.1"/>
    <path id="Caminho_139" dataName="Caminho 139" d="M480.6,245.707l7.5-5.359s-10.976-6.485-12.283-5.574-2.208,9.561-2.208,9.561Z" transform="translate(-236.498 -119.705)" fill="#e1e7ef"/>
    <path id="Caminho_140" dataName="Caminho 140" d="M480.6,245.707l7.5-5.359s-10.976-6.485-12.283-5.574-2.208,9.561-2.208,9.561Z" transform="translate(-236.498 -119.705)" fill="#32b999"/>
    <path id="Caminho_141" dataName="Caminho 141" d="M454.836,234.649l-.225-.113a1.945,1.945,0,0,0-2.106.22L430,253.015s-4.893,6.769-4.212,18.446l13.275,18.805s1.517-6.367,3.333-5.156c0,0,2.578,32.611,0,37.311s-3.714,22.294-3.714,22.294l8.719.986s.911-11.908,2.958-16.153,3.162-18.838,3.162-18.838,1.844-21.2,1.538-30.3-2.958-28.666-2.958-28.666S452.842,240.276,454.836,234.649Z" transform="translate(-214.273 -119.536)" fill="#67647e"/>
    <path id="Caminho_142" dataName="Caminho 142" d="M513.792,239.759,504.44,236.3s11.908-13.044,13.4-5.809Z" transform="translate(-250.805 -116.742)" opacity="0.1"/>
    <path id="Caminho_143" dataName="Caminho 143" d="M513.792,238.909l-9.352-3.462s11.908-13.044,13.4-5.809Z" transform="translate(-250.805 -116.347)" fill="#e1e7ef"/>
    <path id="Caminho_144" dataName="Caminho 144" d="M513.792,238.909l-9.352-3.462s11.908-13.044,13.4-5.809Z" transform="translate(-250.805 -116.347)" fill="#32b999"/>
    <path id="Caminho_145" dataName="Caminho 145" d="M521.32,228.114a.536.536,0,0,1,.386.086Z" transform="translate(-258.639 -116.652)" opacity="0.1"/>
    <path id="Caminho_146" dataName="Caminho 146" d="M523,226.422l24.813,5.359s6.828,1.517,11.758,18.655-6.753,38.136-6.753,38.136l-2.578-2.192,1.292,50.05s-11.453,4.32-15.091.536-3.258-21.555-3.258-21.555-3.489-32.755-5.692-38.141-1.072-44.208-1.072-44.208S524.393,226.122,523,226.422Z" transform="translate(-259.419 -115.865)" fill="#67647e"/>
    <path id="Caminho_147" dataName="Caminho 147" d="M565.078,285.745c-.348.322-.756,15.467.761,26.994a147.1,147.1,0,0,0,4.287,20.778l-2.251-46.18S566.139,284.759,565.078,285.745Z" transform="translate(-278.795 -143.296)" opacity="0.1"/>
    <path id="Caminho_148" dataName="Caminho 148" d="M559.7,261.6c.606.38,3.264,6.672,2.047,9.25S559.7,261.6,559.7,261.6Z" transform="translate(-276.45 -132.195)" opacity="0.1"/>
    <path id="Caminho_149" dataName="Caminho 149" d="M495.947,153.843a13.7,13.7,0,0,0-5.456-5.713,12.975,12.975,0,0,1,4.089,4.823c1.072,2.144.756,4.287-1.329,5.461s-2.733,3.173-3.751,5.391c-.949,2.031-1.994,4.18-3.912,5.359-2.465,1.49-5.718.938-8.291,2.235a6.474,6.474,0,0,0-3.43,6.345,18.224,18.224,0,0,0,.734,2.9,20.731,20.731,0,0,1,.782,6.308.846.846,0,0,1-.086.4.766.766,0,0,1-.638.305,3.693,3.693,0,0,1-1.87-.348,4.352,4.352,0,0,0,3.216,1.259.632.632,0,0,0,.718-.707,20.563,20.563,0,0,0-.777-6.308,17.6,17.6,0,0,1-.734-2.9,6.458,6.458,0,0,1,3.43-6.34c2.572-1.3,5.825-.75,8.291-2.235,1.919-1.158,2.964-3.307,3.907-5.359,1.034-2.219,1.608-4.143,3.751-5.391S497.019,155.971,495.947,153.843Z" transform="translate(-236.117 -79.536)" opacity="0.1"/>
    <path id="Caminho_150" dataName="Caminho 150" d="M710.407,231.813c-7.385-.145-13.9-5.359-17.594-11.731a11.789,11.789,0,0,1-1.779-5.022,5.8,5.8,0,0,1,.2-1.2,12.453,12.453,0,0,0,.536-1.838,3.217,3.217,0,0,0,0-.75s0,0,0-.043a4.434,4.434,0,0,0-1.608-3.607c-.986-.927-2.224-1.608-3.253-2.53-3.173-2.787-4.137-7.256-4.2-11.512v-.225c.037-1.822.182-3.65.166-5.472a23.021,23.021,0,0,0-.134-3.1,10.236,10.236,0,0,0-3.312-6.849c-5.284-4.287-14.17.177-19.641-3.875-1.329-.991-2.406-2.455-4.019-2.84a6.771,6.771,0,0,0-3.671.5c-4.03,1.329-8.526,3.076-10.1,6.967-.9,2.235-.648,4.786-1.474,7.047a35.2,35.2,0,0,1-2.3,4.255,6.662,6.662,0,0,0-.857,3.553,4.01,4.01,0,0,0,.263,1.892,4.822,4.822,0,0,0,1.313,1.881,6.25,6.25,0,0,1-.783,1.254c-1.029,1.259-2.61,2.144-3.682,3.4-1.983,2.3-1.908,5.424-.932,8.125s2.739,5.161,3.955,7.792a4.182,4.182,0,0,1,.4,3.553,10.188,10.188,0,0,1-1.779,2.069,6.5,6.5,0,0,0-1.608,3.591c-12.064,2.755-12.074,12.449-12.074,12.449h0l-6.517,16.388s-1.045,2.76-2.272,6.4l-7.712-1.383,5.359,8.971c-1.013,3.655-1.731,7.042-1.5,8.746,0,0-2.4,11.254,1.865,13.221l9.4,4.228a5.569,5.569,0,0,0,1.3.584l.381.172a1.008,1.008,0,0,0,.879,0h.129a1.265,1.265,0,0,0,.536-.08,1.072,1.072,0,0,0,.472-.509.163.163,0,0,1,0-.054l2.814-.815,2.385,2.824c1.072.756,2.144,1.409,3.157,2l-3.693,36.668s-.595,48.769-2.4,59.884a31.123,31.123,0,0,0-.418,8.832l-.07.118c.445,3.135,1.608,3.751,1.608,3.751v-.043a.347.347,0,0,0,.07.043,31.576,31.576,0,0,1,1.929-4.137v.8c-.037,4.137-.166,9.931-.595,13.7-.729,6.431,1.865,27.627,1.865,27.627l.9,19.293a17.836,17.836,0,0,1-2.2,9.4c-2.144,3.853-4.882,9.277-5.08,11.683a2.42,2.42,0,0,0,0,.391h0l-4.6,5.531s-1.8,2.776,2.262,3.9c2.181.606,5.943,0,8.966-.713a5.992,5.992,0,0,0,4.646-5.831,20.634,20.634,0,0,1,3.794-7.283l.756,4.443,5.059,1.254.649-12.176a5.36,5.36,0,0,0,.348-2.144h0c1-8.66-2.347-7.883-2.347-7.883a.466.466,0,0,1,.161.3l-.161-.295h0c-2.053-4.052-1.072-10.718-1.072-10.718s2.68-19.293,3.6-24.39c.659-3.6.386-15.392.166-21.973a7.863,7.863,0,0,0-.027-.8c7.846-.1,17.46-.364,24.208-1.018v.793l-1.243,45.58a25.021,25.021,0,0,1-1.747,8.478.462.462,0,0,1-.059.155,36.979,36.979,0,0,0-2.471,11.946l-.579,14.47v.4h0c-1.008.386-2.6,1.506-2.642,4.754-.07,4.759,8.318,3.173,8.318,3.173,8.382,0,8.451-8.725,8.451-8.725s.263-8,.665-13.355-1.265-4.175-1.265-4.175l-.129,15.231V473.952l.129-1.935v-.054h0v-.413l1.056-15.708s7.723-26.174,8.918-31.2c.852-3.569.5-14.32.22-20.263a4.721,4.721,0,0,0-.043-.788c2.4-.214,4.512-.236,5.359-.236h.391s-.4-42.038-1.4-57.879-2.594-30.338-6.586-34.7c-2.412-2.637-5.772-10.777-8.039-16.806a84.076,84.076,0,0,0,14.775,4.823c12.642,2.647,10.911-8.328,10.911-8.328l-1.281-20.756h.086a105.828,105.828,0,0,0-1.393-16.228,47.748,47.748,0,0,0-3.258-11.79c1.372-.536,2.728-1.109,4.057-1.7,3.435-1.517,7.3-3.666,7.8-7.369h-.166A4.773,4.773,0,0,0,710.407,231.813Zm-78.368,30.012h0c.027,2.144-.054,5.863-.182,9.973l-4.014-5.359,4.025-6.527ZM685.824,272.709Zm1.672,8.108-6.688-2.144a30.01,30.01,0,0,1,4.132-5.113l.579-.536-.209.043.322-.295.193-.043-.306.295.364-.075a11.409,11.409,0,0,0,2.278,4.582c2.4,2.621-.659,3.285-.659,3.285Z" transform="translate(-297.909 -90.204)" fill="url(#linear-gradient-2)"/>
    <path id="Caminho_151" dataName="Caminho 151" d="M645.242,715.66l-.782,14.834-4.989-1.249-1.05-6.168Z" transform="translate(-296.283 -332.121)" fill="#a27772"/>
    <path id="Caminho_152" dataName="Caminho 152" d="M645.242,715.66l-.782,14.834-4.989-1.249-1.05-6.168Z" transform="translate(-296.283 -332.121)" opacity="0.1"/>
    <path id="Caminho_153" dataName="Caminho 153" d="M716.48,685.194l7.61,1.576,5.643-4.984V667.739l.129-1.919v-.059h0v-.407l1.05-15.611s7.615-25.987,8.8-30.976c.836-3.537.488-14.213.209-20.113-.113-2.417-.209-4.035-.209-4.035l-16.8-4.068-.354,12.916-1.227,45.253a25.078,25.078,0,0,1-1.72,8.419l-.059.155a36.827,36.827,0,0,0-2.438,11.855l-.568,14.389v.4Z" transform="translate(-349.209 -284.854)" fill="#cc818c"/>
    <path id="Caminho_154" dataName="Caminho 154" d="M741.45,730.141v.4h0v-.407Z" transform="translate(-360.797 -349.63)" opacity="0.1"/>
    <path id="Caminho_155" dataName="Caminho 155" d="M716.48,763.164l7.61,1.576,5.643-4.984v-1.2a1.608,1.608,0,0,1-.809,1.286l-.08.048a15.167,15.167,0,0,1-8.543,1.688l-2.969-.252a2.782,2.782,0,0,0-.788.193v.4Z" transform="translate(-349.209 -362.824)" opacity="0.1"/>
    <path id="Caminho_156" dataName="Caminho 156" d="M726.625,747.349l.08-.043a1.608,1.608,0,0,0,.82-1.393l.123-15.118s1.64-1.174,1.243,4.143-.654,13.259-.654,13.259-.064,8.66-8.334,8.66c0,0-8.269,1.576-8.2-3.151s3.414-4.92,3.414-4.92l2.969.257A15.129,15.129,0,0,0,726.625,747.349Z" transform="translate(-346.99 -349.887)" fill="#b07473"/>
    <path id="Caminho_157" dataName="Caminho 157" d="M642.52,686.266c.193,3.414,10.236,1.442,10.236,1.442l6.758-13.119s5.643-4.336,2.819-8.141a6.068,6.068,0,0,1-.413-.649l-.027-.032h0c-.059-.1-.113-.2-.166-.305h0c-2.026-4.019-1.029-10.611-1.029-10.611s2.621-19.164,3.542-24.218c.648-3.569.381-15.279.166-21.828-.086-2.722-.166-4.55-.166-4.55l-16.672-4.464v4.973c-.037,4.111-.166,9.861-.589,13.6-.718,6.361,1.838,27.428,1.838,27.428l.884,19.17a17.755,17.755,0,0,1-2.144,9.33c-2.09,3.827-4.823,9.218-5.011,11.6a2.335,2.335,0,0,0-.027.37Z" transform="translate(-314.885 -289.142)" fill="#cc818c"/>
    <path id="Caminho_158" dataName="Caminho 158" d="M642.516,743.427c.193,3.414,10.236,1.442,10.236,1.442l6.758-13.119s5.643-4.336,2.819-8.141a6.074,6.074,0,0,1-.413-.648c-.091,1.988-2.272,6.967-2.272,6.967s-5.579,11.163-7.353,13.72-9.48-.477-9.77-.584a2.359,2.359,0,0,0-.005.364Z" transform="translate(-314.881 -346.302)" opacity="0.1"/>
    <path id="Caminho_159" dataName="Caminho 159" d="M657.411,722.285s3.3-.766,2.315,7.83h0a5.536,5.536,0,0,1-2.61,4.914,18.768,18.768,0,0,0-7.851,10.89h0a5.938,5.938,0,0,1-4.582,5.788c-2.98.7-6.694,1.308-8.843.707-4-1.115-2.229-3.869-2.229-3.869l4.593-5.45s8.007,3.151,9.775.589,7.353-13.714,7.353-13.714S658.392,723.008,657.411,722.285Z" transform="translate(-310.569 -345.981)" fill="#b07473"/>
    <path id="Caminho_160" dataName="Caminho 160" d="M728.174,593.52l-.354,12.916c4.475-.434,7.68-1.04,8.226-1.892,1.184-1.833,5.482-2.6,9.137-2.921-.113-2.417-.209-4.035-.209-4.035Z" transform="translate(-354.471 -286.232)" opacity="0.1"/>
    <path id="Caminho_161" dataName="Caminho 161" d="M651.94,607.693a6.131,6.131,0,0,1,1.838-2.219c1.769-.981,1.576,6.3,1.576,6.3s5.9.054,13.425-.043c-.086-2.722-.166-4.555-.166-4.555L651.94,602.72S651.972,604.789,651.94,607.693Z" transform="translate(-319.257 -290.501)" opacity="0.1"/>
    <path id="Caminho_162" dataName="Caminho 162" d="M646.886,509.851s1.972-5.359,3.751-6.313,1.576,6.3,1.576,6.3,43.313.4,45.478-2.953,14.765-3.151,14.765-3.151-.391-41.737-1.377-57.483-2.556-30.124-6.5-34.454c-2.546-2.8-6.168-11.871-8.409-17.916-1.217-3.3-2.026-5.708-2.026-5.708l-41.341,2.358-.338,3.349-4.389,43.9s-.589,48.431-2.363,59.455S646.886,509.851,646.886,509.851Z" transform="translate(-316.105 -190.933)" fill="#444053"/>
    <g id="Grupo_24" dataName="Grupo 24" transform="translate(329.092 197.237)" opacity="0.1">
      <path id="Caminho_163" dataName="Caminho 163" d="M702.54,506.882c2.144-3.344,14.765-3.151,14.765-3.151s-.391-41.738-1.377-57.483-2.556-30.124-6.5-34.454c-2.556-2.814-6.168-11.871-8.409-17.916-1.024-2.776-1.758-4.914-1.961-5.525l3.216-.182s.809,2.406,2.031,5.708c2.24,6.045,5.858,15.113,8.4,17.916,3.939,4.33,5.515,18.7,6.5,34.454s1.383,57.483,1.383,57.483-12.6-.193-14.77,3.151c-1.849,2.856-33.72,2.99-42.97,2.964C674.721,509.819,700.868,509.465,702.54,506.882Z" transform="translate(-653.412 -388.17)"/>
      <path id="Caminho_164" dataName="Caminho 164" d="M647.314,603.36c.8-.445,1.2.788,1.393,2.283a30.92,30.92,0,0,0-1.86,4.03s-1.141-.616-1.608-3.751A7.3,7.3,0,0,1,647.314,603.36Z" transform="translate(-645.24 -487.993)"/>
    </g>
    <path id="Caminho_165" dataName="Caminho 165" d="M665.091,194.612c-2.862,3.9.032,9.448-3.039,13.243-1.013,1.254-2.572,2.144-3.628,3.376-1.956,2.283-1.881,5.386-.922,8.066s2.68,5.123,3.9,7.739a4.14,4.14,0,0,1,.4,3.526,9.988,9.988,0,0,1-1.758,2.053,7.4,7.4,0,0,0-.965,7.857c1.061,2.594,3.087,4.823,5.086,7.021a3.471,3.471,0,0,0,5.043,1.152,19.829,19.829,0,0,0,9.025-25.88c-1.661-3.982-4.432-7.8-4.459-12,0-3.339,1.715-6.528,2.02-9.85.37-4.041-2.02-10.456-6.9-12.219C669.217,191.284,666.543,192.608,665.091,194.612Z" transform="translate(-321.534 -98.359)" fill="#585268"/>
    <path id="Caminho_166" dataName="Caminho 166" d="M665.091,194.612c-2.862,3.9.032,9.448-3.039,13.243-1.013,1.254-2.572,2.144-3.628,3.376-1.956,2.283-1.881,5.386-.922,8.066s2.68,5.123,3.9,7.739a4.14,4.14,0,0,1,.4,3.526,9.988,9.988,0,0,1-1.758,2.053,7.4,7.4,0,0,0-.965,7.857c1.061,2.594,3.087,4.823,5.086,7.021a3.471,3.471,0,0,0,5.043,1.152,19.829,19.829,0,0,0,9.025-25.88c-1.661-3.982-4.432-7.8-4.459-12,0-3.339,1.715-6.528,2.02-9.85.37-4.041-2.02-10.456-6.9-12.219C669.217,191.284,666.543,192.608,665.091,194.612Z" transform="translate(-321.534 -98.359)" opacity="0.1"/>
    <path id="Caminho_167" dataName="Caminho 167" d="M704.255,464.55c-5.729.3-11.12,2.765-16.137,5.552s-9.872,5.943-15.268,7.921" transform="translate(-328.961 -226.38)" opacity="0.1"/>
    <path id="Caminho_168" dataName="Caminho 168" d="M701.522,489.74a23.617,23.617,0,0,0-14.872,7.235c-1.393,1.474-2.594,3.124-4.046,4.539a17.975,17.975,0,0,1-7.975,4.518" transform="translate(-329.787 -238.07)" opacity="0.1"/>
    <path id="Caminho_169" dataName="Caminho 169" d="M698.919,508.91a26,26,0,0,0-11.962,7.213c-.879.949-1.677,1.962-2.556,2.91-4.743,5.091-11.442,7.792-17.91,10.349" transform="translate(-326.009 -246.966)" opacity="0.1"/>
    <path id="Caminho_170" dataName="Caminho 170" d="M706.4,242.82a117.618,117.618,0,0,0,1.179,13.677c.536,3.215,1.286,6.109,2.363,7.39,3.151,3.751-15.354,8.762-15.354,8.762l-10.927-8.468s8.661-7.975,4.625-15.751S706.4,242.82,706.4,242.82Z" transform="translate(-333.978 -123.351)" fill="#cc818c"/>
    <path id="Caminho_171" dataName="Caminho 171" d="M658.79,393.878h43.7c-1.217-3.3-2.026-5.708-2.026-5.708l-41.341,2.358Z" transform="translate(-322.436 -190.933)" opacity="0.1"/>
    <path id="Caminho_172" dataName="Caminho 172" d="M646.152,339.289h46.727a16.213,16.213,0,0,1,1.87-12.391,27.384,27.384,0,0,1,4.893-6.345l.322-.295,16.313-3.612.879-.193s.134-29.663-10.37-33.736a61.41,61.41,0,0,1-16.8-9.577L675.552,277.6,664.92,272.24c-3.414,3.671-12.471,2.229-12.471,2.229-14.829,1.7-14.829,12.862-14.829,12.862s8.66,20.21,9.32,20.21S646.152,339.289,646.152,339.289Z" transform="translate(-312.612 -137.133)" fill="#32b999"/>
    <path id="Caminho_173" dataName="Caminho 173" d="M672.581,357.134s-9.529-2.112-12.771-5.8" transform="translate(-322.909 -173.837)" opacity="0.1"/>
    <path id="Caminho_174" dataName="Caminho 174" d="M763.721,341.51l-11.051,9.057a18.816,18.816,0,0,0,.365,2.144l.322-.295,16.313-3.612Z" transform="translate(-366.004 -169.279)" opacity="0.1"/>
    <path id="Caminho_175" dataName="Caminho 175" d="M717.46,380.332s2.417,1.361,6.12,3.151h6.351a16.213,16.213,0,0,1,1.87-12.39l-11.2-3.623C724.416,371.012,717.46,380.332,717.46,380.332Z" transform="translate(-349.664 -181.327)" opacity="0.1"/>
    <path id="Caminho_176" dataName="Caminho 176" d="M632.809,293.76l-6.56,3.542-6.431,16.276s-6.694,17.846-6.04,22.573c0,0-2.358,11.158,1.838,13.125l10.933,4.952a1.018,1.018,0,0,0,1.313-1.4c-1.56-2.953-3.274-7.573-.536-10.113l-3.151-6.56,11.388-18.639,3.805-6.431Z" transform="translate(-301.241 -147.12)" fill="#32b999"/>
    <path id="Caminho_177" dataName="Caminho 177" d="M677.016,351.295c.568,2.315,2.487,5.9,8.837,7.23l6.967,5.708,7.412,3.36,3.023,1.367,1.281-9.255-2.91-1.608-3.392-1.854s-7.653-13.864-19.77-8.039A2.68,2.68,0,0,0,677.016,351.295Z" transform="translate(-330.855 -171.722)" opacity="0.1"/>
    <path id="Caminho_178" dataName="Caminho 178" d="M677.766,349.852c.568,2.321,2.481,5.9,8.832,7.23l6.967,5.708,7.417,3.36L704,367.515l1.281-9.255-2.91-1.608L699,354.814s-7.658-13.864-19.775-8.012a2.68,2.68,0,0,0-1.463,3.049Z" transform="translate(-331.208 -171.067)" fill="#cc818c"/>
    <circle id="Elipse_26" dataName="Elipse 26" cx="16.93" cy="16.93" r="16.93" transform="translate(343.283 97.614)" opacity="0.1"/>
    <circle id="Elipse_27" dataName="Elipse 27" cx="16.93" cy="16.93" r="16.93" transform="translate(343.283 97.223)" fill="#cc818c"/>
    <path id="Caminho_179" dataName="Caminho 179" d="M718.471,285.662l-5.091-9.893s7.449-3.012,7.991-6.5,7.138,4.089,5.713,6.6S718.471,285.662,718.471,285.662Z" transform="translate(-347.77 -135.335)" opacity="0.1"/>
    <path id="Caminho_180" dataName="Caminho 180" d="M718.471,284.193,713.38,274.3s7.449-3.012,7.991-6.5,7.138,4.094,5.713,6.6S718.471,284.193,718.471,284.193Z" transform="translate(-347.77 -134.653)" fill="#32b999"/>
    <path id="Caminho_181" dataName="Caminho 181" d="M627.551,343.676l28.13,37.82s-10.37,5.643-24.652-4.459l-6.168-7.353L607.25,340Z" transform="translate(-298.517 -168.579)" fill="#f6f8fb"/>
    <path id="Caminho_182" dataName="Caminho 182" d="M634.229,376.793l2.562-.07s15.649-15.188,19.491-7.5-9.748,14.866-9.748,14.866l-4.132,2.229-5.386,1.608L633.57,383.3Z" transform="translate(-310.732 -181.132)" fill="#cc818c"/>
    <path id="Caminho_183" dataName="Caminho 183" d="M634.939,392.04a3.823,3.823,0,0,1,.064,2.647,1.072,1.072,0,0,1-.466.509,1.2,1.2,0,0,1-.536.075,5.386,5.386,0,0,1-3.532-1.747,16.127,16.127,0,0,1-2.288-3.312c-.7-1.217-1.42-2.562-1.174-3.944.279-1.506,1.608-2.551,2.91-3.4,2.594-1.715,2.68.284,3.248,2.492S634.344,389.811,634.939,392.04Z" transform="translate(-307.663 -188.174)" opacity="0.1"/>
    <path id="Caminho_184" dataName="Caminho 184" d="M634.207,392.04a3.854,3.854,0,0,1,.064,2.647,1.072,1.072,0,0,1-.466.509,1.206,1.206,0,0,1-.536.075,5.359,5.359,0,0,1-3.532-1.747,15.945,15.945,0,0,1-2.294-3.312c-.7-1.217-1.42-2.562-1.168-3.944.273-1.506,1.608-2.551,2.9-3.4,2.6-1.715,2.68.284,3.253,2.492S633.607,389.811,634.207,392.04Z" transform="translate(-307.323 -188.174)" fill="#32b999"/>
    <path id="Caminho_185" dataName="Caminho 185" d="M623.85,316.023l1.308-2.213-1.141,4.111Z" transform="translate(-289.522 -145.631)" opacity="0.1"/>
    <path id="Caminho_186" dataName="Caminho 186" d="M721.19,375.927l3.017,1.367,1.281-9.255-2.91-1.608C724.588,368.734,722.83,372.995,721.19,375.927Z" transform="translate(-351.395 -180.844)" opacity="0.1"/>
    <path id="Caminho_187" dataName="Caminho 187" d="M731.77,362.313s-9.743.595-13.88-2.063" transform="translate(-349.863 -177.976)" opacity="0.1"/>
    <g id="Grupo_25" dataName="Grupo 25" transform="translate(339.216 135.879)" opacity="0.1">
      <path id="Caminho_188" dataName="Caminho 188" d="M737.771,329.148a27.429,27.429,0,0,1,4.893-6.351,13.049,13.049,0,0,1,1.442-.782l15.188-3.119.879-.193s.134-29.663-10.365-33.736a63.09,63.09,0,0,1-16.378-9.223l1.152-.354a61.248,61.248,0,0,0,16.8,9.577c10.5,4.068,10.365,33.736,10.365,33.736h-1.576l-15.542,2.974s-.67.648-.874.836a30.116,30.116,0,0,0-4.968,6.57,16.474,16.474,0,0,0-1.3,12.455h-1.608A16.382,16.382,0,0,1,737.771,329.148Z" transform="translate(-696.291 -274.474)"/>
      <path id="Caminho_189" dataName="Caminho 189" d="M664.13,277.912c.252-.038.493-.075.756-.1a27.17,27.17,0,0,0,3.216.263A29.222,29.222,0,0,1,664.13,277.912Z" transform="translate(-664.13 -275.597)"/>
      <path id="Caminho_190" dataName="Caminho 190" d="M697.374,279.055l-9.614-4.866a5.083,5.083,0,0,0,.536-.509l10.032,5.075Z" transform="translate(-675.096 -273.68)"/>
    </g>
    <path id="Caminho_191" dataName="Caminho 191" d="M748.1,340l6.431,7.878,1.313,21.394s1.7,10.89-10.761,8.264S718.19,366.8,718.19,366.8s6.967-9.32,3.151-12.862l17.852,5.777s3.017-.659.654-3.28-2.781-7.353-2.781-7.353Z" transform="translate(-350.002 -168.579)" fill="#32b999"/>
    <path id="Caminho_192" dataName="Caminho 192" d="M779.42,382.17l3.542,4.068A5.107,5.107,0,0,1,779.42,382.17Z" transform="translate(-378.418 -188.149)" opacity="0.1"/>
    <path id="Caminho_193" dataName="Caminho 193" d="M736.99,360.8l5.515,7.085-2.755.659Z" transform="translate(-342.028 -167.438)" opacity="0.1"/>
    <path id="Caminho_194" dataName="Caminho 194" d="M665.339,198.4a5.654,5.654,0,0,1,.589-4.614,36.432,36.432,0,0,0,2.278-4.228c.809-2.24.563-4.775,1.447-6.967,1.56-3.885,5.992-5.622,9.963-6.967a6.7,6.7,0,0,1,3.623-.493c1.608.381,2.653,1.838,3.966,2.819,5.391,4.019,14.159-.407,19.374,3.848a10.141,10.141,0,0,1,3.264,6.8,59.991,59.991,0,0,1-.032,7.728c-.086,4.512.761,9.448,4.137,12.439,1.018.9,2.219,1.576,3.216,2.508a4.391,4.391,0,0,1,1.608,3.585,12.429,12.429,0,0,1-.536,1.822c-.67,2.353.332,4.823,1.554,6.967,3.644,6.308,10.07,11.506,17.353,11.651-.488,3.676-4.287,5.809-7.69,7.315-4.287,1.924-8.853,3.81-13.575,3.569s-9.647-3.264-10.472-7.916c-.284-1.608-.247-3.542-1.608-4.378-.836-.509-1.919-.381-2.819-.761-1.3-.536-1.945-2-2.374-3.344a30.1,30.1,0,0,1-1.4-8.575c-.059-3.451.4-7.219-1.56-10.059-1.811-2.631-5.027-3.966-7.117-6.383-1.929-2.24-4.025-4.941-7.187-5.359C676.968,198.789,667.922,204.732,665.339,198.4Z" transform="translate(-325.346 -92.021)" opacity="0.1"/>
    <path id="Caminho_195" dataName="Caminho 195" d="M665.339,196.933a5.654,5.654,0,0,1,.589-4.614,36.432,36.432,0,0,0,2.278-4.228c.809-2.24.563-4.775,1.447-6.967,1.56-3.891,5.992-5.627,9.963-6.967a6.7,6.7,0,0,1,3.623-.493c1.608.381,2.653,1.838,3.966,2.819,5.391,4.019,14.159-.407,19.374,3.848a10.142,10.142,0,0,1,3.264,6.8,59.9,59.9,0,0,1-.032,7.723c-.086,4.512.761,9.448,4.137,12.439,1.018.9,2.219,1.576,3.216,2.508a4.391,4.391,0,0,1,1.608,3.585,12.428,12.428,0,0,1-.536,1.822c-.67,2.353.332,4.823,1.554,6.967,3.655,6.286,10.054,11.5,17.337,11.646-.488,3.676-4.287,5.809-7.69,7.321-4.287,1.919-8.853,3.805-13.575,3.564s-9.647-3.264-10.472-7.916c-.284-1.608-.246-3.542-1.608-4.378-.836-.509-1.919-.381-2.819-.761-1.3-.536-1.945-2-2.374-3.344a30.067,30.067,0,0,1-1.4-8.575c-.059-3.451.4-7.219-1.56-10.059-1.811-2.631-5.027-3.966-7.117-6.383-1.929-2.24-4.025-4.941-7.187-5.359C676.968,197.319,667.922,203.273,665.339,196.933Z" transform="translate(-325.346 -91.339)" fill="#585268"/>
    <path id="Caminho_196" dataName="Caminho 196" d="M685.108,284.86l9.706-7.878s-6.646-3.6-7.439-6.672-6.109,1.458-5.568,4.212S685.108,284.86,685.108,284.86Z" transform="translate(-333.1 -135.76)" opacity="0.1"/>
    <path id="Caminho_197" dataName="Caminho 197" d="M685.846,282.655l9.706-7.873s-6.646-3.6-7.406-6.672-6.109,1.458-5.568,4.212S685.846,282.655,685.846,282.655Z" transform="translate(-333.457 -134.739)" fill="#32b999"/>
    <circle id="Elipse_28" dataName="Elipse 28" cx="0.772" cy="0.772" r="0.772" transform="translate(361.703 145.863)" opacity="0.1"/>
    <circle id="Elipse_29" dataName="Elipse 29" cx="0.772" cy="0.772" r="0.772" transform="translate(361.703 150.151)" opacity="0.1"/>
    <circle id="Elipse_30" dataName="Elipse 30" cx="0.772" cy="0.772" r="0.772" transform="translate(361.703 154.433)" opacity="0.1"/>
    <g id="Grupo_26" dataName="Grupo 26" transform="translate(339.836 88.059)" opacity="0.1">
      <path id="Caminho_198" dataName="Caminho 198" d="M672.018,191.042c.766-2.106.6-4.47,1.318-6.592a7.2,7.2,0,0,0-.82,1.511c-.89,2.213-.638,4.748-1.452,6.967l-.054.129a12.244,12.244,0,0,0,1.007-2.015Z" transform="translate(-667.943 -184.45)"/>
      <path id="Caminho_199" dataName="Caminho 199" d="M730.591,254.307c-4.287,1.919-8.853,3.805-13.575,3.564s-9.647-3.264-10.472-7.91c-.284-1.608-.246-3.548-1.608-4.384-.836-.509-1.919-.38-2.819-.761-1.3-.536-1.945-2-2.374-3.344a30.067,30.067,0,0,1-1.4-8.575c-.059-3.446.4-7.214-1.554-10.059-1.817-2.631-5.032-3.96-7.122-6.383-1.929-2.235-4.025-4.941-7.187-5.359-4.336-.59-13.4,5.359-15.96-.975a4.984,4.984,0,0,1,.166-3.66c-.187.316-.37.632-.536.954a5.677,5.677,0,0,0-.584,4.62c2.578,6.324,11.624.381,15.96.975,3.162.429,5.257,3.135,7.187,5.359,2.09,2.422,5.306,3.751,7.117,6.388,1.961,2.84,1.5,6.608,1.56,10.054a30.067,30.067,0,0,0,1.4,8.575c.429,1.351,1.072,2.8,2.374,3.344.9.38,1.983.257,2.819.761,1.383.836,1.345,2.792,1.608,4.384.836,4.646,5.756,7.669,10.472,7.91s9.261-1.64,13.575-3.564c3.108-1.383,6.57-3.3,7.5-6.431C735.65,251.826,733.013,253.23,730.591,254.307Z" transform="translate(-665.288 -194.664)"/>
    </g>
    <path id="Caminho_200" dataName="Caminho 200" d="M874.926,300.044c-11.345-6.528-15.633-8.135-15.654-8.135l-.236-.166a9.437,9.437,0,0,1-2.856-3.612,7.534,7.534,0,0,1,0-.777.321.321,0,0,0,0,.075c.177-3.457,2.637-6.6,4.968-9.346l5.965-7.015a6.913,6.913,0,0,0,1.538-2.433,5.612,5.612,0,0,0,.161-1.5v-.611c-.032-1.742-.08-3.489-.145-5.231-.054-1.522-.445-3.441-1.967-3.751-.793-.161-1.844.123-2.262-.536a1.3,1.3,0,0,1-.1-.906.309.309,0,0,0,0,.075v-.086a20.194,20.194,0,0,0,.563-3.585,4.889,4.889,0,0,0-.247-1.817c-.879-2.524-3.918-3.564-6.6-4.041s-5.7-.884-7.38-2.985a21.848,21.848,0,0,0-1.468-2.02,5.793,5.793,0,0,0-2.744-1.356,15.542,15.542,0,0,0-9.984.868c-1.3.579-2.6,1.361-4.025,1.275s-2.744-1.115-4.2-1.361c-2.358-.4-4.614,1.329-5.777,3.382a8.27,8.27,0,0,0-1.072,3.987v.236h0a5.831,5.831,0,0,0,1.533,4.073c1.018,1.072,2.529,1.779,2.953,3.167.172.563.129,1.174.284,1.747a1.555,1.555,0,0,0,.064.209l-.075.1a17.686,17.686,0,0,0-3.751,10.9,18.093,18.093,0,0,0,12.712,17.149v.536a7.71,7.71,0,0,1-2.465,6l-16.072,6.42s-9.689-1.152-13.184,13.007a24.144,24.144,0,0,0-.6,7.181,20.817,20.817,0,0,1-2.68,10.756c-3.971,7.782-3.065,25.644,5.059,27.412,7.669,1.672,10.67.975,10.986.895v.311c-.129,3.355-1.345,32.262-5.766,35.757-1.222.97-1,1.608,0,2.063,0,0,0,.188-.027.536-.134,2.144-.815,10.182-3.751,14.749-3.435,5.306-3.076,35.907-3.076,35.907L801.2,465.6s1.442,11.142,0,13.087c-1.292,1.731-3.006,42.949-3.366,51.888h-.15a4.352,4.352,0,0,0-3.473,2.144c-1.9,3.082-8.543,8.778-8.543,8.778-1.442,2.047-6.774,4.009-9.593,4.93a5.961,5.961,0,0,0-1.072.472,5.718,5.718,0,0,0-2.422,2.551,2.738,2.738,0,0,0-.257,2.144c.718,1.763,15.708,3.006,19.5,1.233,2.98-1.388,14.791-3.216,19.7-3.934a4.041,4.041,0,0,0,3.5-3.5,2.31,2.31,0,0,0-.45-1.753h0c-.938-1.163-1.415-4.341-1.608-6.431a4.347,4.347,0,0,0,1.1-.654,47.083,47.083,0,0,1,2.68-18.923c3.612-9.55,4.695-27.236,3.794-38.731,0,0,11.013-47.4,19.684-51.818h0c.134.172,4.341,5.568,4.877,22.284.536,16.978,6.678,28.12,6.678,28.12s-2.712,28.827,0,39.615l-3.542,17.016c-.263-.22-.429-.391-.429-.391s.107.472.252,1.227l-.075.364.155.032a33.5,33.5,0,0,1,.75,8.039c-.139,1.238-.488,2.937-.724,4.6-.375,2.621-.477,5.161.9,5.718,2.262.911,15.542,2.144,17.793-.772a4.175,4.175,0,0,0,.654-4.368,4.421,4.421,0,0,0-.654-1.115s-3.526-5.761-2.53-9.823a2.991,2.991,0,0,0-.423-2.331,119.815,119.815,0,0,1,3.039-19.057c2.262-8.51,7.026-27.171,3.521-39.438h0q-.2-.724-.45-1.415a52.971,52.971,0,0,1-1.988-20.692,42.172,42.172,0,0,1,0-18.039c2.17-9.9,3.687-19.631,3.687-19.631s1.2-13.087.15-21.11a5.283,5.283,0,0,0-.07-.536l.568-.129s-3.071-13.618-4.153-22.284c-.257-2.047-.589-4.636-.954-7.4a18.893,18.893,0,0,0,2.942-.734c9.748-3.36,12.819-33.763,12.819-33.763v-9.647S886.3,306.588,874.926,300.044ZM802.276,534.906c-.3-.15-.477-.252-.477-.252h0Z" transform="translate(-375.073 -122.096)" fill="url(#linear-gradient-3)"/>
    <path id="Caminho_201" dataName="Caminho 201" d="M891.822,604.867c4.228,12.16-.707,31.9-3,40.73a123.121,123.121,0,0,0-3,19.39,40.833,40.833,0,0,1-15.51-.354l3.7-18.152c-2.647-10.751,0-39.481,0-39.481s-5.992-11.1-6.522-28.023c-.536-16.651-4.625-22.037-4.754-22.2h0c-8.457,4.405-19.207,51.641-19.207,51.641.879,11.453-.182,29.079-3.7,38.586a47.7,47.7,0,0,0-2.642,18.854c-1.233,1.072-2.948,1.222-4.823.922-5.032-.815-11.067-5.15-11.067-5.15s1.935-51.448,3.35-53.4,0-13.044,0-13.044l2.288-17.975s-.354-30.494,3-35.778c2.894-4.566,3.559-12.594,3.687-14.7v-.536l5.1-6.109s49.348-3.7,53.056,0c.906.906,1.468,2.974,1.8,5.574,1.018,8-.15,21.035-.15,21.035s-1.479,9.695-3.6,19.561a42.938,42.938,0,0,0,0,17.98A53.822,53.822,0,0,0,891.822,604.867Z" transform="translate(-397.854 -251.388)" fill="#65617d"/>
    <path id="Caminho_202" dataName="Caminho 202" d="M931.017,805.037c-2.2,2.91-15.156,1.677-17.364.772-1.345-.536-1.243-3.092-.879-5.7.23-1.656.568-3.349.707-4.582.348-3.173-1.072-9.609-1.072-9.609s2.9,3.087,3.607,0a3.361,3.361,0,0,1,2.519-2.39,6.581,6.581,0,0,1,4.577.284c2.288,1,6.1,3.114,5.423,5.976-.97,4.046,2.465,9.791,2.465,9.791a4.456,4.456,0,0,1,.643,1.1,4.229,4.229,0,0,1-.627,4.357Z" transform="translate(-440.136 -374.279)" fill="#a27772"/>
    <path id="Caminho_203" dataName="Caminho 203" d="M931.128,819.64c-2.2,2.91-15.156,1.677-17.364.772-1.345-.536-1.243-3.092-.879-5.7,1.393.654,3.751,1.2,7.7.831a21.71,21.71,0,0,1,2.771-.086,64.448,64.448,0,0,0,8.414-.171A4.228,4.228,0,0,1,931.128,819.64Z" transform="translate(-440.246 -388.882)" opacity="0.1"/>
    <path id="Caminho_204" dataName="Caminho 204" d="M853.109,638.624c.879,11.453-.182,29.079-3.7,38.586a47.7,47.7,0,0,0-2.642,18.854c-1.233,1.072-2.948,1.222-4.823.922,1.072-7.433,5.595-39.46,8.494-64.766a105.978,105.978,0,0,1,18.757-48.64l3.082,3.392C863.859,591.388,853.109,638.624,853.109,638.624Z" transform="translate(-407.432 -281.619)" opacity="0.1"/>
    <path id="Caminho_205" dataName="Caminho 205" d="M906.157,322.337l-2.144,10.574-10.542,17.712-13-5.552s-17.685-18.505-6.565-21.147a9.84,9.84,0,0,0,3.687-1.64,7.624,7.624,0,0,0,2.878-6.377,19.551,19.551,0,0,0-1.79-7.578l22.734-7.138a36.492,36.492,0,0,0-1.608,9.207c-.177,6.2,2.144,9.245,4.014,10.718A6.827,6.827,0,0,0,906.157,322.337Z" transform="translate(-420.565 -150.568)" fill="#fbbebe"/>
    <path id="Caminho_206" dataName="Caminho 206" d="M908.712,301.19A36.492,36.492,0,0,0,907.1,310.4a17.286,17.286,0,0,1-1.324,1.409,17.985,17.985,0,0,1-17.975,4.1A19.549,19.549,0,0,0,886,308.328Z" transform="translate(-427.879 -150.568)" opacity="0.1"/>
    <path id="Caminho_207" dataName="Caminho 207" d="M902.11,280.195a17.894,17.894,0,1,1-5.242-12.735A17.98,17.98,0,0,1,902.11,280.195Z" transform="translate(-418.668 -132.482)" fill="#fbbebe"/>
    <path id="Caminho_208" dataName="Caminho 208" d="M906.157,339.578l-2.144,10.574-10.542,17.712-13-5.552s-17.685-18.505-6.565-21.147a9.84,9.84,0,0,0,3.687-1.64c-2,5.509,6.27,16.973,6.27,16.973.965,1.42,3.173.536,3.173.536,5.332-.809,15.145-16.142,16.747-18.693a6.827,6.827,0,0,0,2.369,1.238Z" transform="translate(-420.565 -167.808)" opacity="0.1"/>
    <path id="Caminho_209" dataName="Caminho 209" d="M904.31,525.66c-3.13.713-20.445,4.545-27.01,3.585-7.224-1.072-21.271-1.758-21.271-1.758s-8.945.482-11.7-.777v-.536l5.1-6.109s49.348-3.7,53.056,0C903.415,520.992,903.978,523.061,904.31,525.66Z" transform="translate(-408.541 -251.379)" opacity="0.1"/>
    <path id="Caminho_210" dataName="Caminho 210" d="M861.223,357.171s-9.3-12.862-5.793-17.9L839.722,345.7s-9.454-1.147-12.862,12.964a24.552,24.552,0,0,0-.584,7.16,21.182,21.182,0,0,1-2.589,10.718c-3.875,7.755-3,25.558,4.936,27.332s10.745.879,10.745.879-1.072,32.252-5.638,35.955,11.683,2.819,11.683,2.819,14.046.707,21.276,1.763,27.493-3.7,27.493-3.7-3-13.57-4.057-22.2-3.532-27.026-3.532-27.026l17.975-24.352s3.173-14.716-7.932-21.239-15.279-8.119-15.279-8.119S870.2,356.818,864.385,357.7C864.4,357.7,862.187,358.586,861.223,357.171Z" transform="translate(-397.925 -167.952)" fill="#32b999"/>
    <path id="Caminho_211" dataName="Caminho 211" d="M854.586,382.74s-.172,5.82.884,8.108,4.936,15.006,4.936,15.006H851.59s4.759-5.113,4.411-7.583S854.586,382.74,854.586,382.74Z" transform="translate(-411.911 -188.413)" opacity="0.1"/>
    <path id="Caminho_212" dataName="Caminho 212" d="M881.538,443.241s-19.465-4.759-21.276-8.811-6.812-13.125-6.812-13.125l2.053-2.765,9.464,7.428s11.254,8.987,16.571,9.872S881.538,443.241,881.538,443.241Z" transform="translate(-412.774 -205.027)" fill="#fbbebe"/>
    <path id="Caminho_213" dataName="Caminho 213" d="M881.538,443.241s-19.465-4.759-21.276-8.811-6.812-13.125-6.812-13.125l2.053-2.765,9.464,7.428s11.254,8.987,16.571,9.872S881.538,443.241,881.538,443.241Z" transform="translate(-412.774 -205.027)" opacity="0.05"/>
    <path id="Caminho_214" dataName="Caminho 214" d="M906.812,421.778v10.558h-1.694a49.352,49.352,0,0,0-23.975,6.211l-3.175,1.758-.852.477-5.466-12.326,5.113-4.582h.263c1.249.123,6.656.573,8.95-.2,2.176-.74,4.877-3.082,11.286-1.447,3.157.809,5.858,4.346,8.918,3.242Z" transform="translate(-421.22 -206.476)" fill="#fbbebe"/>
    <path id="Caminho_215" dataName="Caminho 215" d="M935.767,375.626l3.521,3.966V389.2s-3,30.312-12.508,33.661-26.507-1.94-26.507-1.94-4.389-11.629-2.337-12.326,18.141-4.952,18.141-4.952-.225-17.782,3.3-23.071c0,0-2.288-16.565,5.643-16.919S935.767,375.626,935.767,375.626Z" transform="translate(-433.165 -179.552)" opacity="0.1"/>
    <path id="Caminho_216" dataName="Caminho 216" d="M936.77,375.626l3.526,3.966V389.2s-3,30.312-12.514,33.661-26.507-1.94-26.507-1.94-4.389-11.629-2.331-12.326,18.141-4.952,18.141-4.952-.23-17.782,3.3-23.071c0,0-2.294-16.565,5.638-16.919S936.77,375.626,936.77,375.626Z" transform="translate(-433.632 -179.552)" fill="#32b999"/>
    <path id="Caminho_217" dataName="Caminho 217" d="M900.363,287.771a7.085,7.085,0,0,0-.4-3.435,2.615,2.615,0,0,0-2.8-1.608c-1.506.354-2.144,2.315-3.634,2.787a2.9,2.9,0,0,1-3.216-1.651,8.222,8.222,0,0,1-.611-3.837v-4.416c0-1.608-.054-3.333-1.04-4.593-1.227-1.565-4.116-2.251-6.045-2.187a5.128,5.128,0,0,0-3.451,1.388,4.442,4.442,0,0,1-3.628,1.292,3.124,3.124,0,0,1-2.53-2.187v-.054a17.975,17.975,0,1,1,26.721,23.859,48.456,48.456,0,0,0,.632-5.359Z" transform="translate(-421.851 -132.427)" opacity="0.1"/>
    <path id="Caminho_218" dataName="Caminho 218" d="M871.5,261.547a3.151,3.151,0,0,1-2.535-2.192c-.145-.568-.107-1.174-.273-1.736-.413-1.388-1.892-2.106-2.883-3.162-1.983-2.106-1.854-5.568-.45-8.1,1.136-2.042,3.333-3.751,5.638-3.366,1.426.247,2.68,1.259,4.105,1.356s2.68-.691,3.928-1.27a14.8,14.8,0,0,1,9.764-.868,5.627,5.627,0,0,1,2.68,1.356,23.437,23.437,0,0,1,1.431,2.01c1.64,2.09,4.582,2.5,7.2,2.974s5.584,1.511,6.431,4.03c.573,1.672,0,3.483-.311,5.22a1.576,1.576,0,0,0,.07,1.072c.413.675,1.436.391,2.208.536,1.484.316,1.865,2.229,1.924,3.751q.091,2.6.139,5.215a6.64,6.64,0,0,1-.155,1.929,6.812,6.812,0,0,1-1.5,2.428l-5.82,6.994c-2.583,3.1-5.322,6.71-4.823,10.718-1.222.536-2.68-.509-3.076-1.79a8.006,8.006,0,0,1,.193-3.971,48.689,48.689,0,0,0,.932-6.887,7.063,7.063,0,0,0-.4-3.43,2.615,2.615,0,0,0-2.8-1.608c-1.511.354-2.144,2.315-3.634,2.787a2.9,2.9,0,0,1-3.216-1.651,8.2,8.2,0,0,1-.611-3.832v-4.421c0-1.608-.054-3.333-1.04-4.593-1.227-1.565-4.116-2.251-6.045-2.187a5.129,5.129,0,0,0-3.446,1.388A4.45,4.45,0,0,1,871.5,261.547Z" transform="translate(-417.816 -122.983)" fill="#7c5c5c"/>
    <path id="Caminho_219" dataName="Caminho 219" d="M885.3,381.92l5.52,22.675S895.172,404.568,885.3,381.92Z" transform="translate(-427.555 -188.033)" opacity="0.1"/>
    <path id="Caminho_220" dataName="Caminho 220" d="M916.11,374.85s-7.224,11.833-4.405,24.074l1.345.1S910.649,393.355,916.11,374.85Z" transform="translate(-439.506 -184.752)" opacity="0.1"/>
    <path id="Caminho_221" dataName="Caminho 221" d="M929,499.275s8.875-2.937,9.518,3.875C938.539,503.149,936.867,498.482,929,499.275Z" transform="translate(-447.835 -242.202)" opacity="0.1"/>
    <path id="Caminho_222" dataName="Caminho 222" d="M868.052,426.81s-1.763,12.326,1.409,17.273a38.653,38.653,0,0,1-15.51,2.117l-1.072-19.39Z" transform="translate(-412.509 -208.865)" opacity="0.1"/>
    <path id="Caminho_223" dataName="Caminho 223" d="M877.969,442.221l-.852.477-5.466-12.326,5.113-4.582h.263C876.945,426.4,875.519,437,877.969,442.221Z" transform="translate(-421.22 -208.392)" opacity="0.1"/>
    <path id="Caminho_224" dataName="Caminho 224" d="M863.639,425.83s-1.763,12.326,1.409,17.267a38.54,38.54,0,0,1-15.51,2.117L843.37,425.83Z" transform="translate(-408.096 -208.41)" fill="#32b999"/>
    <path id="Caminho_225" dataName="Caminho 225" d="M816.56,797.144a3.993,3.993,0,0,1-3.425,3.494c-4.786.713-16.313,2.535-19.224,3.923-3.7,1.763-18.328.536-19.036-1.233a2.8,2.8,0,0,1,.252-2.144,5.649,5.649,0,0,1,2.363-2.54,6.279,6.279,0,0,1,1.072-.472c2.755-.916,7.958-2.867,9.363-4.914,0,0,6.49-5.675,8.339-8.741a4.234,4.234,0,0,1,3.387-2.112c1.543-.07,3.264.707,3.971,4.089,0,0,8.452,4.823,10.718.595,0,0,.354,6.5,1.758,8.275h0A2.358,2.358,0,0,1,816.56,797.144Z" transform="translate(-376.259 -373.888)" fill="#a27772"/>
    <path id="Caminho_226" dataName="Caminho 226" d="M816.56,808.369a3.993,3.993,0,0,1-3.425,3.494c-4.786.713-16.313,2.535-19.224,3.923-3.7,1.763-18.328.536-19.036-1.233a2.8,2.8,0,0,1,.252-2.144,5.649,5.649,0,0,1,2.363-2.54c2.385,1.608,7.68,3.13,19.325,1.313,11.11-1.736,16.614-3.435,19.293-4.593h0a2.358,2.358,0,0,1,.45,1.779Z" transform="translate(-376.259 -385.113)" opacity="0.1"/>
    <g id="Grupo_27" dataName="Grupo 27" transform="translate(446.483 127.101)" opacity="0.1">
      <path id="Caminho_227" dataName="Caminho 227" d="M942.437,268.609v-.086a15.785,15.785,0,0,0,.536-4,26.43,26.43,0,0,1-.536,3.216A1.951,1.951,0,0,0,942.437,268.609Z" transform="translate(-900.531 -260.651)"/>
      <path id="Caminho_228" dataName="Caminho 228" d="M895.907,281.754a5.1,5.1,0,0,1,.434,2.015,6.076,6.076,0,0,0-.434-2.808,2.605,2.605,0,0,0-2.792-1.608c-1.511.354-2.144,2.315-3.639,2.787a2.91,2.91,0,0,1-3.216-1.651,8.154,8.154,0,0,1-.611-3.837v-4.416c0-1.608-.054-3.333-1.04-4.593-1.233-1.57-4.116-2.251-6.045-2.192a5.134,5.134,0,0,0-3.451,1.393,4.453,4.453,0,0,1-3.634,1.292,3.141,3.141,0,0,1-2.53-2.187c-.145-.568-.107-1.179-.273-1.742-.413-1.383-1.892-2.106-2.883-3.157a5.772,5.772,0,0,1-1.484-3.751,6.007,6.007,0,0,0,1.484,4.518c.991,1.072,2.471,1.774,2.883,3.157.166.536.129,1.174.273,1.742a3.14,3.14,0,0,0,2.529,2.187,4.453,4.453,0,0,0,3.634-1.292,5.134,5.134,0,0,1,3.451-1.393c1.929-.059,4.823.622,6.045,2.192.986,1.259,1.034,2.99,1.04,4.593v4.416a8.111,8.111,0,0,0,.611,3.832,2.917,2.917,0,0,0,3.216,1.656c1.479-.472,2.144-2.433,3.639-2.787A2.707,2.707,0,0,1,895.907,281.754Z" transform="translate(-864.285 -257.3)"/>
      <path id="Caminho_229" dataName="Caminho 229" d="M939.793,292.892a6.775,6.775,0,0,1-1.5,2.422l-5.82,6.994c-2.449,2.942-5.038,6.351-4.823,10.107.177-3.446,2.578-6.581,4.823-9.314l5.82-6.994a6.775,6.775,0,0,0,1.5-2.422,6.687,6.687,0,0,0,.155-1.935,5.092,5.092,0,0,1-.156,1.142Z" transform="translate(-893.685 -273.288)"/>
      <path id="Caminho_230" dataName="Caminho 230" d="M921.833,327.293a4.124,4.124,0,0,1-.177-.943,4.754,4.754,0,0,0,.177,1.736c.4,1.276,1.849,2.331,3.076,1.785a7.49,7.49,0,0,1-.064-.772C923.623,329.587,922.208,328.547,921.833,327.293Z" transform="translate(-890.902 -289.345)"/>
    </g>
    <path id="Caminho_231" dataName="Caminho 231" d="M812.69,789.36s1.844,3.216,8.521.386" transform="translate(-393.858 -377.117)" opacity="0.1"/>
    <path id="Caminho_232" dataName="Caminho 232" d="M918,790.82s5.756,6.779,13.012,2.224" transform="translate(-442.73 -377.795)" opacity="0.1"/>
    <path id="Caminho_233" dataName="Caminho 233" d="M945.622,641.23s-4.068,2.54-4.2,3.993,2.1-1.072,2.1-1.072Z" transform="translate(-453.599 -308.373)" opacity="0.1"/>
    <path id="Caminho_234" dataName="Caminho 234" d="M945.936,677.59a8.505,8.505,0,0,1-5.011,1.956c-3.044.134-2.787,4.1-.8,2.91A49.88,49.88,0,0,0,945.936,677.59Z" transform="translate(-452.306 -325.247)" opacity="0.1"/>
    <path id="Caminho_235" dataName="Caminho 235" d="M950.637,682.34s-1.951,9.588-3.537,7.739" transform="translate(-456.235 -327.452)" opacity="0.1"/>
    <path id="Caminho_236" dataName="Caminho 236" d="M245.4,544.226s12.246,3.36,18.141-1.109,8.451-3.033,8.451-3.033,14.057-.777,15.215-4.1-5.391-15.392-5.391-15.392c-.466-1.072-1.147-2.433-1.452-2.433l.064-5.091h0l2.036-21.3c4.7-12.053.086-27.627.086-27.627l-.841-3.864a9.775,9.775,0,0,1,.8-6.431l8.537-17.149a25.66,25.66,0,0,1,1.608-3.291c.536-.981,1.249-2.192,2.144-3.644.263-.418.536-.852.836-1.308,1.034-1.608,2.288-3.43,3.805-5.531,3.778-5.236,5.766-11.79,6.8-16.614l.456,1.511h.1l.123.027h.2l.22.037h.08l2.626,33.42c.161,13.034,4.947,20.247,4.947,20.247l-.659,28.774c.9,6.929-1.072,16.169-1.978,19.856l-2.069,4.668a5.611,5.611,0,0,0-3.049,4.245c-.407,3.446-4.035,10.874-4.035,10.874-1.4,1.779-4.453,6.586-4.453,6.586s-1.436,4.641-.547,6.378,8.328,1.56,8.328,1.56c8.494,1.881,15.006-2.68,14.593-5.82s1.324-3.939,1.324-3.939c3.376-1.072,3.049-3.36,3.049-3.36a21.029,21.029,0,0,0-2.556-13.687l-.536,1.238a18.848,18.848,0,0,1,1.018-7.3l-.311.214-.1.059h-.032c.536-4.7,5.472-13.4,5.472-13.4,9.068-15.906,5.772-37.461,5.772-37.461l-1.4-6.72-.08-2.535a84.608,84.608,0,0,1,1.367-18.061c.488-2.637.991-5.82,1.377-9.33a82.467,82.467,0,0,1,4.652-18.312l.359-.064h.043c.493-.086.991-.172,1.5-.268h.1s.289-1.565.536-4.228c.145-1.7.263-3.853.263-6.329a71.209,71.209,0,0,0-3.382-22.032l.273-.391s.648-.879,1.833-2.4h0c2.176-2.765,5.563-6.967,9.738-11.7,7.476-8.527,5.279-17.149,5.279-17.149s-5.413-19.834-7.824-31.743a36.1,36.1,0,0,0-5.938-14.122,28.1,28.1,0,0,0,.75-5.724c.161-3.526.038-7.2-1.549-10.37s-4.963-5.67-8.489-5.247a3.248,3.248,0,0,1-1.522,0,2.315,2.315,0,0,1-1-.874c-2.063-2.846-2.2-6.672-1.554-10.124s1.961-6.753,2.551-10.215.322-7.3-1.881-10.049c-2.589-3.216-7.1-4.121-10.467-6.538-2.363-1.7-4.137-4.137-6.629-5.643s-4.823-.933-7.53-.364c-4.55.959-8.875,1.4-13.178,3.355a35.1,35.1,0,0,0-11.485,8.355,10.9,10.9,0,0,0-2.562,4.041c-1.072,3.542,1.024,7.315.584,10.981-.311,2.6-1.844,4.861-3.06,7.181s-2.144,5.075-1.19,7.5c1.5,3.794,6.394,4.6,9.952,6.619a3.038,3.038,0,0,1,1.179,1.024c.879,1.533-.916,3.124-2.047,4.486a6.758,6.758,0,0,0-1.34,2.722,9.711,9.711,0,0,0-5.825,7.031c-1.206,5.4.648,12.208,2.283,16.71-1.785,10.027.536,13.982,2.246,15.5a8.6,8.6,0,0,1,2.98,5.863v.188c.113,1.822.305,3.639.563,5.45h0c-.059-.423-.118-.874-.15-1.072-1.4,2.589-4.062,9.2-5.563,20.327a61.085,61.085,0,0,1-1.356,7.08,38.715,38.715,0,0,0-1.136,12.658l.268,3.607a1.136,1.136,0,0,1-.729-.241l1.881,3.446v5.815a21.437,21.437,0,0,1-1.426,7.669c-.134.354-.279.707-.434,1.072a6.238,6.238,0,0,0-.632,3.157c-4.046,6.2-13.323,40.95-13.323,40.95-5.032,11.394.413,18.757.413,18.757s2.637,31.721,3.13,33.361,1.586,20.976,1.586,20.976h0V516.6a3.608,3.608,0,0,0-.916-.263c-4.411-.247-5.606,6.72-5.606,6.72l-9.025,8.618s-4.121-.7-10.182,3.853S245.4,544.226,245.4,544.226Zm90.115-183.333-.027-.1-.247.145h0l-.1.059-.048.032h0l-4.159-14.679a24.373,24.373,0,0,1-.305-12.074l3.216-14.084h0v-3.387l10.22,27.236C344.713,347.715,338.641,356.605,335.511,360.893Z" transform="translate(-127.864 -117.481)" fill="url(#linear-gradient-4)"/>
    <path id="Caminho_237" dataName="Caminho 237" d="M398.529,557a84.4,84.4,0,0,0-5.177,19.668c-.38,3.473-.874,6.613-1.356,9.218a84.235,84.235,0,0,0-1.318,17.83l.08,2.5,1.34,6.629s3.216,21.292-5.665,36.979c0,0-5.263,9.395-5.424,13.843l-3.564,1.377-7.2-2.02s3.478-12.471,2.347-21.212l.648-28.4s-4.679-7.106-4.839-19.968l-2.749-35.3Z" transform="translate(-186.396 -269.284)" fill="#fdc2cc"/>
    <path id="Caminho_238" dataName="Caminho 238" d="M325.415,547.62s-.884,13.762-7.69,23.248-8.253,13.6-8.253,13.6l-8.382,16.946a9.705,9.705,0,0,0-.788,6.34l.825,3.816s4.534,15.381-.08,27.284l-2.187,22.991H286.073s-1.072-19.106-1.538-20.724-3.076-32.948-3.076-32.948-5.359-7.289-.407-18.538c0,0,11.174-42.1,14.164-41.368S325.415,547.62,325.415,547.62Z" transform="translate(-146.161 -264.931)" fill="#fdc2cc"/>
    <g id="Grupo_28" dataName="Grupo 28" transform="translate(151.402 282.689)" opacity="0.1">
      <path id="Caminho_239" dataName="Caminho 239" d="M315.947,611.6l-.82-3.816a9.647,9.647,0,0,1,.782-6.367l8.382-16.962s1.452-4.127,8.253-13.6c6.533-9.111,7.61-22.166,7.685-23.168l1.3-.064s-.884,13.762-7.69,23.248-8.253,13.6-8.253,13.6l-8.382,16.946a9.705,9.705,0,0,0-.788,6.34l.825,3.816s4.534,15.381-.08,27.284l-2.187,22.991h-1.3l2.187-22.991C320.481,626.952,315.947,611.6,315.947,611.6Z" transform="translate(-313.68 -547.62)"/>
    </g>
    <path id="Caminho_240" dataName="Caminho 240" d="M389.3,663.686c.161-4.448,5.424-13.843,5.424-13.843,8.907-15.7,5.665-36.979,5.665-36.979l-1.372-6.635-.08-2.5a84.235,84.235,0,0,1,1.318-17.83c.477-2.6.97-5.745,1.351-9.218a84.386,84.386,0,0,1,5.161-19.625l1.329-.054a84.4,84.4,0,0,0-5.177,19.668c-.38,3.473-.874,6.613-1.356,9.218a84.239,84.239,0,0,0-1.318,17.83l.08,2.5,1.34,6.629s3.216,21.292-5.665,36.979c0,0-5.263,9.395-5.424,13.843l-3.564,1.377-.75-.209Z" transform="translate(-195.961 -269.284)" opacity="0.1"/>
    <path id="Caminho_241" dataName="Caminho 241" d="M377.139,753.965a6.2,6.2,0,0,0,5.9-.729,19.025,19.025,0,0,0-.482,10.686c1.458,5.831-13.6-4.695-13.6-4.695l3.216-7.347S373.414,754.206,377.139,753.965Z" transform="translate(-187.927 -359.724)" fill="#d39999"/>
    <path id="Caminho_242" dataName="Caminho 242" d="M378.268,754.278a6.018,6.018,0,0,0,4.786-1.072,19.026,19.026,0,0,0-.482,10.686c1.458,5.831-13.6-4.695-13.6-4.695l3.216-7.347a4.594,4.594,0,0,0,3.671,2.069C376.687,754.015,377.48,754.128,378.268,754.278Z" transform="translate(-187.937 -359.71)" opacity="0.1"/>
    <path id="Caminho_243" dataName="Caminho 243" d="M289.32,449.854h6.292v-35.7l-4.721-.847Z" transform="translate(-134.273 -191.807)" fill="#fdc2cc"/>
    <path id="Caminho_244" dataName="Caminho 244" d="M289.32,449.854h6.292v-35.7l-4.721-.847Z" transform="translate(-134.273 -191.807)" opacity="0.05"/>
    <path id="Caminho_245" dataName="Caminho 245" d="M364.067,760.355a6.273,6.273,0,0,1,5.745,3.317l2.187,1.7,1.072-2.508a20.9,20.9,0,0,1,2.476,13.521s.322,2.262-3,3.317c0,0-1.7.809-1.3,3.885s-5.986,7.61-14.325,5.745c0,0-7.289.166-8.178-1.538s.568-6.233.568-6.233,3-4.748,4.368-6.5c0,0,3.564-7.342,3.971-10.718S361.961,758.49,364.067,760.355Z" transform="translate(-178.42 -363.36)" fill="#7e5659"/>
    <path id="Caminho_246" dataName="Caminho 246" d="M304.655,761.906l.064-5.032s-7.24,2.085-13.1-.273c0,0,.493,5.059-.322,5.75s2.712,7.2,2.712,7.2l3.939,4.127,6.774-2.465,1.838-5.788S305.137,761.906,304.655,761.906Z" transform="translate(-151.832 -361.914)" fill="#d39999"/>
    <path id="Caminho_247" dataName="Caminho 247" d="M304.655,761.906l.064-5.032s-7.24,2.085-13.1-.273c0,0,.493,5.059-.322,5.75s2.712,7.2,2.712,7.2l3.939,4.127,6.774-2.465,1.838-5.788S305.137,761.906,304.655,761.906Z" transform="translate(-151.832 -361.914)" opacity="0.1"/>
    <path id="Caminho_248" dataName="Caminho 248" d="M267.811,763.094s3.848.445,3.36,5.359.2,0,.2,0,4.089,1.656,5.547,3.966,4.089-2.063,4.287-3.317,1.838-1.774,1.838-1.774,6.431,11.924,5.295,15.2-14.941,4.036-14.941,4.036-2.513-1.415-8.3,3-17.809,1.072-17.809,1.072-9.8-4.089-3.843-8.575,9.995-3.805,9.995-3.805l8.864-8.543S263.48,762.848,267.811,763.094Z" transform="translate(-128.793 -364.925)" fill="#7e5659"/>
    <path id="Caminho_249" dataName="Caminho 249" d="M343.324,236.256c2.449,1.484,4.191,3.9,6.511,5.574,3.3,2.385,7.733,3.274,10.274,6.458,2.144,2.712,2.422,6.5,1.844,9.92s-1.876,6.683-2.5,10.091-.5,7.187,1.527,9.995a2.267,2.267,0,0,0,.981.863,3.215,3.215,0,0,0,1.5,0c3.462-.418,6.785,2.058,8.339,5.182s1.677,6.758,1.517,10.241a21.168,21.168,0,0,1-1.71,8.344c-2.144,4.373-6.6,7.074-11,9.143a85.221,85.221,0,0,1-8.784,3.548,13.219,13.219,0,0,1-6.367.959c-3.66-.632-6.254-3.96-9.727-5.263-2.846-1.072-6-.686-9.03-.418-2.583.225-5.536.22-7.315-1.667-2.283-2.422-1.254-6.329-.086-9.448a6.726,6.726,0,0,1-4.759-11c1.1-1.345,2.867-2.915,2-4.432a2.937,2.937,0,0,0-1.158-1.008c-3.489-1.994-8.3-2.792-9.764-6.533-.943-2.406-.032-5.129,1.163-7.417s2.68-4.529,3.007-7.09c.429-3.623-1.608-7.347-.573-10.842a10.868,10.868,0,0,1,2.513-4,34.492,34.492,0,0,1,11.254-8.248c4.228-1.935,8.468-2.369,12.937-3.312C338.592,235.334,340.811,234.734,343.324,236.256Z" transform="translate(-158.352 -119.986)" fill="#865a61"/>
    <path id="Caminho_250" dataName="Caminho 250" d="M321.324,337.754s-10.252-.536-12.192,8.2,4.207,21.26,4.207,21.26Z" transform="translate(-159.991 -167.534)" fill="#fdc2cc"/>
    <path id="Caminho_251" dataName="Caminho 251" d="M321.324,337.754s-10.252-.536-12.192,8.2,4.207,21.26,4.207,21.26Z" transform="translate(-159.991 -167.534)" opacity="0.05"/>
    <path id="Caminho_252" dataName="Caminho 252" d="M320,345.417l3.885,3.076,18.13.809,11.319-7.771,11.512-19.754a14.231,14.231,0,0,1-10.943-11.2,24.522,24.522,0,0,1-.225-9.357s-18.457-9.555-16.19,5.359a20.257,20.257,0,0,1,.172,5.541c-1.072,8.736-9.55,7.09-9.55,7.09l-3.253,5.016-3.725,12.326Z" transform="translate(-165.211 -149.183)" fill="#fdc2cc"/>
    <path id="Caminho_253" dataName="Caminho 253" d="M352.493,306.554a20.258,20.258,0,0,1,.172,5.541,16.362,16.362,0,0,0,16.244-1.522,24.523,24.523,0,0,1-.225-9.357S350.226,291.661,352.493,306.554Z" transform="translate(-180.2 -149.179)" opacity="0.1"/>
    <circle id="Elipse_31" dataName="Elipse 31" cx="16.351" cy="16.351" r="16.351" transform="translate(162.914 131.045)" fill="#fdc2cc"/>
    <path id="Caminho_254" dataName="Caminho 254" d="M329.433,360.228c.4,0,.788.059,1.179.1,2.144.214,11.1.7,16.2-5.4,5.708-6.817,13.307-15.236,13.618-15.579l7.733,2.337s-6.12-2.176-10.182,9.207a11.79,11.79,0,0,0,3.982,13.564,12.251,12.251,0,0,0,5.059,2.144.027.027,0,0,1,0,.027v4.995h0l-3.162,13.934a24.153,24.153,0,0,0,.3,11.924l4.823,17.048c-.729.5-30.655,20.858-50.645,6.8h0c.075-.611,2.546-20.617.831-30.408a67.622,67.622,0,0,1-.895-7.567v-.188a8.532,8.532,0,0,0-2.931-5.788c-1.8-1.608-4.239-5.9-1.827-17.225a41.618,41.618,0,0,1,2.68-8.162l6.7-15.15h0l6.179.123v.043c-.536.665-7.7,9.614-8.478,15.381C319.84,357.87,318.9,359.552,329.433,360.228Z" transform="translate(-161.733 -167.112)" fill="#32b999"/>
    <path id="Caminho_255" dataName="Caminho 255" d="M400.091,348.328s6.045,5.182,8.419,16.946,7.664,31.3,7.664,31.3,2.144,8.526-5.182,16.946-12.2,15.006-12.2,15.006l-4.823,7.106a6.051,6.051,0,0,1-3.473,2.455c-2.2.579-5.574,1-8.5-.606a4.952,4.952,0,0,1-2.144-6.254l1.072-2.481s-9.931,6.26-10.793,2.8,11.549-6.908,11.549-6.908,10.252-1.726,12.326-6.581c0,0,11.008-14.143,10.145-19L393.52,370.568s-13.3-1.758-8.762-16.694S400.091,348.328,400.091,348.328Z" transform="translate(-188.456 -171.091)" fill="#fdc2cc"/>
    <path id="Caminho_256" dataName="Caminho 256" d="M307.361,516.681s24.288,4.855,30.012,4.207l.616,2.053s9.218,2.063,30.06-1.243q2.042-.322,4.239-.724l.488-.086s.284-1.543.509-4.175a72.4,72.4,0,0,0-3.532-29.39l-3.5-10.793s-21.662,12.985-36,11.79c-1.281-.107-2.551-.209-3.832-.252-2.942-.113-7.5,0-10.467-2.374l-6.217,1.072v17.685a21.19,21.19,0,0,1-1.4,7.567c-.134.354-.273.7-.429,1.072A5.627,5.627,0,0,0,307.361,516.681Z" transform="translate(-159.303 -231.939)" fill="#65617d"/>
    <path id="Caminho_257" dataName="Caminho 257" d="M364.58,552.233v5.5s10.611,2.374,34.787-2.053c0,0,.284-1.543.509-4.175C392.459,552.7,372,555.562,364.58,552.233Z" transform="translate(-185.899 -266.736)" opacity="0.1"/>
    <path id="Caminho_258" dataName="Caminho 258" d="M307.364,547.431s24.288,4.855,30.012,4.207l.616,2.053v-5.5c-2.765,1.147-22.509-3.612-29.663-5.4-.134.354-.273.7-.429,1.072a5.627,5.627,0,0,0-.536,3.569Z" transform="translate(-159.305 -262.689)" opacity="0.1"/>
    <path id="Caminho_259" dataName="Caminho 259" d="M417.31,537.011l1.8,11.169q2.042-.322,4.239-.723c-.563-3.264-1.79-10.718-1.452-11.956l-2.267-1.94Z" transform="translate(-210.37 -258.406)" fill="#65617d"/>
    <path id="Caminho_260" dataName="Caminho 260" d="M417.78,536.561l1.8,11.174q2.042-.327,4.239-.724c-.563-3.264-1.79-10.718-1.452-11.956L420.1,533.11Z" transform="translate(-210.588 -258.197)" opacity="0.1"/>
    <g id="Grupo_29" dataName="Grupo 29" transform="translate(155.599 244.575)" opacity="0.05">
      <path id="Caminho_261" dataName="Caminho 261" d="M335.551,496.246c-1.275-.107-2.551-.209-3.832-.252-2.862-.107-7.23,0-10.209-2.192l1.04-.182c2.98,2.363,7.5,2.262,10.467,2.374,1.281.043,2.551.145,3.832.252.418.038.847.059,1.281.07a24.044,24.044,0,0,1-2.578-.07Z" transform="translate(-321.51 -484.445)"/>
      <path id="Caminho_262" dataName="Caminho 262" d="M400.443,521.683q2.042-.322,4.239-.718l.493-.091s.284-1.543.5-4.175a72.21,72.21,0,0,0-3.532-29.39l-3.3-10.182c.7-.4,1.072-.627,1.072-.627l3.5,10.793a72.4,72.4,0,0,1,3.532,29.39c-.225,2.631-.509,4.175-.509,4.175l-.488.091q-2.192.4-4.239.718a133.494,133.494,0,0,1-21.839,1.876A137.731,137.731,0,0,0,400.443,521.683Z" transform="translate(-348.598 -476.5)"/>
      <path id="Caminho_263" dataName="Caminho 263" d="M360.4,559.3v.059h-.7Q360.1,559.332,360.4,559.3Z" transform="translate(-339.233 -514.926)"/>
    </g>
    <ellipse id="Elipse_32" dataName="Elipse 32" cx="0.916" cy="1.886" rx="0.916" ry="1.886" transform="translate(209.041 276.917)" fill="#d39999"/>
    <path id="Caminho_264" dataName="Caminho 264" d="M311.591,451.71c1.479-10.986,4.089-17.514,5.466-20.07.054.348.193,1.479.257,1.827a53.074,53.074,0,0,1,.118,5.675l-1.372,24.845,1.838,7.771c1.726,6.152-4.668,1.292-4.668,1.292-1.324,2.915-3.751,2.594-3.751,2.594l-.332-4.459a38.512,38.512,0,0,1,1.115-12.5,59.578,59.578,0,0,0,1.329-6.972Z" transform="translate(-160.124 -211.107)" fill="#fdc2cc"/>
    <path id="Caminho_265" dataName="Caminho 265" d="M311.591,451.71c1.479-10.986,4.089-17.514,5.466-20.07.054.348.193,1.479.257,1.827a53.074,53.074,0,0,1,.118,5.675l-1.372,24.845,1.838,7.771c1.726,6.152-4.668,1.292-4.668,1.292-1.324,2.915-3.751,2.594-3.751,2.594l-.332-4.459a38.512,38.512,0,0,1,1.115-12.5,59.578,59.578,0,0,0,1.329-6.972Z" transform="translate(-160.124 -211.107)" opacity="0.05"/>
    <path id="Caminho_266" dataName="Caminho 266" d="M402.164,484.568c-1.163,1.506-1.8,2.369-1.8,2.369l-4.823,7.1a6.024,6.024,0,0,1-3.473,2.455c-2.2.579-5.574,1-8.5-.606a4.941,4.941,0,0,1-2.144-6.249l1.072-2.487s-9.931,6.26-10.793,2.808,11.549-6.908,11.549-6.908,10.252-1.726,12.326-6.586c0,0,.9-1.147,2.144-2.9" transform="translate(-189.185 -230.561)" fill="#fdc2cc"/>
    <path id="Caminho_267" dataName="Caminho 267" d="M402.446,509.507s-11.742-1.142-15.461-7.857l-1.7,5.547s12.326,8.51,15.14,7.406Z" transform="translate(-195.506 -243.597)" fill="#65617d"/>
    <path id="Caminho_268" dataName="Caminho 268" d="M401.67,509.4s-11.737-1.142-15.461-7.862l-1.7,5.531s12.326,8.51,15.134,7.406Z" transform="translate(-195.148 -243.546)" opacity="0.1"/>
    <path id="Caminho_269" dataName="Caminho 269" d="M313.32,510.46s-4.111,1.458-4.92.648l1.849,3.4,3.494-2.68Z" transform="translate(-159.827 -247.686)" fill="#65617d"/>
    <path id="Caminho_270" dataName="Caminho 270" d="M313.32,510.46s-4.111,1.458-4.92.648l1.849,3.4,3.494-2.68Z" transform="translate(-159.827 -247.686)" opacity="0.1"/>
    <path id="Caminho_271" dataName="Caminho 271" d="M331.958,526.571v-7.1l-1.688,7.272Z" transform="translate(-153.277 -241.073)" opacity="0.1"/>
    <path id="Caminho_272" dataName="Caminho 272" d="M363.529,265.744a6.307,6.307,0,0,1-4.405,2.321,34.719,34.719,0,0,1-5.118,0,12.836,12.836,0,0,0-7.723,1.945,19.633,19.633,0,0,0-3.542,3.751c-3.312,4.046-7.91,7.835-13.13,7.412a3.4,3.4,0,0,1-2.439-1.029,3.912,3.912,0,0,1-.621-2.219,50.718,50.718,0,0,1,.316-10,21.084,21.084,0,0,1,1.511-5.965,20.365,20.365,0,0,1,3.634-5.188,22.224,22.224,0,0,1,6.34-5.081,11.372,11.372,0,0,1,7.932-1.024c3.124.852,5.557,3.3,8.537,4.555C358.224,256.655,367.259,260.476,363.529,265.744Z" transform="translate(-168.198 -126.982)" opacity="0.1"/>
    <path id="Caminho_273" dataName="Caminho 273" d="M363.529,264.529a6.307,6.307,0,0,1-4.405,2.321,34.719,34.719,0,0,1-5.118,0,12.8,12.8,0,0,0-7.723,1.94,19.636,19.636,0,0,0-3.542,3.751c-3.312,4.046-7.91,7.835-13.13,7.412a3.382,3.382,0,0,1-2.438-1.029,3.9,3.9,0,0,1-.622-2.219,50.718,50.718,0,0,1,.316-10,21.083,21.083,0,0,1,1.511-5.965,20.226,20.226,0,0,1,3.634-5.182,22.149,22.149,0,0,1,6.34-5.086,11.372,11.372,0,0,1,7.932-1.024c3.124.852,5.558,3.3,8.537,4.555C358.224,255.44,367.259,259.25,363.529,264.529Z" transform="translate(-168.198 -126.415)" fill="#865a61"/>
    <path id="Caminho_274" dataName="Caminho 274" d="M291.882,473.47l-.043,1.956-.439-1.87Z" transform="translate(-135.239 -219.726)" fill="#fdc2cc"/>
    <path id="Caminho_275" dataName="Caminho 275" d="M291.882,473.47l-.043,1.956-.439-1.87Z" transform="translate(-135.239 -219.726)" opacity="0.05"/>
    <g id="Grupo_30" dataName="Grupo 30" transform="translate(195.082 174.782)" opacity="0.05">
      <path id="Caminho_276" dataName="Caminho 276" d="M398.076,353.248c-4.539,14.936,8.693,16.689,8.693,16.689L417.4,398.431c.863,4.855-10.15,19-10.15,19-.766,1.811-2.68,3.189-4.77,4.207a7.471,7.471,0,0,0,2.83-3.108s11.008-14.138,10.145-18.993l-10.633-28.5s-13.227-1.752-8.693-16.689c1.517-4.989,3.751-7.262,6.013-8.076C400.584,347.524,399.153,349.695,398.076,353.248Z" transform="translate(-395.184 -346.27)"/>
    </g>
    <g id="Grupo_31" dataName="Grupo 31" transform="translate(150.811 169.723)" opacity="0.1">
      <path id="Caminho_277" dataName="Caminho 277" d="M401,384.61a11.17,11.17,0,0,0,2.144,2.031,12.182,12.182,0,0,0,5.059,2.144v.563a12.144,12.144,0,0,1-4.587-2.031A11.121,11.121,0,0,1,401,384.61Z" transform="translate(-353.612 -359.004)"/>
      <path id="Caminho_278" dataName="Caminho 278" d="M322.623,420.41v.188a69.218,69.218,0,0,0,.922,7.594c1.608,9.239-.5,27.584-.8,30.119-.171-.113-.343-.22-.536-.343.08-.611,2.551-20.617.836-30.4a67.9,67.9,0,0,1-.9-7.567v-.188a8.269,8.269,0,0,0-1.442-4.1,8.334,8.334,0,0,1,1.913,4.7Z" transform="translate(-316.352 -373.437)"/>
      <path id="Caminho_279" dataName="Caminho 279" d="M328.715,337.564l-5.241-.1a.027.027,0,0,0-.027,0l-6.7,15.145a41.757,41.757,0,0,0-2.68,8.162c-1.951,9.164-.724,13.73.766,15.987-1.677-1.978-3.408-6.485-1.249-16.614a41.313,41.313,0,0,1,2.653-8.167l6.747-15.145h0l6.179.123v.038C329.117,337.055,328.951,337.259,328.715,337.564Z" transform="translate(-312.577 -336.83)"/>
      <path id="Caminho_280" dataName="Caminho 280" d="M416.39,345.87l.091.027Z" transform="translate(-360.755 -341.025)"/>
      <path id="Caminho_281" dataName="Caminho 281" d="M373.655,343.779,368.4,342.2h-.027c-.311.343-7.9,8.762-13.612,15.579-5.1,6.093-14.046,5.616-16.2,5.4-.391-.043-.788-.075-1.179-.1-5.858-.375-8.162-1.072-8.934-2.551,1.1,1.072,3.516,1.608,8.446,1.908.4,0,.788.059,1.179.1,2.144.214,11.1.691,16.2-5.4,5.708-6.822,13.307-15.242,13.618-15.585h0l7.642,2.315A4.774,4.774,0,0,0,373.655,343.779Z" transform="translate(-319.944 -339.02)"/>
    </g>
    <path id="Caminho_282" dataName="Caminho 282" d="M289.127,776.632s-7.4,2.02-8.827-1.152" transform="translate(-146.787 -370.676)" opacity="0.1"/>
    <path id="Caminho_283" dataName="Caminho 283" d="M375.238,773.751s-8.575,2.213-10.558-1.211" transform="translate(-185.946 -369.311)" opacity="0.1"/>
    <path id="Caminho_284" dataName="Caminho 284" d="M564.905,752.828c.123-1.072.3-2.144.493-3.216a22.412,22.412,0,0,0-1.072-10.868h0c-.2-.563-.343-.879-.343-.879-3.414-.932-16.871,9.507-21.774,13.441-1.7,0-3.542.075-5.557.209-.879.064-1.758.086-2.637.07H530.8c-4.55-3.666-18.634-14.69-22.139-13.736,0,0-.145.316-.343.879h0a22.022,22.022,0,0,0-1.1,10.869c.193,1.072.37,2.144.493,3.216.263,2.353,1.249,6.87,4.823,9.92.766,5.574,3.634,12.9,5.842,17.348a12.424,12.424,0,0,0,.75,2.449c-.911,3.516-1.961,8.1-1.661,9.646,0,0-4.759-1.152-5.241,4.577v.177c-1.72.788-3.869,2.594-1.452,6.377a2.482,2.482,0,0,0,1.243,1.013c.429.15.847.15.8-.45l2.974,3.349s5.391.622,5.456-2.508l.316.048c.724.107,1.479.2,2.256.279l.375,1.238s-4.046-.086-2.942,2.406c0,0,1.018.943,1.367.6,0,0-.536,1.635,1.576,1.635,0,0,2.267,1.2,3.151.343s2.717-2.144,2.889-2.68c.048-.145.07-1.415.08-3.173h.348c4.518.107,9.314-.037,13.677-.273h.354c0,1.9.027,3.307.075,3.457.177.536,2.015,1.806,2.894,2.68s3.146-.343,3.146-.343c2.1,0,1.576-1.635,1.576-1.635.354.343,1.372-.6,1.372-.6,1.1-2.492-2.948-2.406-2.948-2.406l.482-1.608,2.235-.187.354-.032c-.214,3.4,5.45,2.749,5.45,2.749l2.98-3.349c-.048.6.37.6.8.45a2.459,2.459,0,0,0,1.206-1.024c3.65-5.708-3.092-6.919-3.092-6.919a3.305,3.305,0,0,0-.638-.1,1.1,1.1,0,0,1,.027-.295h0a11.766,11.766,0,0,0,.043-2.262,4.975,4.975,0,0,0-4.014-2.921c-1.372-.171-1.4-6.474-1.259-10.842a12.471,12.471,0,0,0,.214-2.487,13.116,13.116,0,0,0-.536-3.982c2.68-4.545,4.823-9.309,5.064-10.718C563.656,759.683,564.642,755.181,564.905,752.828Z" transform="translate(-251.966 -353.185)" fill="url(#linear-gradient-5)"/>
    <path id="Caminho_285" dataName="Caminho 285" d="M564.981,829.873h0c-.214,2.969-.788,7.733-.788,7.733s-2.385.289-6.072.622l-2.5.214c-1.919.155-4.073.305-6.351.434-4.207.23-8.827.375-13.184.268-2.176-.048-4.287-.161-6.243-.354-.874-.086-1.72-.187-2.524-.305-4.995-.745-8.575-2.171-8.88-4.673a14.47,14.47,0,0,1-.113-3.216c.466-5.627,5.048-4.491,5.048-4.491-.295-1.554.815-6.383,1.715-9.877.568-2.2,1.072-3.875,1.072-3.875l32.22-2.144h.107a1.576,1.576,0,0,1,1.576,1.656c-.193,3.864-.466,12.712,1.115,12.91a4.857,4.857,0,0,1,3.875,2.867A12.026,12.026,0,0,1,564.981,829.873Z" transform="translate(-257.229 -386.793)" fill="#b07473"/>
    <path id="Caminho_286" dataName="Caminho 286" d="M533.242,755.045s-12.149,14.625-18,10.574c-.139-.1-.273-.193-.4-.295-3.934-2.98-4.968-7.782-5.241-10.22-.118-1.072-.289-2.106-.477-3.151a21.883,21.883,0,0,1,1.072-10.67h0c.193-.536.327-.863.327-.863C514.565,739.295,533.242,755.045,533.242,755.045Z" transform="translate(-252.854 -354.379)" fill="#9e6665"/>
    <path id="Caminho_287" dataName="Caminho 287" d="M526.691,757.193s-3.826,2.68-9.223,7.085a19.487,19.487,0,0,1-2.68,1.844c-3.934-2.98-4.968-7.781-5.241-10.22-.118-1.072-.289-2.106-.477-3.151a21.882,21.882,0,0,1,1.072-10.67h0C517.709,742.605,526.691,757.193,526.691,757.193Z" transform="translate(-252.831 -355.176)" fill="#6c63ff"/>
    <path id="Caminho_288" dataName="Caminho 288" d="M526.691,757.193s-3.826,2.68-9.223,7.085a19.487,19.487,0,0,1-2.68,1.844c-3.934-2.98-4.968-7.781-5.241-10.22-.118-1.072-.289-2.106-.477-3.151a21.882,21.882,0,0,1,1.072-10.67h0C517.709,742.605,526.691,757.193,526.691,757.193Z" transform="translate(-252.831 -355.176)" fill="#fff" opacity="0.5"/>
    <path id="Caminho_289" dataName="Caminho 289" d="M526.176,760.606s-2.042,1.442-4.925,3.784a10.372,10.372,0,0,1-1.415.981,7.889,7.889,0,0,1-2.8-5.45c-.059-.568-.15-1.125-.252-1.688a11.716,11.716,0,0,1,.595-5.692h0C521.385,752.819,526.176,760.606,526.176,760.606Z" transform="translate(-256.48 -360.03)" opacity="0.1"/>
    <path id="Caminho_290" dataName="Caminho 290" d="M569.05,755.045s12.149,14.625,18,10.574c.134-.1.273-.193.4-.295,3.934-2.98,4.968-7.782,5.241-10.22.118-1.072.289-2.106.472-3.151a21.817,21.817,0,0,0-1.072-10.67h0c-.193-.536-.332-.863-.332-.863C587.727,739.295,569.05,755.045,569.05,755.045Z" transform="translate(-280.79 -354.379)" fill="#9e6665"/>
    <path id="Caminho_291" dataName="Caminho 291" d="M581.22,757.193s3.832,2.68,9.229,7.085a19.485,19.485,0,0,0,2.653,1.844c3.934-2.98,4.968-7.781,5.241-10.22.118-1.072.289-2.106.472-3.151a21.818,21.818,0,0,0-1.072-10.67h0C590.213,742.605,581.22,757.193,581.22,757.193Z" transform="translate(-286.437 -355.176)" fill="#6c63ff"/>
    <path id="Caminho_292" dataName="Caminho 292" d="M581.22,757.193s3.832,2.68,9.229,7.085a19.485,19.485,0,0,0,2.653,1.844c3.934-2.98,4.968-7.781,5.241-10.22.118-1.072.289-2.106.472-3.151a21.818,21.818,0,0,0-1.072-10.67h0C590.213,742.605,581.22,757.193,581.22,757.193Z" transform="translate(-286.437 -355.176)" fill="#fff" opacity="0.5"/>
    <path id="Caminho_293" dataName="Caminho 293" d="M589.05,760.618s2.031,1.436,4.893,3.751a9.807,9.807,0,0,0,1.409.975,7.915,7.915,0,0,0,2.781-5.418c.059-.536.15-1.12.252-1.677a11.738,11.738,0,0,0-.563-5.659h0C593.814,752.879,589.05,760.618,589.05,760.618Z" transform="translate(-290.071 -360.053)" opacity="0.1"/>
    <path id="Caminho_294" dataName="Caminho 294" d="M564.259,810.23a29.1,29.1,0,0,1-4.652,5.927c-4.823,4.287-25.649,2.583-27,2.363-.284-.048-.874-.89-1.608-2.256.568-2.2,1.072-3.875,1.072-3.875Z" transform="translate(-263.131 -386.803)" opacity="0.1"/>
    <path id="Caminho_295" dataName="Caminho 295" d="M542.007,765.287c-.847.059-1.694.08-2.546.064-4.346-.075-18.988.118-20.612,6.029-1.913,6.967,6.64,25.622,7.985,25.847s22.166,1.913,27.005-2.363,11.136-17.685,10.8-18.9C564.639,775.963,570.641,763.3,542.007,765.287Z" transform="translate(-257.364 -365.848)" fill="#b07473"/>
    <path id="Caminho_296" dataName="Caminho 296" d="M546.664,786.469a15.374,15.374,0,0,0-15.745,8.9,12.862,12.862,0,0,0,.949,12.964c1.672,2.353,4.127,4.105,7.54,2.68C547,807.884,546.664,786.469,546.664,786.469Z" transform="translate(-262.482 -375.732)" opacity="0.1"/>
    <path id="Caminho_297" dataName="Caminho 297" d="M546.034,785.209a15.374,15.374,0,0,0-15.745,8.9,12.862,12.862,0,0,0,.949,12.964c1.672,2.353,4.127,4.105,7.54,2.68C546.366,806.624,546.034,785.209,546.034,785.209Z" transform="translate(-262.189 -375.147)" opacity="0.1"/>
    <path id="Caminho_298" dataName="Caminho 298" d="M546.034,785.839a15.374,15.374,0,0,0-15.745,8.9,12.862,12.862,0,0,0,.949,12.964c1.672,2.353,4.127,4.105,7.54,2.68C546.366,807.254,546.034,785.839,546.034,785.839Z" transform="translate(-262.189 -375.44)" fill="#6c63ff"/>
    <path id="Caminho_299" dataName="Caminho 299" d="M546.034,785.839a15.374,15.374,0,0,0-15.745,8.9,12.862,12.862,0,0,0,.949,12.964c1.672,2.353,4.127,4.105,7.54,2.68C546.366,807.254,546.034,785.839,546.034,785.839Z" transform="translate(-262.189 -375.44)" fill="#fff" opacity="0.5"/>
    <path id="Caminho_300" dataName="Caminho 300" d="M538.349,803.13s-1.463,1.35-.9,1.688S538.349,803.13,538.349,803.13Z" transform="translate(-266.064 -383.508)" fill="#3f2b3b"/>
    <path id="Caminho_301" dataName="Caminho 301" d="M541.8,806.35s-.8,1.763-.23,1.956.906-1.265.906-1.265Z" transform="translate(-267.944 -385.002)" fill="#3f2b3b"/>
    <path id="Caminho_302" dataName="Caminho 302" d="M535.289,811.32s-.782,2.079,0,2.079S535.289,811.32,535.289,811.32Z" transform="translate(-264.96 -387.308)" fill="#3f2b3b"/>
    <path id="Caminho_303" dataName="Caminho 303" d="M533.78,821.71s1.565,4,5.638,3.714" transform="translate(-264.422 -392.13)" fill="none" stroke="#3f2b3b" stroke-miterlimit="10" stroke-width="1"/>
    <path id="Caminho_304" dataName="Caminho 304" d="M540.61,823.91a2.82,2.82,0,0,0,3.371.45" transform="translate(-267.591 -393.151)" fill="none" stroke="#3f2b3b" stroke-miterlimit="10" stroke-width="1"/>
    <path id="Caminho_305" dataName="Caminho 305" d="M564,786.469a15.374,15.374,0,0,1,15.745,8.9,12.862,12.862,0,0,1-.949,12.964c-1.667,2.353-4.127,4.105-7.54,2.68C563.644,807.884,564,786.469,564,786.469Z" transform="translate(-278.444 -375.732)" opacity="0.1"/>
    <path id="Caminho_306" dataName="Caminho 306" d="M564.588,785.209a15.374,15.374,0,0,1,15.745,8.9,12.862,12.862,0,0,1-.949,12.964c-1.667,2.353-4.127,4.105-7.54,2.68C564.272,806.624,564.588,785.209,564.588,785.209Z" transform="translate(-278.718 -375.147)" opacity="0.1"/>
    <path id="Caminho_307" dataName="Caminho 307" d="M564.588,785.839a15.374,15.374,0,0,1,15.745,8.9,12.862,12.862,0,0,1-.949,12.964c-1.667,2.353-4.127,4.105-7.54,2.68C564.272,807.254,564.588,785.839,564.588,785.839Z" transform="translate(-278.718 -375.44)" fill="#6c63ff"/>
    <path id="Caminho_308" dataName="Caminho 308" d="M564.588,785.839a15.374,15.374,0,0,1,15.745,8.9,12.862,12.862,0,0,1-.949,12.964c-1.667,2.353-4.127,4.105-7.54,2.68C564.272,807.254,564.588,785.839,564.588,785.839Z" transform="translate(-278.718 -375.44)" fill="#fff" opacity="0.5"/>
    <path id="Caminho_309" dataName="Caminho 309" d="M586.16,803.13s1.463,1.35.9,1.688S586.16,803.13,586.16,803.13Z" transform="translate(-288.73 -383.508)" fill="#3f2b3b"/>
    <path id="Caminho_310" dataName="Caminho 310" d="M582.635,806.35s.8,1.763.23,1.956-.906-1.265-.906-1.265Z" transform="translate(-286.781 -385.002)" fill="#3f2b3b"/>
    <path id="Caminho_311" dataName="Caminho 311" d="M589.521,811.32s.777,2.079,0,2.079S589.521,811.32,589.521,811.32Z" transform="translate(-290.129 -387.308)" fill="#3f2b3b"/>
    <path id="Caminho_312" dataName="Caminho 312" d="M586.738,821.71s-1.565,4-5.638,3.714" transform="translate(-286.382 -392.13)" fill="none" stroke="#3f2b3b" stroke-miterlimit="10" stroke-width="1"/>
    <path id="Caminho_313" dataName="Caminho 313" d="M581.876,823.91a2.826,2.826,0,0,1-3.376.45" transform="translate(-285.175 -393.151)" fill="none" stroke="#3f2b3b" stroke-miterlimit="10" stroke-width="1"/>
    <path id="Caminho_314" dataName="Caminho 314" d="M553.2,841.99c.284-.054,5.627-2.363,11.136,0Z" transform="translate(-273.434 -401.049)" fill="#3f2b3b"/>
    <path id="Caminho_315" dataName="Caminho 315" d="M527.316,855.47c-4.995-.745-8.575-2.17-8.88-4.673a14.469,14.469,0,0,1-.113-3.215,7.212,7.212,0,0,1,1.908-.7c.906-.252,2.026-.08,4.389.595s2.192,3.457,2.68,7.085A3,3,0,0,1,527.316,855.47Z" transform="translate(-257.229 -403.762)" opacity="0.1"/>
    <path id="Caminho_316" dataName="Caminho 316" d="M517.806,847.538s-6.5,1.19-2.98,6.8a2.4,2.4,0,0,0,1.2.991c.413.145.809.145.766-.445l2.873,3.291s5.734.675,5.231-2.953-.338-6.431-2.68-7.085S518.723,847.286,517.806,847.538Z" transform="translate(-255.141 -404.067)" fill="#b07473"/>
    <path id="Caminho_317" dataName="Caminho 317" d="M524.18,854.67s1.377,3.146,3.291.5" transform="translate(-259.966 -407.426)" fill="none" stroke="#3f2b3b" stroke-miterlimit="10" stroke-width="1"/>
    <path id="Caminho_318" dataName="Caminho 318" d="M518.28,857s.713,2.98,3.414.761" transform="translate(-257.228 -408.508)" fill="none" stroke="#3f2b3b" stroke-miterlimit="10" stroke-width="1"/>
    <path id="Caminho_319" dataName="Caminho 319" d="M599.466,846.854h0c-.214,2.969-.788,7.733-.788,7.733s-2.385.289-6.072.622a3.107,3.107,0,0,1,0-.622c.5-3.628.338-6.431,2.68-7.085C597.483,846.907,598.6,846.687,599.466,846.854Z" transform="translate(-291.714 -403.774)" opacity="0.1"/>
    <path id="Caminho_320" dataName="Caminho 320" d="M600.357,847.538s6.5,1.19,2.985,6.8a2.417,2.417,0,0,1-1.2.991c-.413.145-.815.145-.772-.445L598.5,858.17s-5.74.675-5.231-2.953.338-6.431,2.68-7.085S599.457,847.286,600.357,847.538Z" transform="translate(-292.016 -404.067)" fill="#b07473"/>
    <path id="Caminho_321" dataName="Caminho 321" d="M600.791,854.67s-1.383,3.146-3.291.5" transform="translate(-293.993 -407.426)" fill="none" stroke="#3f2b3b" stroke-miterlimit="10" stroke-width="1"/>
    <path id="Caminho_322" dataName="Caminho 322" d="M606.579,857s-.718,2.98-3.419.761" transform="translate(-296.619 -408.508)" fill="none" stroke="#3f2b3b" stroke-miterlimit="10" stroke-width="1"/>
    <path id="Caminho_323" dataName="Caminho 323" d="M544.256,853.694c-2.176-.048-4.287-.161-6.243-.354l-1.945-6.549a4.252,4.252,0,0,1-.177-1.2,4.169,4.169,0,0,1,8.334-.027C544.245,848.121,544.266,851.352,544.256,853.694Z" transform="translate(-265.401 -401.343)" opacity="0.1"/>
    <path id="Caminho_324" dataName="Caminho 324" d="M534.961,846.67l2.294,7.728s-3.9-.086-2.835,2.363c0,0,.981.927,1.318.589,0,0-.509,1.608,1.517,1.608,0,0,2.187,1.184,3.033.338s2.621-2.112,2.792-2.615c.107-.332.075-6.8.037-11.254a4.159,4.159,0,0,0-4.164-4.127h0a4.164,4.164,0,0,0-3.993,5.37Z" transform="translate(-264.633 -401.221)" fill="#b07473"/>
    <path id="Caminho_325" dataName="Caminho 325" d="M540.447,869.47s-1.7,1.608-.8,2.556" transform="translate(-267.02 -414.295)" fill="none" stroke="#3f2b3b" stroke-miterlimit="10" stroke-width="1"/>
    <path id="Caminho_326" dataName="Caminho 326" d="M538.636,867.56a2.314,2.314,0,0,0-1.576,1.978" transform="translate(-265.944 -413.408)" fill="none" stroke="#3f2b3b" stroke-miterlimit="10" stroke-width="1"/>
    <path id="Caminho_327" dataName="Caminho 327" d="M584.489,845.473a4.24,4.24,0,0,1-.172,1.2l-1.817,6.2c-1.919.155-4.073.305-6.351.434,0-2.315,0-5.4.037-7.857a4.164,4.164,0,0,1,8.328.027Z" transform="translate(-284.085 -401.219)" opacity="0.1"/>
    <path id="Caminho_328" dataName="Caminho 328" d="M584.911,846.67l-2.294,7.728s3.907-.086,2.84,2.363c0,0-.981.927-1.318.589,0,0,.5,1.608-1.522,1.608,0,0-2.187,1.184-3.033.338s-2.615-2.112-2.787-2.615c-.107-.332-.075-6.8-.037-11.254a4.159,4.159,0,0,1,4.164-4.127h0a4.164,4.164,0,0,1,3.987,5.37Z" transform="translate(-284.351 -401.221)" fill="#b07473"/>
    <path id="Caminho_329" dataName="Caminho 329" d="M586.23,869.47s1.7,1.608.8,2.556" transform="translate(-288.762 -414.295)" fill="none" stroke="#3f2b3b" stroke-miterlimit="10" stroke-width="1"/>
    <path id="Caminho_330" dataName="Caminho 330" d="M587.63,867.56a2.314,2.314,0,0,1,1.576,1.978" transform="translate(-289.412 -413.408)" fill="none" stroke="#3f2b3b" stroke-miterlimit="10" stroke-width="1"/>
    <path id="Caminho_331" dataName="Caminho 331" d="M553.726,782.769s-7.937-.252-8.189,5.9,12.4,3.542,12.4,3.542,5.316-.713,4.389-4.448S559.465,783.106,553.726,782.769Z" transform="translate(-269.876 -374.058)" opacity="0.1"/>
    <path id="Caminho_332" dataName="Caminho 332" d="M553.726,781.509s-7.937-.252-8.189,5.9,12.4,3.542,12.4,3.542,5.316-.713,4.389-4.448S559.465,781.846,553.726,781.509Z" transform="translate(-269.876 -373.473)" opacity="0.1"/>
    <path id="Caminho_333" dataName="Caminho 333" d="M553.726,782.139s-7.937-.252-8.189,5.9,12.4,3.542,12.4,3.542,5.316-.713,4.389-4.448S559.465,782.476,553.726,782.139Z" transform="translate(-269.876 -373.765)" fill="#3f2b3b"/>
    <path id="Caminho_334" dataName="Caminho 334" d="M527.78,839.92s2.68.954,3.216,2.781" transform="translate(-261.637 -400.581)" opacity="0.1"/>
    <path id="Caminho_335" dataName="Caminho 335" d="M596.743,837.4s-1.9.8-1.768,4.132" transform="translate(-292.817 -399.412)" opacity="0.1"/>
    <ellipse id="Elipse_33" dataName="Elipse 33" cx="1.242" cy="2.06" rx="1.242" ry="2.06" transform="translate(265.167 452.104) rotate(-29.887)" fill="#6c63ff"/>
    <ellipse id="Elipse_34" dataName="Elipse 34" cx="2.053" cy="1.238" rx="2.053" ry="1.238" transform="translate(302.887 452.588) rotate(-60)" fill="#6c63ff"/>
    <ellipse id="Elipse_35" dataName="Elipse 35" cx="1.242" cy="2.06" rx="1.242" ry="2.06" transform="translate(265.167 452.104) rotate(-29.887)" fill="#fff" opacity="0.5"/>
    <ellipse id="Elipse_36" dataName="Elipse 36" cx="2.053" cy="1.238" rx="2.053" ry="1.238" transform="translate(302.887 452.588) rotate(-60)" fill="#fff" opacity="0.5"/>
    <ellipse id="Elipse_37" dataName="Elipse 37" cx="14.432" cy="2.438" rx="14.432" ry="2.438" transform="translate(88.78 381.315)" fill="#6c63ff" opacity="0.1"/>
    <ellipse id="Elipse_38" dataName="Elipse 38" cx="14.432" cy="2.438" rx="14.432" ry="2.438" transform="translate(31.924 415.898)" fill="#6c63ff" opacity="0.1"/>
    <ellipse id="Elipse_39" dataName="Elipse 39" cx="21.549" cy="3.644" rx="21.549" ry="3.644" transform="translate(9.78 383.753)" fill="#32b999"/>
    <path id="Caminho_336" dataName="Caminho 336" d="M71.161,723.281a6.233,6.233,0,0,1-2.058-3.1,2.762,2.762,0,0,1,1.436-3.157c1.318-.5,2.728.407,3.794,1.329s2.294,1.978,3.692,1.785a5.622,5.622,0,0,1-1.736-5.263,2.144,2.144,0,0,1,.482-1.072c.729-.782,2.058-.445,2.937.172,2.781,1.961,3.564,5.745,3.575,9.154a16.882,16.882,0,0,0,.054-3.751,3.859,3.859,0,0,1,1.415-3.333,4.288,4.288,0,0,1,2.144-.536,4.483,4.483,0,0,1,3.5,1c1.072,1.136.788,3.049-.139,4.287a14.012,14.012,0,0,1-3.623,2.9,8,8,0,0,0-2.594,2.471,2.527,2.527,0,0,0-.193.44h-7.83a21.671,21.671,0,0,1-4.861-3.328Z" transform="translate(-48.744 -341.843)" fill="#32b999"/>
    <ellipse id="Elipse_40" dataName="Elipse 40" cx="14.432" cy="2.438" rx="14.432" ry="2.438" transform="translate(537.469 401.712)" fill="#6c63ff" opacity="0.1"/>
    <path id="Caminho_337" dataName="Caminho 337" d="M1042.91,749.259s8.232-.252,10.718-2.02,12.658-3.875,13.275-1.04,12.374,14.089,3.076,14.164-21.592-1.447-24.068-2.958S1042.91,749.259,1042.91,749.259Z" transform="translate(-500.698 -356.443)" fill="#a8a8a8"/>
    <path id="Caminho_338" dataName="Caminho 338" d="M1070.14,763.229c-9.293.075-21.592-1.447-24.068-2.958-1.886-1.147-2.637-5.268-2.889-7.171h-.273s.536,6.64,3,8.146,14.775,3.033,24.068,2.958c2.68,0,3.612-.975,3.558-2.39C1073.163,762.693,1072.139,763.229,1070.14,763.229Z" transform="translate(-500.698 -360.29)" opacity="0.2"/>
  </g>
</svg>
