<svg xmlns="http://www.w3.org/2000/svg" width="352.743" height="424.551" viewBox="0 0 352.743 424.551">
  <g id="Technology" transform="translate(0 0)">
    <path id="Caminho_72" dataName="Caminho 72" d="M301.881,496.245l-4.222,24.682s.974,23.058,8.769,22.409,0-24.033,0-24.033l7.47-20.46Z" transform="translate(-297.659 -256.992)" fill="#ffb9b9"/>
    <path id="Caminho_73" dataName="Caminho 73" d="M318.443,413.62l-2.923,36.7-13.965-1.949,4.871-30.528V391.536l5.521-5.521Z" transform="translate(-299.283 -211.065)" fill="#e6e6e6"/>
    <path id="Caminho_74" dataName="Caminho 74" d="M4.083,411.108l14.29,2.6.65-6.82-16.238-.649Z" transform="translate(-1.16 -169.258)" fill="#3f3d56"/>
    <path id="Caminho_75" dataName="Caminho 75" d="M43.7,241.726l1.462,11.2,1.461,11.2,19.811-2.923-1.949-19.486Z" transform="translate(-18.208 -100.715)" fill="#ffb9b9"/>
    <path id="Caminho_76" dataName="Caminho 76" d="M421.9,486.781l-4.547,17.537-3.9,6.171s2.923,11.691,5.846,11.367,4.871-11.367,4.871-11.367l11.042-23.708Z" transform="translate(-345.906 -253.049)" fill="#ffb9b9"/>
    <path id="Caminho_77" dataName="Caminho 77" d="M328.926,509.606s-2.273,11.042-7.47,15.913,12.016,134.127,12.016,134.127,12.016,3.9,17.862,4.547,2.273-68.525,2.273-68.525V576.832S365.3,651.2,365.3,652.177v4.872l5.846,6.17s10.068-2.6,11.691,0,5.846,2.923,7.145,3.9-7.469-135.1-7.469-135.1l-9.093-14.29Z" transform="translate(-307.167 -262.559)" fill="#2f2e41"/>
    <circle id="Elipse_10" dataName="Elipse 10" cx="15.589" cy="15.589" r="15.589" transform="translate(19.81 116.167)" fill="#ffb9b9"/>
    <path id="Caminho_78" dataName="Caminho 78" d="M409,386.711c0,.65,9.418,27.28,8.769,28.254s.65,17.862.65,17.862h16.888a11.5,11.5,0,0,0,.65-3.9c0-2.273-2.923-27.28-6.171-42.544S416.472,364.3,416.472,364.3l-2.273,1.3S409,386.062,409,386.711Z" transform="translate(-344.05 -202.019)" fill="#e6e6e6"/>
    <path id="Caminho_79" dataName="Caminho 79" d="M126.792,399.928l14.29-.325,5.2-4.872-20.46-1.3Z" transform="translate(-52.422 -163.923)" fill="#3f3d56"/>
    <path id="Caminho_80" dataName="Caminho 80" d="M358.341,524.87l2.923,11.367s11.691-2.273,16.238-3.9,17.212-3.248,17.212-3.248l-4.222-7.794Z" transform="translate(-322.942 -267.43)" fill="#3f3d56"/>
    <path id="Caminho_81" dataName="Caminho 81" d="M23.336,437.413,21.712,447.48,36,450.4l3.572-10.717Z" transform="translate(-9.046 -182.247)" fill="#3f3d56"/>
    <path id="Caminho_82" dataName="Caminho 82" d="M329.718,347.5s-1.3,2.923-9.743,5.846S309.907,369.9,309.907,369.9s10.068,27.28,9.743,29.229,1.3,6.5,1.3,6.5l-1.624,27.6-3.248,12.341c28.9,10.717,56.509-1.624,56.509-1.624s-1.3-12.016-.65-15.264,1.624-33.126,1.624-33.126l1.624-43.843-19.161-6.82-3.248-2.6s-.65-7.47-1.624-8.119-3.572,2.6-7.145,6.5-11.042,3.248-13.315,1.949-3.248-.65-3.248-.65C325.82,343.274,329.718,347.5,329.718,347.5Z" transform="translate(-302.762 -189.434)" fill="#e6e6e6"/>
    <path id="Caminho_83" dataName="Caminho 83" d="M357.488,290.214c-1.93-5.355-9.9-1.183-17.309.249s-7.076,15.571-7.076,15.571-4.547-7.508-4.547-15.913,4-6.413,4.556-7.658,2.055-.374,2.055-.374.809-3.113,3.051-2.677a3.177,3.177,0,0,0,3.3-1.245c10.833-5.79,9.152-.436,13.262.311s3.487,1.743,4.794,4.109a44.981,44.981,0,0,1,2.615,6.6,15.284,15.284,0,0,0,.436,4.545,7.148,7.148,0,0,1-1,5.043A40.817,40.817,0,0,1,357.488,290.214Z" transform="translate(-310.532 -165.022)" fill="#2f2e41"/>
    <ellipse id="Elipse_11" dataName="Elipse 11" cx="1.461" cy="1.949" rx="1.461" ry="1.949" transform="translate(20.947 133.218)" fill="#ffb9b9"/>
    <path id="Caminho_84" dataName="Caminho 84" d="M356.967,765.409l1.713,13.7s1.713,3.426,0,5.139,0,6.281,0,6.281-4,3.426-13.133,2.855-6.852-7.994-4.568-11.42,2.284-10.278,2.284-10.278l2.284-6.852Z" transform="translate(-314.857 -368.901)" fill="#2f2e41"/>
    <path id="Caminho_85" dataName="Caminho 85" d="M405.195,765.409l-1.713,13.7s-1.713,3.426,0,5.139,0,6.281,0,6.281,4,3.426,13.133,2.855,6.852-7.994,4.568-11.42S418.9,771.69,418.9,771.69l-2.284-6.852Z" transform="translate(-341.433 -368.901)" fill="#2f2e41"/>
    <path id="Caminho_86" dataName="Caminho 86" d="M751.144,187h-2.333V123.1a36.986,36.986,0,0,0-36.986-36.986H576.438A36.986,36.986,0,0,0,539.452,123.1v350.58a36.986,36.986,0,0,0,36.986,36.986H711.826a36.986,36.986,0,0,0,36.986-36.986V232.487h2.333Z" transform="translate(-398.402 -86.111)" fill="#3f3d56"/>
    <path id="Caminho_87" dataName="Caminho 87" d="M720.607,102.606H702.935a13.122,13.122,0,0,1-12.15,18.078H613.223a13.122,13.122,0,0,1-12.15-18.078H584.567a27.62,27.62,0,0,0-27.62,27.62V480.292a27.62,27.62,0,0,0,27.62,27.62H720.607a27.62,27.62,0,0,0,27.62-27.621h0V130.227a27.62,27.62,0,0,0-27.621-27.621Z" transform="translate(-405.69 -92.984)" fill="#fff"/>
    <path id="Caminho_88" dataName="Caminho 88" d="M591.776,176.083A2.92,2.92,0,0,0,588.859,179V499.747a2.92,2.92,0,0,0,2.917,2.917H739.991a2.92,2.92,0,0,0,2.917-2.917V179a2.92,2.92,0,0,0-2.917-2.917Z" transform="translate(-418.987 -123.598)" fill="#198d70"/>
    <path id="Caminho_89" dataName="Caminho 89" d="M695.5,414.6c0-22.7,4.323-47.614,18.909-67.063,20.309-27.078,19.225-60.44,14.738-83.658a182.3,182.3,0,0,0-14.835-44.536l1.961-1.023A184.619,184.619,0,0,1,731.3,263.4c4.582,23.674,5.677,57.72-15.13,85.463-38.979,51.973-3.97,145.035-3.613,145.969l-2.065.793a268,268,0,0,1-13.112-53.86A205.916,205.916,0,0,1,695.5,414.6Z" transform="translate(-463.417 -141.195)" fill="#fff"/>
    <path id="Caminho_90" dataName="Caminho 90" d="M716.557,219.176s18.481,76.3-6.823,129.38.188,147.072.188,147.072" transform="translate(-464.684 -141.552)" fill="#fff" opacity="0.3"/>
    <path id="Caminho_91" dataName="Caminho 91" d="M680.215,290.852a145.371,145.371,0,0,1,2.741-27.453,184.62,184.62,0,0,1,15.034-45.081l1.961,1.023a182.309,182.309,0,0,0-14.835,44.536c-4.486,23.217-5.57,56.579,14.738,83.658,20.789,27.719,20.731,66.545,17.021,94.229a268,268,0,0,1-13.112,53.86l-2.065-.793c.358-.934,35.367-93.995-3.613-145.969C684.441,330.669,680.215,309.764,680.215,290.852Z" transform="translate(-457.05 -141.195)" fill="#fff" opacity="0.3"/>
    <path id="Caminho_92" dataName="Caminho 92" d="M695.48,291.292c0-38.3,13.74-72.309,13.95-72.82l2.045.842c-.312.757-30.851,76.4-.071,128.385,31.316,52.885,3.363,146.969,3.077,147.912l-2.117-.641c.283-.934,27.956-94.1-2.863-146.144C698.984,331.063,695.48,310.63,695.48,291.292Z" transform="translate(-463.41 -141.259)" fill="#fff" opacity="0.3"/>
    <path id="Caminho_93" dataName="Caminho 93" d="M716.03,219.2s-25.3,76.29,0,129.369,2.391,147.029,2.391,147.029" transform="translate(-467.287 -141.56)" fill="#fff" opacity="0.3"/>
    <path id="Caminho_94" dataName="Caminho 94" d="M716.054,219.2s39.809,76.29,0,129.369-3.761,147.029-3.761,147.029" transform="translate(-464.181 -141.56)" fill="#fff" opacity="0.3"/>
  </g>
</svg>
